<ttFont>
    <TTGlyph name=".notdef" xMin="66" yMin="-162" xMax="1938" yMax="1247">
      <contour>
        <pt x="1356" y="324" on="1"/>
        <pt x="1360" y="325" on="0"/>
        <pt x="1378" y="344" on="0"/>
        <pt x="1398" y="367" on="0"/>
        <pt x="1412" y="389" on="0"/>
        <pt x="1411" y="393" on="1"/>
        <pt x="1386" y="416" on="0"/>
        <pt x="1287" y="499" on="0"/>
        <pt x="1227" y="553" on="1"/>
        <pt x="1276" y="619" on="0"/>
        <pt x="1356" y="723" on="0"/>
        <pt x="1376" y="752" on="1"/>
        <pt x="1364" y="763" on="0"/>
        <pt x="1320" y="796" on="0"/>
        <pt x="1300" y="805" on="1"/>
        <pt x="1149" y="614" on="1"/>
        <pt x="1118" y="639" on="0"/>
        <pt x="1059" y="684" on="0"/>
        <pt x="1007" y="723" on="0"/>
        <pt x="965" y="754" on="0"/>
        <pt x="950" y="764" on="1"/>
        <pt x="939" y="752" on="0"/>
        <pt x="906" y="709" on="0"/>
        <pt x="897" y="684" on="1"/>
        <pt x="1083" y="537" on="1"/>
        <pt x="936" y="346" on="1"/>
        <pt x="937" y="341" on="0"/>
        <pt x="956" y="323" on="0"/>
        <pt x="980" y="304" on="0"/>
        <pt x="1002" y="290" on="0"/>
        <pt x="1006" y="291" on="1"/>
        <pt x="1165" y="471" on="1"/>
      </contour>
      <contour>
        <pt x="1804" y="965" on="1"/>
        <pt x="1802" y="967" on="1"/>
        <pt x="1801" y="916" on="0"/>
        <pt x="1788" y="796" on="0"/>
        <pt x="1750" y="663" on="0"/>
        <pt x="1682" y="520" on="0"/>
        <pt x="1573" y="373" on="0"/>
        <pt x="1416" y="223" on="0"/>
        <pt x="1309" y="150" on="1"/>
        <pt x="1309" y="144" on="0"/>
        <pt x="1306" y="127" on="0"/>
        <pt x="1298" y="111" on="0"/>
        <pt x="1284" y="100" on="0"/>
        <pt x="1272" y="100" on="1"/>
        <pt x="1247" y="76" on="1"/>
        <pt x="1295" y="59" on="0"/>
        <pt x="1394" y="21" on="0"/>
        <pt x="1442" y="-2" on="1"/>
        <pt x="1452" y="-2" on="0"/>
        <pt x="1473" y="-1" on="0"/>
        <pt x="1485" y="-1" on="1"/>
        <pt x="1513" y="-1" on="0"/>
        <pt x="1578" y="-14" on="0"/>
        <pt x="1612" y="-39" on="1"/>
        <pt x="1612" y="-47" on="0"/>
        <pt x="1609" y="-48" on="0"/>
        <pt x="1604" y="-53" on="1"/>
        <pt x="1575" y="-39" on="0"/>
        <pt x="1523" y="-22" on="0"/>
        <pt x="1485" y="-27" on="1"/>
        <pt x="1505" y="-38" on="0"/>
        <pt x="1544" y="-63" on="0"/>
        <pt x="1561" y="-88" on="1"/>
        <pt x="1558" y="-97" on="0"/>
        <pt x="1542" y="-100" on="1"/>
        <pt x="1513" y="-71" on="0"/>
        <pt x="1449" y="-33" on="0"/>
        <pt x="1411" y="-35" on="1"/>
        <pt x="1394" y="-35" on="0"/>
        <pt x="1371" y="-38" on="0"/>
        <pt x="1349" y="-45" on="0"/>
        <pt x="1325" y="-56" on="0"/>
        <pt x="1307" y="-63" on="1"/>
        <pt x="1302" y="-59" on="0"/>
        <pt x="1295" y="-62" on="0"/>
        <pt x="1294" y="-51" on="1"/>
        <pt x="1304" y="-39" on="0"/>
        <pt x="1323" y="-27" on="0"/>
        <pt x="1343" y="-20" on="0"/>
        <pt x="1367" y="-14" on="0"/>
        <pt x="1382" y="-8" on="1"/>
        <pt x="1349" y="10" on="0"/>
        <pt x="1285" y="35" on="0"/>
        <pt x="1235" y="51" on="0"/>
        <pt x="1204" y="64" on="0"/>
        <pt x="1204" y="70" on="1"/>
        <pt x="1204" y="82" on="0"/>
        <pt x="1227" y="100" on="1"/>
        <pt x="1218" y="100" on="0"/>
        <pt x="1205" y="110" on="0"/>
        <pt x="1195" y="123" on="0"/>
        <pt x="1189" y="136" on="0"/>
        <pt x="1188" y="139" on="1"/>
        <pt x="1133" y="139" on="1"/>
        <pt x="1104" y="139" on="0"/>
        <pt x="1049" y="142" on="0"/>
        <pt x="1020" y="147" on="1"/>
        <pt x="1018" y="141" on="0"/>
        <pt x="1009" y="123" on="0"/>
        <pt x="995" y="107" on="0"/>
        <pt x="977" y="98" on="0"/>
        <pt x="965" y="100" on="1"/>
        <pt x="954" y="94" on="0"/>
        <pt x="939" y="85" on="0"/>
        <pt x="934" y="80" on="1"/>
        <pt x="976" y="54" on="0"/>
        <pt x="1063" y="-2" on="0"/>
        <pt x="1106" y="-37" on="1"/>
        <pt x="1123" y="-41" on="0"/>
        <pt x="1160" y="-45" on="0"/>
        <pt x="1198" y="-56" on="0"/>
        <pt x="1235" y="-80" on="0"/>
        <pt x="1253" y="-104" on="1"/>
        <pt x="1253" y="-112" on="0"/>
        <pt x="1248" y="-114" on="0"/>
        <pt x="1243" y="-119" on="1"/>
        <pt x="1231" y="-107" on="0"/>
        <pt x="1212" y="-92" on="0"/>
        <pt x="1191" y="-82" on="0"/>
        <pt x="1164" y="-75" on="0"/>
        <pt x="1143" y="-72" on="1"/>
        <pt x="1183" y="-97" on="0"/>
        <pt x="1198" y="-152" on="1"/>
        <pt x="1196" y="-157" on="0"/>
        <pt x="1190" y="-162" on="0"/>
        <pt x="1182" y="-160" on="1"/>
        <pt x="1162" y="-128" on="0"/>
        <pt x="1110" y="-71" on="0"/>
        <pt x="1073" y="-63" on="1"/>
        <pt x="1053" y="-60" on="0"/>
        <pt x="1032" y="-60" on="1"/>
        <pt x="984" y="-60" on="0"/>
        <pt x="930" y="-74" on="1"/>
        <pt x="924" y="-65" on="0"/>
        <pt x="924" y="-57" on="1"/>
        <pt x="948" y="-40" on="0"/>
        <pt x="1008" y="-35" on="0"/>
        <pt x="1040" y="-33" on="1"/>
        <pt x="1014" y="-11" on="0"/>
        <pt x="960" y="24" on="0"/>
        <pt x="915" y="53" on="0"/>
        <pt x="887" y="75" on="0"/>
        <pt x="887" y="84" on="1"/>
        <pt x="887" y="95" on="0"/>
        <pt x="901" y="102" on="0"/>
        <pt x="913" y="113" on="1"/>
        <pt x="899" y="127" on="0"/>
        <pt x="897" y="166" on="0"/>
        <pt x="899" y="178" on="1"/>
        <pt x="809" y="227" on="0"/>
        <pt x="671" y="350" on="0"/>
        <pt x="566" y="477" on="0"/>
        <pt x="489" y="598" on="0"/>
        <pt x="461" y="645" on="1"/>
        <pt x="406" y="663" on="0"/>
        <pt x="298" y="700" on="0"/>
        <pt x="199" y="739" on="0"/>
        <pt x="113" y="784" on="0"/>
        <pt x="80" y="811" on="1"/>
        <pt x="66" y="823" on="0"/>
        <pt x="72" y="856" on="0"/>
        <pt x="92" y="856" on="1"/>
        <pt x="616" y="811" on="1"/>
        <pt x="791" y="846" on="0"/>
        <pt x="1034" y="891" on="0"/>
        <pt x="1194" y="930" on="0"/>
        <pt x="1284" y="973" on="0"/>
        <pt x="1307" y="1006" on="1"/>
        <pt x="1338" y="1060" on="0"/>
        <pt x="1399" y="1136" on="0"/>
        <pt x="1466" y="1184" on="0"/>
        <pt x="1541" y="1206" on="0"/>
        <pt x="1585" y="1206" on="1"/>
        <pt x="1613" y="1206" on="0"/>
        <pt x="1661" y="1198" on="0"/>
        <pt x="1681" y="1192" on="1"/>
        <pt x="1681" y="1194" on="1"/>
        <pt x="1833" y="1247" on="1"/>
        <pt x="1835" y="1247" on="0"/>
        <pt x="1839" y="1246" on="0"/>
        <pt x="1839" y="1243" on="1"/>
        <pt x="1839" y="1241" on="1"/>
        <pt x="1788" y="1100" on="1"/>
        <pt x="1931" y="1106" on="1"/>
        <pt x="1938" y="1106" on="0"/>
        <pt x="1935" y="1100" on="1"/>
      </contour>
    </TTGlyph>
    <TTGlyph name="A" xMin="10" yMin="-49" xMax="1743" yMax="1556">
      <contour>
        <pt x="1687" y="41" on="1"/>
        <pt x="1631" y="44" on="0"/>
        <pt x="1526" y="55" on="0"/>
        <pt x="1440" y="75" on="0"/>
        <pt x="1381" y="108" on="0"/>
        <pt x="1372" y="133" on="1"/>
        <pt x="819" y="1499" on="1"/>
        <pt x="802" y="1498" on="0"/>
        <pt x="786" y="1485" on="1"/>
        <pt x="779" y="1361" on="0"/>
        <pt x="710" y="1286" on="1"/>
        <pt x="733" y="1227" on="1"/>
        <pt x="311" y="166" on="1"/>
        <pt x="271" y="66" on="0"/>
        <pt x="65" y="41" on="1"/>
        <pt x="59" y="27" on="0"/>
        <pt x="59" y="16" on="1"/>
        <pt x="59" y="4" on="0"/>
        <pt x="65" y="-8" on="1"/>
        <pt x="179" y="-4" on="0"/>
        <pt x="318" y="0" on="0"/>
        <pt x="344" y="0" on="1"/>
        <pt x="367" y="0" on="0"/>
        <pt x="530" y="-4" on="0"/>
        <pt x="670" y="-8" on="1"/>
        <pt x="676" y="4" on="0"/>
        <pt x="676" y="16" on="1"/>
        <pt x="676" y="27" on="0"/>
        <pt x="670" y="41" on="1"/>
        <pt x="587" y="49" on="0"/>
        <pt x="483" y="68" on="0"/>
        <pt x="425" y="90" on="0"/>
        <pt x="405" y="117" on="0"/>
        <pt x="405" y="134" on="1"/>
        <pt x="405" y="145" on="0"/>
        <pt x="409" y="156" on="1"/>
        <pt x="555" y="522" on="1"/>
        <pt x="666" y="524" on="0"/>
        <pt x="803" y="526" on="0"/>
        <pt x="829" y="526" on="1"/>
        <pt x="886" y="526" on="0"/>
        <pt x="975" y="525" on="0"/>
        <pt x="1007" y="524" on="1"/>
        <pt x="1152" y="156" on="1"/>
        <pt x="1157" y="141" on="0"/>
        <pt x="1157" y="133" on="1"/>
        <pt x="1157" y="106" on="0"/>
        <pt x="1102" y="64" on="0"/>
        <pt x="1062" y="56" on="1"/>
        <pt x="954" y="41" on="1"/>
        <pt x="948" y="27" on="0"/>
        <pt x="948" y="16" on="1"/>
        <pt x="948" y="4" on="0"/>
        <pt x="954" y="-8" on="1"/>
        <pt x="1039" y="-5" on="0"/>
        <pt x="1214" y="-1" on="0"/>
        <pt x="1306" y="-1" on="1"/>
        <pt x="1398" y="-1" on="0"/>
        <pt x="1587" y="-5" on="0"/>
        <pt x="1687" y="-8" on="1"/>
        <pt x="1694" y="6" on="0"/>
        <pt x="1694" y="16" on="1"/>
        <pt x="1694" y="22" on="0"/>
        <pt x="1690" y="34" on="0"/>
      </contour>
      <contour>
        <pt x="829" y="604" on="1"/>
        <pt x="684" y="604" on="0"/>
        <pt x="590" y="608" on="1"/>
        <pt x="780" y="1098" on="1"/>
        <pt x="784" y="1098" on="1"/>
        <pt x="975" y="606" on="1"/>
        <pt x="921" y="604" on="0"/>
      </contour>
      <contour>
        <pt x="782" y="993" on="1"/>
        <pt x="649" y="647" on="1"/>
        <pt x="770" y="641" on="0"/>
        <pt x="915" y="645" on="1"/>
      </contour>
      <contour>
        <pt x="1718" y="78" on="1"/>
        <pt x="1743" y="18" on="0"/>
        <pt x="1716" y="-49" on="1"/>
        <pt x="923" y="-49" on="1"/>
        <pt x="899" y="20" on="0"/>
        <pt x="923" y="78" on="1"/>
        <pt x="1032" y="84" on="0"/>
        <pt x="1122" y="117" on="0"/>
        <pt x="1108" y="154" on="1"/>
        <pt x="977" y="485" on="1"/>
        <pt x="792" y="492" on="0"/>
        <pt x="581" y="481" on="1"/>
        <pt x="452" y="150" on="1"/>
        <pt x="446" y="133" on="0"/>
        <pt x="477" y="106" on="0"/>
        <pt x="547" y="90" on="0"/>
        <pt x="641" y="80" on="0"/>
        <pt x="700" y="78" on="1"/>
        <pt x="725" y="18" on="0"/>
        <pt x="698" y="-49" on="1"/>
        <pt x="370" y="-37" on="0"/>
        <pt x="37" y="-49" on="1"/>
        <pt x="10" y="18" on="0"/>
        <pt x="35" y="78" on="1"/>
        <pt x="241" y="102" on="0"/>
        <pt x="268" y="168" on="1"/>
        <pt x="690" y="1229" on="1"/>
        <pt x="686" y="1237" on="0"/>
        <pt x="663" y="1294" on="0"/>
        <pt x="661" y="1303" on="1"/>
        <pt x="739" y="1382" on="0"/>
        <pt x="747" y="1507" on="1"/>
        <pt x="835" y="1550" on="0"/>
        <pt x="954" y="1556" on="1"/>
        <pt x="1515" y="164" on="1"/>
        <pt x="1534" y="117" on="0"/>
        <pt x="1616" y="86" on="0"/>
      </contour>
    </TTGlyph>
    <TTGlyph name="AE" xMin="-20" yMin="-49" xMax="2389" yMax="1513">
      <contour>
        <pt x="1047" y="662" on="1"/>
        <pt x="728" y="662" on="1"/>
        <pt x="431" y="152" on="1"/>
        <pt x="417" y="122" on="0"/>
        <pt x="447" y="101" on="0"/>
        <pt x="477" y="94" on="0"/>
        <pt x="568" y="84" on="0"/>
        <pt x="603" y="82" on="1"/>
        <pt x="625" y="18" on="0"/>
        <pt x="603" y="-49" on="1"/>
        <pt x="310" y="-37" on="0"/>
        <pt x="13" y="-49" on="1"/>
        <pt x="-20" y="16" on="0"/>
        <pt x="11" y="80" on="1"/>
        <pt x="203" y="102" on="0"/>
        <pt x="240" y="164" on="1"/>
        <pt x="951" y="1368" on="1"/>
        <pt x="926" y="1372" on="0"/>
        <pt x="814" y="1384" on="1"/>
        <pt x="795" y="1454" on="0"/>
        <pt x="818" y="1513" on="1"/>
        <pt x="1125" y="1503" on="0"/>
        <pt x="1225" y="1503" on="1"/>
        <pt x="2192" y="1503" on="1"/>
        <pt x="2217" y="1307" on="0"/>
        <pt x="2348" y="1090" on="1"/>
        <pt x="2325" y="1042" on="0"/>
        <pt x="2241" y="1012" on="1"/>
        <pt x="2159" y="1161" on="0"/>
        <pt x="1840" y="1360" on="0"/>
        <pt x="1586" y="1360" on="1"/>
        <pt x="1422" y="1360" on="1"/>
        <pt x="1412" y="1001" on="0"/>
        <pt x="1412" y="809" on="1"/>
        <pt x="1475" y="807" on="0"/>
        <pt x="1594" y="807" on="1"/>
        <pt x="1678" y="807" on="0"/>
        <pt x="1778" y="920" on="0"/>
        <pt x="1838" y="1040" on="1"/>
        <pt x="1881" y="1124" on="1"/>
        <pt x="1965" y="1094" on="0"/>
        <pt x="1987" y="1047" on="1"/>
        <pt x="1942" y="969" on="0"/>
        <pt x="1881" y="788" on="0"/>
        <pt x="1881" y="733" on="1"/>
        <pt x="1881" y="600" on="0"/>
        <pt x="1987" y="420" on="1"/>
        <pt x="1963" y="369" on="0"/>
        <pt x="1885" y="342" on="1"/>
        <pt x="1848" y="403" on="0"/>
        <pt x="1832" y="436" on="1"/>
        <pt x="1791" y="504" on="0"/>
        <pt x="1744" y="571" on="0"/>
        <pt x="1649" y="639" on="0"/>
        <pt x="1592" y="641" on="1"/>
        <pt x="1412" y="641" on="1"/>
        <pt x="1412" y="420" on="0"/>
        <pt x="1420" y="102" on="1"/>
        <pt x="1627" y="102" on="1"/>
        <pt x="1881" y="102" on="0"/>
        <pt x="2200" y="301" on="0"/>
        <pt x="2282" y="451" on="1"/>
        <pt x="2366" y="420" on="0"/>
        <pt x="2389" y="373" on="1"/>
        <pt x="2258" y="156" on="0"/>
        <pt x="2233" y="-41" on="1"/>
        <pt x="1404" y="-41" on="1"/>
        <pt x="1008" y="-41" on="0"/>
        <pt x="816" y="-47" on="1"/>
        <pt x="795" y="18" on="0"/>
        <pt x="814" y="80" on="1"/>
        <pt x="1033" y="102" on="0"/>
        <pt x="1035" y="139" on="1"/>
        <pt x="1045" y="401" on="0"/>
      </contour>
      <contour>
        <pt x="1074" y="1335" on="1"/>
        <pt x="1078" y="1335" on="1"/>
        <pt x="1088" y="1100" on="0"/>
        <pt x="1088" y="764" on="1"/>
        <pt x="742" y="764" on="1"/>
      </contour>
      <contour>
        <pt x="705" y="702" on="1"/>
        <pt x="1088" y="702" on="1"/>
        <pt x="1088" y="420" on="0"/>
        <pt x="1076" y="137" on="1"/>
        <pt x="1074" y="63" on="0"/>
        <pt x="844" y="41" on="1"/>
        <pt x="840" y="6" on="0"/>
        <pt x="844" y="-6" on="1"/>
        <pt x="1037" y="0" on="0"/>
        <pt x="1309" y="0" on="1"/>
        <pt x="1742" y="0" on="1"/>
        <pt x="1987" y="0" on="0"/>
        <pt x="2235" y="168" on="0"/>
        <pt x="2335" y="373" on="1"/>
        <pt x="2327" y="389" on="0"/>
        <pt x="2301" y="399" on="1"/>
        <pt x="2118" y="61" on="0"/>
        <pt x="1629" y="61" on="1"/>
        <pt x="1268" y="61" on="1"/>
        <pt x="1258" y="498" on="0"/>
        <pt x="1258" y="700" on="1"/>
        <pt x="1584" y="702" on="1"/>
        <pt x="1627" y="702" on="0"/>
        <pt x="1703" y="674" on="0"/>
        <pt x="1748" y="645" on="0"/>
        <pt x="1807" y="563" on="0"/>
        <pt x="1832" y="526" on="0"/>
        <pt x="1891" y="410" on="0"/>
        <pt x="1901" y="393" on="1"/>
        <pt x="1932" y="406" on="0"/>
        <pt x="1940" y="420" on="1"/>
        <pt x="1840" y="590" on="0"/>
        <pt x="1840" y="733" on="1"/>
        <pt x="1840" y="795" on="0"/>
        <pt x="1897" y="973" on="0"/>
        <pt x="1940" y="1047" on="1"/>
        <pt x="1932" y="1061" on="0"/>
        <pt x="1901" y="1073" on="1"/>
        <pt x="1893" y="1059" on="0"/>
        <pt x="1846" y="967" on="0"/>
        <pt x="1832" y="940" on="0"/>
        <pt x="1789" y="868" on="0"/>
        <pt x="1764" y="844" on="0"/>
        <pt x="1717" y="797" on="0"/>
        <pt x="1674" y="780" on="0"/>
        <pt x="1617" y="766" on="0"/>
        <pt x="1584" y="766" on="1"/>
        <pt x="1369" y="766" on="0"/>
        <pt x="1258" y="770" on="1"/>
        <pt x="1258" y="1012" on="0"/>
        <pt x="1270" y="1401" on="1"/>
        <pt x="1588" y="1401" on="1"/>
        <pt x="2077" y="1401" on="0"/>
        <pt x="2260" y="1063" on="1"/>
        <pt x="2286" y="1073" on="0"/>
        <pt x="2294" y="1090" on="1"/>
        <pt x="2194" y="1294" on="0"/>
        <pt x="1946" y="1462" on="0"/>
        <pt x="1701" y="1462" on="1"/>
        <pt x="1197" y="1462" on="1"/>
        <pt x="1072" y="1462" on="0"/>
        <pt x="847" y="1470" on="1"/>
        <pt x="847" y="1423" on="1"/>
        <pt x="955" y="1415" on="0"/>
        <pt x="1012" y="1393" on="1"/>
        <pt x="275" y="143" on="1"/>
        <pt x="226" y="63" on="0"/>
        <pt x="42" y="41" on="1"/>
        <pt x="38" y="29" on="0"/>
        <pt x="38" y="4" on="0"/>
        <pt x="42" y="-8" on="1"/>
        <pt x="324" y="8" on="0"/>
        <pt x="572" y="-8" on="1"/>
        <pt x="576" y="8" on="0"/>
        <pt x="576" y="25" on="0"/>
        <pt x="572" y="41" on="1"/>
        <pt x="480" y="49" on="0"/>
        <pt x="427" y="59" on="0"/>
        <pt x="398" y="71" on="0"/>
        <pt x="370" y="94" on="0"/>
        <pt x="368" y="126" on="0"/>
        <pt x="380" y="145" on="1"/>
      </contour>
      <contour>
        <pt x="1047" y="809" on="1"/>
        <pt x="1045" y="1204" on="1"/>
        <pt x="812" y="807" on="1"/>
      </contour>
    </TTGlyph>
    <TTGlyph name="Aacute" xMin="10" yMin="-49" xMax="1743" yMax="2095">
      <component glyphName="A" x="0" y="0" flags="0x204"/>
      <component glyphName="acute" x="215" y="586" flags="0x4"/>
    </TTGlyph>
    <TTGlyph name="Acircumflex" xMin="10" yMin="-49" xMax="1743" yMax="2026">
      <component glyphName="A" x="0" y="0" flags="0x204"/>
      <component glyphName="circumflex" x="295" y="586" flags="0x4"/>
    </TTGlyph>
    <TTGlyph name="Adieresis" xMin="10" yMin="-49" xMax="1743" yMax="1991">
      <component glyphName="A" x="0" y="0" flags="0x204"/>
      <component glyphName="dieresis" x="262" y="586" flags="0x4"/>
    </TTGlyph>
    <TTGlyph name="Agrave" xMin="10" yMin="-49" xMax="1743" yMax="2095">
      <component glyphName="A" x="0" y="0" flags="0x204"/>
      <component glyphName="grave" x="246" y="586" flags="0x4"/>
    </TTGlyph>
    <TTGlyph name="Aring" xMin="10" yMin="-49" xMax="1743" yMax="2091">
      <component glyphName="A" x="0" y="0" flags="0x204"/>
      <component glyphName="ring" x="252" y="586" flags="0x4"/>
    </TTGlyph>
    <TTGlyph name="Atilde" xMin="10" yMin="-49" xMax="1743" yMax="1968">
      <component glyphName="A" x="0" y="0" flags="0x204"/>
      <component glyphName="tilde" x="276" y="586" flags="0x4"/>
    </TTGlyph>
    <TTGlyph name="B" xMin="51" yMin="-49" xMax="1520" yMax="1513">
      <contour>
        <pt x="518" y="829" on="1"/>
        <pt x="530" y="1399" on="1"/>
        <pt x="614" y="1405" on="0"/>
        <pt x="657" y="1405" on="1"/>
        <pt x="799" y="1405" on="0"/>
        <pt x="967" y="1278" on="0"/>
        <pt x="967" y="1141" on="1"/>
        <pt x="967" y="829" on="0"/>
      </contour>
      <contour>
        <pt x="528" y="68" on="1"/>
        <pt x="518" y="768" on="1"/>
        <pt x="598" y="774" on="0"/>
        <pt x="674" y="774" on="1"/>
        <pt x="889" y="774" on="0"/>
        <pt x="1143" y="616" on="0"/>
        <pt x="1143" y="446" on="1"/>
        <pt x="1143" y="346" on="0"/>
        <pt x="1069" y="203" on="0"/>
        <pt x="958" y="125" on="0"/>
        <pt x="782" y="80" on="0"/>
        <pt x="631" y="68" on="0"/>
      </contour>
      <contour>
        <pt x="682" y="111" on="1"/>
        <pt x="772" y="117" on="0"/>
        <pt x="909" y="147" on="0"/>
        <pt x="1034" y="217" on="0"/>
        <pt x="1102" y="350" on="0"/>
        <pt x="1102" y="446" on="1"/>
        <pt x="1102" y="549" on="0"/>
        <pt x="962" y="690" on="0"/>
        <pt x="772" y="741" on="0"/>
        <pt x="672" y="731" on="1"/>
      </contour>
      <contour>
        <pt x="682" y="1362" on="1"/>
        <pt x="674" y="877" on="1"/>
        <pt x="926" y="915" on="0"/>
        <pt x="926" y="1141" on="1"/>
        <pt x="926" y="1348" on="0"/>
      </contour>
      <contour>
        <pt x="104" y="-6" on="1"/>
        <pt x="299" y="0" on="0"/>
        <pt x="569" y="0" on="1"/>
        <pt x="659" y="0" on="0"/>
        <pt x="803" y="8" on="0"/>
        <pt x="1003" y="35" on="0"/>
        <pt x="1153" y="98" on="0"/>
        <pt x="1292" y="193" on="0"/>
        <pt x="1366" y="348" on="0"/>
        <pt x="1366" y="451" on="1"/>
        <pt x="1366" y="608" on="0"/>
        <pt x="1120" y="809" on="0"/>
        <pt x="940" y="838" on="1"/>
        <pt x="940" y="846" on="1"/>
        <pt x="1057" y="883" on="0"/>
        <pt x="1200" y="1030" on="0"/>
        <pt x="1200" y="1141" on="1"/>
        <pt x="1200" y="1470" on="0"/>
        <pt x="700" y="1470" on="1"/>
        <pt x="661" y="1470" on="0"/>
        <pt x="477" y="1462" on="0"/>
        <pt x="254" y="1462" on="0"/>
        <pt x="106" y="1470" on="1"/>
        <pt x="98" y="1452" on="0"/>
        <pt x="106" y="1423" on="1"/>
        <pt x="336" y="1401" on="0"/>
        <pt x="338" y="1327" on="1"/>
        <pt x="348" y="1092" on="0"/>
        <pt x="348" y="768" on="1"/>
        <pt x="348" y="451" on="0"/>
        <pt x="336" y="137" on="1"/>
        <pt x="334" y="63" on="0"/>
        <pt x="104" y="41" on="1"/>
        <pt x="96" y="25" on="0"/>
      </contour>
      <contour>
        <pt x="78" y="1513" on="1"/>
        <pt x="223" y="1507" on="0"/>
        <pt x="481" y="1507" on="0"/>
        <pt x="727" y="1511" on="0"/>
        <pt x="772" y="1511" on="1"/>
        <pt x="856" y="1511" on="0"/>
        <pt x="993" y="1499" on="0"/>
        <pt x="1161" y="1454" on="0"/>
        <pt x="1276" y="1378" on="0"/>
        <pt x="1354" y="1237" on="0"/>
        <pt x="1354" y="1141" on="1"/>
        <pt x="1354" y="963" on="0"/>
        <pt x="1157" y="854" on="1"/>
        <pt x="1319" y="807" on="0"/>
        <pt x="1520" y="600" on="0"/>
        <pt x="1520" y="451" on="1"/>
        <pt x="1520" y="354" on="0"/>
        <pt x="1454" y="201" on="0"/>
        <pt x="1352" y="100" on="0"/>
        <pt x="1194" y="27" on="0"/>
        <pt x="1048" y="-12" on="0"/>
        <pt x="858" y="-35" on="0"/>
        <pt x="723" y="-41" on="0"/>
        <pt x="641" y="-41" on="1"/>
        <pt x="403" y="-41" on="0"/>
        <pt x="76" y="-49" on="1"/>
        <pt x="51" y="20" on="0"/>
        <pt x="76" y="80" on="1"/>
        <pt x="293" y="102" on="0"/>
        <pt x="295" y="139" on="1"/>
        <pt x="307" y="453" on="0"/>
        <pt x="307" y="768" on="1"/>
        <pt x="307" y="1090" on="0"/>
        <pt x="297" y="1325" on="1"/>
        <pt x="295" y="1362" on="0"/>
        <pt x="74" y="1384" on="1"/>
        <pt x="57" y="1448" on="0"/>
      </contour>
    </TTGlyph>
    <TTGlyph name="C" xMin="113" yMin="-82" xMax="1561" yMax="1544">
      <contour>
        <pt x="911" y="-41" on="1"/>
        <pt x="1063" y="-41" on="0"/>
        <pt x="1382" y="98" on="0"/>
        <pt x="1475" y="233" on="1"/>
        <pt x="1475" y="246" on="0"/>
        <pt x="1452" y="264" on="0"/>
        <pt x="1438" y="264" on="1"/>
        <pt x="1288" y="82" on="0"/>
        <pt x="997" y="82" on="1"/>
        <pt x="690" y="82" on="0"/>
        <pt x="377" y="453" on="0"/>
        <pt x="377" y="729" on="1"/>
        <pt x="377" y="854" on="0"/>
        <pt x="432" y="1087" on="0"/>
        <pt x="549" y="1300" on="0"/>
        <pt x="766" y="1432" on="0"/>
        <pt x="911" y="1432" on="1"/>
        <pt x="1010" y="1432" on="0"/>
        <pt x="1178" y="1370" on="0"/>
        <pt x="1286" y="1286" on="0"/>
        <pt x="1389" y="1145" on="0"/>
        <pt x="1442" y="1042" on="0"/>
        <pt x="1479" y="963" on="1"/>
        <pt x="1509" y="967" on="0"/>
        <pt x="1516" y="985" on="1"/>
        <pt x="1442" y="1282" on="0"/>
        <pt x="1143" y="1503" on="0"/>
        <pt x="911" y="1503" on="1"/>
        <pt x="817" y="1503" on="0"/>
        <pt x="621" y="1458" on="0"/>
        <pt x="414" y="1343" on="0"/>
        <pt x="256" y="1174" on="0"/>
        <pt x="154" y="899" on="0"/>
        <pt x="154" y="559" on="0"/>
        <pt x="256" y="285" on="0"/>
        <pt x="414" y="117" on="0"/>
        <pt x="621" y="4" on="0"/>
        <pt x="817" y="-41" on="0"/>
      </contour>
      <contour>
        <pt x="1454" y="918" on="1"/>
        <pt x="1411" y="1014" on="0"/>
        <pt x="1339" y="1139" on="0"/>
        <pt x="1219" y="1294" on="0"/>
        <pt x="1053" y="1380" on="0"/>
        <pt x="950" y="1389" on="1"/>
        <pt x="836" y="1380" on="0"/>
        <pt x="666" y="1253" on="0"/>
        <pt x="573" y="1055" on="0"/>
        <pt x="530" y="842" on="0"/>
        <pt x="530" y="729" on="1"/>
        <pt x="530" y="477" on="0"/>
        <pt x="784" y="135" on="0"/>
        <pt x="1036" y="123" on="1"/>
        <pt x="1280" y="135" on="0"/>
        <pt x="1419" y="305" on="1"/>
        <pt x="1458" y="305" on="0"/>
        <pt x="1516" y="254" on="0"/>
        <pt x="1516" y="219" on="1"/>
        <pt x="1415" y="72" on="0"/>
        <pt x="1071" y="-82" on="0"/>
        <pt x="911" y="-82" on="1"/>
        <pt x="811" y="-82" on="0"/>
        <pt x="606" y="-35" on="0"/>
        <pt x="387" y="84" on="0"/>
        <pt x="219" y="262" on="0"/>
        <pt x="113" y="551" on="0"/>
        <pt x="113" y="729" on="1"/>
        <pt x="113" y="915" on="0"/>
        <pt x="223" y="1208" on="0"/>
        <pt x="395" y="1384" on="0"/>
        <pt x="625" y="1501" on="0"/>
        <pt x="842" y="1544" on="0"/>
        <pt x="952" y="1544" on="1"/>
        <pt x="1102" y="1544" on="0"/>
        <pt x="1454" y="1464" on="0"/>
        <pt x="1530" y="1454" on="1"/>
        <pt x="1497" y="1325" on="0"/>
        <pt x="1511" y="1130" on="0"/>
        <pt x="1561" y="989" on="1"/>
        <pt x="1532" y="930" on="0"/>
      </contour>
    </TTGlyph>
    <TTGlyph name="Ccedilla" xMin="113" yMin="-530" xMax="1561" yMax="1544">
      <contour>
        <pt x="928" y="-317" on="1"/>
        <pt x="928" y="-291" on="0"/>
        <pt x="901" y="-281" on="1"/>
        <pt x="866" y="-287" on="0"/>
        <pt x="801" y="-305" on="1"/>
        <pt x="846" y="-354" on="0"/>
        <pt x="893" y="-365" on="1"/>
        <pt x="928" y="-352" on="0"/>
      </contour>
      <contour>
        <pt x="862" y="-174" on="1"/>
        <pt x="905" y="-41" on="1"/>
        <pt x="1063" y="-41" on="0"/>
        <pt x="1382" y="98" on="0"/>
        <pt x="1475" y="233" on="1"/>
        <pt x="1475" y="246" on="0"/>
        <pt x="1452" y="264" on="0"/>
        <pt x="1438" y="264" on="1"/>
        <pt x="1288" y="82" on="0"/>
        <pt x="997" y="82" on="1"/>
        <pt x="690" y="82" on="0"/>
        <pt x="377" y="453" on="0"/>
        <pt x="377" y="729" on="1"/>
        <pt x="377" y="854" on="0"/>
        <pt x="432" y="1087" on="0"/>
        <pt x="549" y="1300" on="0"/>
        <pt x="766" y="1432" on="0"/>
        <pt x="911" y="1432" on="1"/>
        <pt x="1010" y="1432" on="0"/>
        <pt x="1178" y="1370" on="0"/>
        <pt x="1286" y="1286" on="0"/>
        <pt x="1389" y="1145" on="0"/>
        <pt x="1442" y="1042" on="0"/>
        <pt x="1479" y="963" on="1"/>
        <pt x="1509" y="967" on="0"/>
        <pt x="1516" y="985" on="1"/>
        <pt x="1442" y="1282" on="0"/>
        <pt x="1143" y="1503" on="0"/>
        <pt x="911" y="1503" on="1"/>
        <pt x="817" y="1503" on="0"/>
        <pt x="621" y="1458" on="0"/>
        <pt x="414" y="1343" on="0"/>
        <pt x="256" y="1174" on="0"/>
        <pt x="154" y="899" on="0"/>
        <pt x="154" y="729" on="1"/>
        <pt x="154" y="571" on="0"/>
        <pt x="242" y="311" on="0"/>
        <pt x="381" y="143" on="0"/>
        <pt x="567" y="25" on="0"/>
        <pt x="748" y="-31" on="0"/>
        <pt x="842" y="-39" on="1"/>
        <pt x="776" y="-250" on="1"/>
        <pt x="827" y="-236" on="0"/>
        <pt x="872" y="-236" on="1"/>
        <pt x="969" y="-236" on="0"/>
        <pt x="969" y="-317" on="1"/>
        <pt x="969" y="-358" on="0"/>
        <pt x="909" y="-412" on="0"/>
        <pt x="860" y="-412" on="1"/>
        <pt x="774" y="-412" on="0"/>
        <pt x="729" y="-365" on="1"/>
        <pt x="702" y="-395" on="1"/>
        <pt x="764" y="-489" on="0"/>
        <pt x="895" y="-489" on="1"/>
        <pt x="989" y="-489" on="0"/>
        <pt x="1094" y="-385" on="0"/>
        <pt x="1094" y="-313" on="1"/>
        <pt x="1094" y="-244" on="0"/>
        <pt x="1018" y="-170" on="0"/>
        <pt x="954" y="-170" on="1"/>
        <pt x="885" y="-170" on="0"/>
      </contour>
      <contour>
        <pt x="651" y="-393" on="1"/>
        <pt x="717" y="-309" on="1"/>
        <pt x="786" y="-72" on="1"/>
        <pt x="664" y="-53" on="0"/>
        <pt x="440" y="49" on="0"/>
        <pt x="236" y="229" on="0"/>
        <pt x="113" y="535" on="0"/>
        <pt x="113" y="729" on="1"/>
        <pt x="113" y="915" on="0"/>
        <pt x="223" y="1208" on="0"/>
        <pt x="395" y="1384" on="0"/>
        <pt x="625" y="1501" on="0"/>
        <pt x="842" y="1544" on="0"/>
        <pt x="952" y="1544" on="1"/>
        <pt x="1102" y="1544" on="0"/>
        <pt x="1454" y="1464" on="0"/>
        <pt x="1530" y="1454" on="1"/>
        <pt x="1497" y="1325" on="0"/>
        <pt x="1511" y="1130" on="0"/>
        <pt x="1561" y="989" on="1"/>
        <pt x="1532" y="930" on="0"/>
        <pt x="1454" y="918" on="1"/>
        <pt x="1411" y="1014" on="0"/>
        <pt x="1339" y="1139" on="0"/>
        <pt x="1219" y="1294" on="0"/>
        <pt x="1053" y="1380" on="0"/>
        <pt x="950" y="1389" on="1"/>
        <pt x="836" y="1380" on="0"/>
        <pt x="666" y="1253" on="0"/>
        <pt x="573" y="1055" on="0"/>
        <pt x="530" y="842" on="0"/>
        <pt x="530" y="729" on="1"/>
        <pt x="530" y="477" on="0"/>
        <pt x="784" y="135" on="0"/>
        <pt x="1036" y="123" on="1"/>
        <pt x="1280" y="135" on="0"/>
        <pt x="1419" y="305" on="1"/>
        <pt x="1458" y="305" on="0"/>
        <pt x="1516" y="254" on="0"/>
        <pt x="1516" y="219" on="1"/>
        <pt x="1434" y="102" on="0"/>
        <pt x="1176" y="-45" on="0"/>
        <pt x="1036" y="-70" on="1"/>
        <pt x="1018" y="-129" on="1"/>
        <pt x="1120" y="-129" on="0"/>
        <pt x="1235" y="-223" on="0"/>
        <pt x="1235" y="-313" on="1"/>
        <pt x="1235" y="-401" on="0"/>
        <pt x="1092" y="-530" on="0"/>
        <pt x="842" y="-530" on="0"/>
        <pt x="698" y="-465" on="0"/>
      </contour>
    </TTGlyph>
    <TTGlyph name="D" xMin="51" yMin="-49" xMax="1728" yMax="1513">
      <contour>
        <pt x="530" y="1386" on="1"/>
        <pt x="639" y="1399" on="0"/>
        <pt x="760" y="1399" on="1"/>
        <pt x="893" y="1399" on="0"/>
        <pt x="1104" y="1315" on="0"/>
        <pt x="1235" y="1184" on="0"/>
        <pt x="1319" y="1006" on="0"/>
        <pt x="1352" y="831" on="0"/>
        <pt x="1352" y="739" on="1"/>
        <pt x="1352" y="436" on="0"/>
        <pt x="1012" y="72" on="0"/>
        <pt x="692" y="72" on="1"/>
        <pt x="528" y="74" on="1"/>
        <pt x="518" y="489" on="0"/>
        <pt x="518" y="694" on="1"/>
        <pt x="518" y="1065" on="0"/>
      </contour>
      <contour>
        <pt x="745" y="-41" on="1"/>
        <pt x="410" y="-41" on="0"/>
        <pt x="76" y="-49" on="1"/>
        <pt x="51" y="20" on="0"/>
        <pt x="76" y="80" on="1"/>
        <pt x="293" y="102" on="0"/>
        <pt x="295" y="139" on="1"/>
        <pt x="307" y="453" on="0"/>
        <pt x="307" y="768" on="1"/>
        <pt x="307" y="1090" on="0"/>
        <pt x="297" y="1325" on="1"/>
        <pt x="295" y="1362" on="0"/>
        <pt x="74" y="1384" on="1"/>
        <pt x="57" y="1448" on="0"/>
        <pt x="78" y="1513" on="1"/>
        <pt x="201" y="1511" on="0"/>
        <pt x="844" y="1511" on="1"/>
        <pt x="983" y="1511" on="0"/>
        <pt x="1216" y="1477" on="0"/>
        <pt x="1458" y="1374" on="0"/>
        <pt x="1624" y="1208" on="0"/>
        <pt x="1728" y="926" on="0"/>
        <pt x="1728" y="737" on="1"/>
        <pt x="1728" y="557" on="0"/>
        <pt x="1606" y="279" on="0"/>
        <pt x="1409" y="109" on="0"/>
        <pt x="1143" y="0" on="0"/>
        <pt x="885" y="-41" on="0"/>
      </contour>
      <contour>
        <pt x="684" y="1350" on="1"/>
        <pt x="672" y="999" on="0"/>
        <pt x="672" y="694" on="1"/>
        <pt x="672" y="446" on="0"/>
        <pt x="680" y="113" on="1"/>
        <pt x="995" y="121" on="0"/>
        <pt x="1311" y="459" on="0"/>
        <pt x="1311" y="739" on="1"/>
        <pt x="1311" y="848" on="0"/>
        <pt x="1259" y="1047" on="0"/>
        <pt x="1145" y="1235" on="0"/>
        <pt x="926" y="1352" on="0"/>
        <pt x="778" y="1356" on="1"/>
        <pt x="729" y="1356" on="0"/>
      </contour>
      <contour>
        <pt x="104" y="-6" on="1"/>
        <pt x="319" y="0" on="0"/>
        <pt x="674" y="0" on="1"/>
        <pt x="801" y="0" on="0"/>
        <pt x="1038" y="39" on="0"/>
        <pt x="1282" y="143" on="0"/>
        <pt x="1460" y="303" on="0"/>
        <pt x="1575" y="569" on="0"/>
        <pt x="1575" y="739" on="1"/>
        <pt x="1575" y="1470" on="0"/>
        <pt x="772" y="1470" on="1"/>
        <pt x="698" y="1470" on="0"/>
        <pt x="426" y="1464" on="0"/>
        <pt x="205" y="1464" on="0"/>
        <pt x="106" y="1470" on="1"/>
        <pt x="98" y="1452" on="0"/>
        <pt x="106" y="1423" on="1"/>
        <pt x="336" y="1401" on="0"/>
        <pt x="338" y="1327" on="1"/>
        <pt x="348" y="1092" on="0"/>
        <pt x="348" y="768" on="1"/>
        <pt x="348" y="451" on="0"/>
        <pt x="336" y="137" on="1"/>
        <pt x="334" y="63" on="0"/>
        <pt x="104" y="41" on="1"/>
        <pt x="94" y="18" on="0"/>
      </contour>
    </TTGlyph>
    <TTGlyph name="E" xMin="51" yMin="-47" xMax="1644" yMax="1513">
      <contour>
        <pt x="956" y="1462" on="1"/>
        <pt x="453" y="1462" on="1"/>
        <pt x="328" y="1462" on="0"/>
        <pt x="102" y="1470" on="1"/>
        <pt x="102" y="1423" on="1"/>
        <pt x="332" y="1401" on="0"/>
        <pt x="334" y="1327" on="1"/>
        <pt x="344" y="1092" on="0"/>
        <pt x="344" y="768" on="1"/>
        <pt x="344" y="451" on="0"/>
        <pt x="332" y="137" on="1"/>
        <pt x="330" y="63" on="0"/>
        <pt x="100" y="41" on="1"/>
        <pt x="96" y="6" on="0"/>
        <pt x="100" y="-6" on="1"/>
        <pt x="293" y="0" on="0"/>
        <pt x="997" y="0" on="1"/>
        <pt x="1243" y="0" on="0"/>
        <pt x="1491" y="168" on="0"/>
        <pt x="1591" y="373" on="1"/>
        <pt x="1583" y="389" on="0"/>
        <pt x="1556" y="399" on="1"/>
        <pt x="1374" y="61" on="0"/>
        <pt x="885" y="61" on="1"/>
        <pt x="524" y="61" on="1"/>
        <pt x="514" y="498" on="0"/>
        <pt x="514" y="700" on="1"/>
        <pt x="840" y="702" on="1"/>
        <pt x="883" y="702" on="0"/>
        <pt x="958" y="674" on="0"/>
        <pt x="1003" y="645" on="0"/>
        <pt x="1063" y="563" on="0"/>
        <pt x="1087" y="526" on="0"/>
        <pt x="1147" y="410" on="0"/>
        <pt x="1157" y="393" on="1"/>
        <pt x="1188" y="406" on="0"/>
        <pt x="1196" y="420" on="1"/>
        <pt x="1096" y="590" on="0"/>
        <pt x="1096" y="733" on="1"/>
        <pt x="1096" y="795" on="0"/>
        <pt x="1153" y="973" on="0"/>
        <pt x="1196" y="1047" on="1"/>
        <pt x="1188" y="1061" on="0"/>
        <pt x="1157" y="1073" on="1"/>
        <pt x="1149" y="1059" on="0"/>
        <pt x="1102" y="967" on="0"/>
        <pt x="1087" y="940" on="0"/>
        <pt x="1044" y="868" on="0"/>
        <pt x="1020" y="844" on="0"/>
        <pt x="973" y="797" on="0"/>
        <pt x="930" y="780" on="0"/>
        <pt x="872" y="766" on="0"/>
        <pt x="840" y="766" on="1"/>
        <pt x="625" y="766" on="0"/>
        <pt x="514" y="770" on="1"/>
        <pt x="514" y="1012" on="0"/>
        <pt x="526" y="1401" on="1"/>
        <pt x="844" y="1401" on="1"/>
        <pt x="1333" y="1401" on="0"/>
        <pt x="1515" y="1063" on="1"/>
        <pt x="1542" y="1073" on="0"/>
        <pt x="1550" y="1090" on="1"/>
        <pt x="1450" y="1294" on="0"/>
        <pt x="1202" y="1462" on="0"/>
      </contour>
      <contour>
        <pt x="1094" y="1040" on="1"/>
        <pt x="1137" y="1124" on="1"/>
        <pt x="1221" y="1094" on="0"/>
        <pt x="1243" y="1047" on="1"/>
        <pt x="1198" y="969" on="0"/>
        <pt x="1137" y="788" on="0"/>
        <pt x="1137" y="733" on="1"/>
        <pt x="1137" y="600" on="0"/>
        <pt x="1243" y="420" on="1"/>
        <pt x="1219" y="369" on="0"/>
        <pt x="1141" y="342" on="1"/>
        <pt x="1104" y="403" on="0"/>
        <pt x="1087" y="436" on="1"/>
        <pt x="1046" y="504" on="0"/>
        <pt x="999" y="571" on="0"/>
        <pt x="905" y="639" on="0"/>
        <pt x="848" y="641" on="1"/>
        <pt x="668" y="641" on="1"/>
        <pt x="668" y="420" on="0"/>
        <pt x="676" y="102" on="1"/>
        <pt x="883" y="102" on="1"/>
        <pt x="1137" y="102" on="0"/>
        <pt x="1456" y="301" on="0"/>
        <pt x="1538" y="451" on="1"/>
        <pt x="1622" y="420" on="0"/>
        <pt x="1644" y="373" on="1"/>
        <pt x="1513" y="156" on="0"/>
        <pt x="1489" y="-41" on="1"/>
        <pt x="659" y="-41" on="1"/>
        <pt x="264" y="-41" on="0"/>
        <pt x="72" y="-47" on="1"/>
        <pt x="51" y="18" on="0"/>
        <pt x="70" y="80" on="1"/>
        <pt x="289" y="102" on="0"/>
        <pt x="291" y="139" on="1"/>
        <pt x="303" y="453" on="0"/>
        <pt x="303" y="768" on="1"/>
        <pt x="303" y="1090" on="0"/>
        <pt x="293" y="1325" on="1"/>
        <pt x="291" y="1362" on="0"/>
        <pt x="70" y="1384" on="1"/>
        <pt x="51" y="1454" on="0"/>
        <pt x="74" y="1513" on="1"/>
        <pt x="381" y="1503" on="0"/>
        <pt x="481" y="1503" on="1"/>
        <pt x="1448" y="1503" on="1"/>
        <pt x="1472" y="1307" on="0"/>
        <pt x="1604" y="1090" on="1"/>
        <pt x="1581" y="1042" on="0"/>
        <pt x="1497" y="1012" on="1"/>
        <pt x="1415" y="1161" on="0"/>
        <pt x="1096" y="1360" on="0"/>
        <pt x="842" y="1360" on="1"/>
        <pt x="678" y="1360" on="1"/>
        <pt x="668" y="1001" on="0"/>
        <pt x="668" y="809" on="1"/>
        <pt x="731" y="807" on="0"/>
        <pt x="850" y="807" on="1"/>
        <pt x="934" y="807" on="0"/>
        <pt x="1034" y="920" on="0"/>
      </contour>
    </TTGlyph>
    <TTGlyph name="Eacute" xMin="51" yMin="-47" xMax="1644" yMax="2095">
      <component glyphName="E" x="0" y="0" flags="0x204"/>
      <component glyphName="acute" x="215" y="586" flags="0x4"/>
    </TTGlyph>
    <TTGlyph name="Ecircumflex" xMin="51" yMin="-47" xMax="1644" yMax="2026">
      <component glyphName="E" x="0" y="0" flags="0x204"/>
      <component glyphName="circumflex" x="272" y="586" flags="0x4"/>
    </TTGlyph>
    <TTGlyph name="Edieresis" xMin="51" yMin="-47" xMax="1644" yMax="1991">
      <component glyphName="E" x="0" y="0" flags="0x204"/>
      <component glyphName="dieresis" x="242" y="586" flags="0x4"/>
    </TTGlyph>
    <TTGlyph name="Egrave" xMin="51" yMin="-47" xMax="1644" yMax="2095">
      <component glyphName="E" x="0" y="0" flags="0x204"/>
      <component glyphName="grave" x="246" y="586" flags="0x4"/>
    </TTGlyph>
    <TTGlyph name="Eth" xMin="51" yMin="-49" xMax="1728" yMax="1513">
      <contour>
        <pt x="672" y="807" on="1"/>
        <pt x="758" y="807" on="0"/>
        <pt x="1010" y="817" on="1"/>
        <pt x="1010" y="637" on="1"/>
        <pt x="768" y="637" on="0"/>
        <pt x="672" y="643" on="1"/>
        <pt x="672" y="418" on="0"/>
        <pt x="680" y="113" on="1"/>
        <pt x="995" y="121" on="0"/>
        <pt x="1311" y="459" on="0"/>
        <pt x="1311" y="739" on="1"/>
        <pt x="1311" y="848" on="0"/>
        <pt x="1259" y="1047" on="0"/>
        <pt x="1145" y="1235" on="0"/>
        <pt x="926" y="1352" on="0"/>
        <pt x="778" y="1356" on="1"/>
        <pt x="729" y="1356" on="0"/>
        <pt x="684" y="1350" on="1"/>
        <pt x="674" y="1051" on="0"/>
      </contour>
      <contour>
        <pt x="348" y="766" on="1"/>
        <pt x="188" y="770" on="0"/>
        <pt x="110" y="774" on="1"/>
        <pt x="110" y="678" on="1"/>
        <pt x="266" y="682" on="0"/>
        <pt x="348" y="682" on="1"/>
        <pt x="348" y="451" on="0"/>
        <pt x="336" y="137" on="1"/>
        <pt x="334" y="63" on="0"/>
        <pt x="104" y="41" on="1"/>
        <pt x="94" y="18" on="0"/>
        <pt x="104" y="-6" on="1"/>
        <pt x="319" y="0" on="0"/>
        <pt x="674" y="0" on="1"/>
        <pt x="801" y="0" on="0"/>
        <pt x="1038" y="39" on="0"/>
        <pt x="1282" y="143" on="0"/>
        <pt x="1460" y="303" on="0"/>
        <pt x="1575" y="569" on="0"/>
        <pt x="1575" y="739" on="1"/>
        <pt x="1575" y="1470" on="0"/>
        <pt x="772" y="1470" on="1"/>
        <pt x="698" y="1470" on="0"/>
        <pt x="426" y="1464" on="0"/>
        <pt x="205" y="1464" on="0"/>
        <pt x="106" y="1470" on="1"/>
        <pt x="98" y="1452" on="0"/>
        <pt x="106" y="1423" on="1"/>
        <pt x="336" y="1401" on="0"/>
        <pt x="338" y="1327" on="1"/>
        <pt x="348" y="1092" on="0"/>
      </contour>
      <contour>
        <pt x="518" y="766" on="1"/>
        <pt x="518" y="1065" on="0"/>
        <pt x="530" y="1386" on="1"/>
        <pt x="639" y="1399" on="0"/>
        <pt x="760" y="1399" on="1"/>
        <pt x="893" y="1399" on="0"/>
        <pt x="1104" y="1315" on="0"/>
        <pt x="1235" y="1184" on="0"/>
        <pt x="1319" y="1006" on="0"/>
        <pt x="1352" y="831" on="0"/>
        <pt x="1352" y="739" on="1"/>
        <pt x="1352" y="436" on="0"/>
        <pt x="1012" y="72" on="0"/>
        <pt x="692" y="72" on="1"/>
        <pt x="584" y="72" on="0"/>
        <pt x="528" y="74" on="1"/>
        <pt x="518" y="489" on="0"/>
        <pt x="518" y="684" on="1"/>
        <pt x="565" y="684" on="0"/>
        <pt x="958" y="678" on="1"/>
        <pt x="958" y="774" on="1"/>
        <pt x="784" y="766" on="0"/>
      </contour>
      <contour>
        <pt x="307" y="809" on="1"/>
        <pt x="307" y="1106" on="0"/>
        <pt x="297" y="1325" on="1"/>
        <pt x="295" y="1362" on="0"/>
        <pt x="74" y="1384" on="1"/>
        <pt x="57" y="1448" on="0"/>
        <pt x="78" y="1513" on="1"/>
        <pt x="201" y="1511" on="0"/>
        <pt x="844" y="1511" on="1"/>
        <pt x="983" y="1511" on="0"/>
        <pt x="1216" y="1477" on="0"/>
        <pt x="1458" y="1374" on="0"/>
        <pt x="1624" y="1208" on="0"/>
        <pt x="1728" y="926" on="0"/>
        <pt x="1728" y="737" on="1"/>
        <pt x="1728" y="557" on="0"/>
        <pt x="1606" y="279" on="0"/>
        <pt x="1409" y="109" on="0"/>
        <pt x="1143" y="0" on="0"/>
        <pt x="885" y="-41" on="0"/>
        <pt x="745" y="-41" on="1"/>
        <pt x="410" y="-41" on="0"/>
        <pt x="76" y="-49" on="1"/>
        <pt x="51" y="20" on="0"/>
        <pt x="76" y="80" on="1"/>
        <pt x="293" y="102" on="0"/>
        <pt x="295" y="139" on="1"/>
        <pt x="307" y="471" on="0"/>
        <pt x="307" y="639" on="1"/>
        <pt x="70" y="635" on="1"/>
        <pt x="70" y="817" on="1"/>
      </contour>
    </TTGlyph>
    <TTGlyph name="Euro" xMin="-96" yMin="-82" xMax="1065" yMax="1544">
      <contour>
        <pt x="-16" y="852" on="1"/>
        <pt x="-41" y="770" on="1"/>
        <pt x="98" y="770" on="1"/>
        <pt x="98" y="721" on="1"/>
        <pt x="98" y="674" on="0"/>
        <pt x="100" y="651" on="1"/>
        <pt x="57" y="651" on="0"/>
        <pt x="-16" y="655" on="1"/>
        <pt x="-41" y="573" on="1"/>
        <pt x="104" y="573" on="1"/>
        <pt x="121" y="403" on="0"/>
        <pt x="231" y="154" on="0"/>
        <pt x="387" y="20" on="0"/>
        <pt x="545" y="-41" on="0"/>
        <pt x="629" y="-41" on="1"/>
        <pt x="733" y="-41" on="0"/>
        <pt x="963" y="100" on="0"/>
        <pt x="1024" y="233" on="1"/>
        <pt x="1018" y="258" on="0"/>
        <pt x="981" y="258" on="1"/>
        <pt x="881" y="82" on="0"/>
        <pt x="690" y="82" on="1"/>
        <pt x="340" y="82" on="0"/>
        <pt x="283" y="575" on="1"/>
        <pt x="641" y="575" on="0"/>
        <pt x="772" y="571" on="1"/>
        <pt x="797" y="655" on="1"/>
        <pt x="666" y="649" on="0"/>
        <pt x="279" y="649" on="1"/>
        <pt x="276" y="672" on="0"/>
        <pt x="276" y="721" on="1"/>
        <pt x="276" y="772" on="1"/>
        <pt x="705" y="772" on="0"/>
        <pt x="836" y="768" on="1"/>
        <pt x="860" y="852" on="1"/>
        <pt x="729" y="846" on="0"/>
        <pt x="281" y="846" on="1"/>
        <pt x="295" y="997" on="0"/>
        <pt x="381" y="1251" on="0"/>
        <pt x="553" y="1432" on="0"/>
        <pt x="666" y="1432" on="1"/>
        <pt x="797" y="1432" on="0"/>
        <pt x="905" y="1282" on="0"/>
        <pt x="963" y="1079" on="1"/>
        <pt x="993" y="1079" on="0"/>
        <pt x="1014" y="1090" on="1"/>
        <pt x="1010" y="1202" on="0"/>
        <pt x="948" y="1370" on="0"/>
        <pt x="848" y="1460" on="0"/>
        <pt x="733" y="1503" on="0"/>
        <pt x="666" y="1503" on="1"/>
        <pt x="584" y="1503" on="0"/>
        <pt x="414" y="1436" on="0"/>
        <pt x="244" y="1294" on="0"/>
        <pt x="121" y="1026" on="0"/>
        <pt x="104" y="848" on="1"/>
        <pt x="57" y="848" on="0"/>
      </contour>
      <contour>
        <pt x="958" y="299" on="1"/>
        <pt x="991" y="299" on="0"/>
        <pt x="1065" y="258" on="0"/>
        <pt x="1065" y="225" on="1"/>
        <pt x="997" y="76" on="0"/>
        <pt x="741" y="-82" on="0"/>
        <pt x="629" y="-82" on="1"/>
        <pt x="539" y="-82" on="0"/>
        <pt x="373" y="-25" on="0"/>
        <pt x="207" y="104" on="0"/>
        <pt x="88" y="358" on="0"/>
        <pt x="68" y="532" on="1"/>
        <pt x="-96" y="532" on="1"/>
        <pt x="-45" y="698" on="1"/>
        <pt x="57" y="694" on="1"/>
        <pt x="57" y="729" on="1"/>
        <pt x="-96" y="729" on="1"/>
        <pt x="-45" y="895" on="1"/>
        <pt x="68" y="891" on="1"/>
        <pt x="82" y="1036" on="0"/>
        <pt x="178" y="1270" on="0"/>
        <pt x="301" y="1413" on="0"/>
        <pt x="457" y="1507" on="0"/>
        <pt x="596" y="1544" on="0"/>
        <pt x="666" y="1544" on="1"/>
        <pt x="803" y="1544" on="0"/>
        <pt x="1065" y="1483" on="1"/>
        <pt x="1026" y="1300" on="0"/>
        <pt x="1059" y="1067" on="1"/>
        <pt x="1001" y="1038" on="0"/>
        <pt x="932" y="1038" on="1"/>
        <pt x="879" y="1223" on="0"/>
        <pt x="793" y="1374" on="0"/>
        <pt x="707" y="1386" on="1"/>
        <pt x="592" y="1368" on="0"/>
        <pt x="451" y="1083" on="0"/>
        <pt x="426" y="887" on="1"/>
        <pt x="680" y="887" on="0"/>
        <pt x="854" y="895" on="1"/>
        <pt x="926" y="895" on="1"/>
        <pt x="877" y="727" on="1"/>
        <pt x="418" y="731" on="1"/>
        <pt x="418" y="690" on="1"/>
        <pt x="862" y="698" on="1"/>
        <pt x="813" y="530" on="1"/>
        <pt x="428" y="535" on="1"/>
        <pt x="483" y="150" on="0"/>
        <pt x="727" y="125" on="1"/>
        <pt x="868" y="141" on="0"/>
      </contour>
    </TTGlyph>
    <TTGlyph name="F" xMin="51" yMin="-49" xMax="1567" yMax="1513">
      <contour>
        <pt x="811" y="641" on="1"/>
        <pt x="672" y="641" on="1"/>
        <pt x="672" y="403" on="0"/>
        <pt x="682" y="137" on="1"/>
        <pt x="682" y="131" on="0"/>
        <pt x="692" y="121" on="0"/>
        <pt x="711" y="111" on="0"/>
        <pt x="757" y="95" on="0"/>
        <pt x="897" y="76" on="0"/>
        <pt x="907" y="74" on="1"/>
        <pt x="924" y="18" on="0"/>
        <pt x="901" y="-49" on="1"/>
        <pt x="532" y="-41" on="0"/>
        <pt x="453" y="-41" on="1"/>
        <pt x="399" y="-41" on="0"/>
        <pt x="76" y="-49" on="1"/>
        <pt x="51" y="20" on="0"/>
        <pt x="76" y="80" on="1"/>
        <pt x="293" y="102" on="0"/>
        <pt x="295" y="139" on="1"/>
        <pt x="307" y="389" on="0"/>
        <pt x="307" y="768" on="1"/>
        <pt x="307" y="1090" on="0"/>
        <pt x="297" y="1325" on="1"/>
        <pt x="295" y="1362" on="0"/>
        <pt x="74" y="1384" on="1"/>
        <pt x="55" y="1454" on="0"/>
        <pt x="78" y="1513" on="1"/>
        <pt x="385" y="1503" on="0"/>
        <pt x="485" y="1503" on="1"/>
        <pt x="1411" y="1503" on="1"/>
        <pt x="1436" y="1307" on="0"/>
        <pt x="1567" y="1090" on="1"/>
        <pt x="1544" y="1042" on="0"/>
        <pt x="1460" y="1012" on="1"/>
        <pt x="1378" y="1161" on="0"/>
        <pt x="1059" y="1360" on="0"/>
        <pt x="805" y="1360" on="1"/>
        <pt x="682" y="1360" on="1"/>
        <pt x="672" y="1001" on="0"/>
        <pt x="672" y="809" on="1"/>
        <pt x="721" y="807" on="0"/>
        <pt x="813" y="807" on="1"/>
        <pt x="897" y="807" on="0"/>
        <pt x="997" y="920" on="0"/>
        <pt x="1057" y="1040" on="1"/>
        <pt x="1100" y="1124" on="1"/>
        <pt x="1184" y="1094" on="0"/>
        <pt x="1206" y="1047" on="1"/>
        <pt x="1100" y="856" on="0"/>
        <pt x="1100" y="733" on="1"/>
        <pt x="1100" y="600" on="0"/>
        <pt x="1206" y="420" on="1"/>
        <pt x="1182" y="369" on="0"/>
        <pt x="1104" y="342" on="1"/>
        <pt x="1081" y="373" on="0"/>
        <pt x="1051" y="436" on="1"/>
        <pt x="1010" y="504" on="0"/>
        <pt x="962" y="571" on="0"/>
        <pt x="868" y="639" on="0"/>
      </contour>
      <contour>
        <pt x="518" y="700" on="1"/>
        <pt x="803" y="702" on="1"/>
        <pt x="846" y="702" on="0"/>
        <pt x="922" y="674" on="0"/>
        <pt x="967" y="645" on="0"/>
        <pt x="1026" y="563" on="0"/>
        <pt x="1051" y="526" on="0"/>
        <pt x="1110" y="410" on="0"/>
        <pt x="1120" y="393" on="1"/>
        <pt x="1151" y="406" on="0"/>
        <pt x="1159" y="420" on="1"/>
        <pt x="1059" y="598" on="0"/>
        <pt x="1059" y="733" on="1"/>
        <pt x="1059" y="795" on="0"/>
        <pt x="1116" y="973" on="0"/>
        <pt x="1159" y="1047" on="1"/>
        <pt x="1155" y="1061" on="0"/>
        <pt x="1120" y="1073" on="1"/>
        <pt x="1112" y="1059" on="0"/>
        <pt x="1065" y="967" on="0"/>
        <pt x="1051" y="940" on="0"/>
        <pt x="1008" y="868" on="0"/>
        <pt x="983" y="844" on="0"/>
        <pt x="936" y="797" on="0"/>
        <pt x="893" y="780" on="0"/>
        <pt x="835" y="766" on="0"/>
        <pt x="803" y="766" on="1"/>
        <pt x="616" y="766" on="0"/>
        <pt x="518" y="770" on="1"/>
        <pt x="518" y="1012" on="0"/>
        <pt x="530" y="1401" on="1"/>
        <pt x="807" y="1401" on="1"/>
        <pt x="1296" y="1401" on="0"/>
        <pt x="1479" y="1063" on="1"/>
        <pt x="1505" y="1073" on="0"/>
        <pt x="1513" y="1090" on="1"/>
        <pt x="1413" y="1294" on="0"/>
        <pt x="1165" y="1462" on="0"/>
        <pt x="919" y="1462" on="1"/>
        <pt x="457" y="1462" on="1"/>
        <pt x="332" y="1462" on="0"/>
        <pt x="106" y="1470" on="1"/>
        <pt x="106" y="1423" on="1"/>
        <pt x="336" y="1401" on="0"/>
        <pt x="338" y="1327" on="1"/>
        <pt x="348" y="1092" on="0"/>
        <pt x="348" y="768" on="1"/>
        <pt x="348" y="451" on="0"/>
        <pt x="336" y="137" on="1"/>
        <pt x="334" y="63" on="0"/>
        <pt x="104" y="41" on="1"/>
        <pt x="96" y="25" on="0"/>
        <pt x="104" y="-6" on="1"/>
        <pt x="274" y="0" on="0"/>
        <pt x="453" y="0" on="1"/>
        <pt x="666" y="0" on="0"/>
        <pt x="862" y="-6" on="1"/>
        <pt x="870" y="10" on="0"/>
        <pt x="862" y="41" on="1"/>
        <pt x="532" y="61" on="0"/>
        <pt x="528" y="137" on="1"/>
        <pt x="518" y="373" on="0"/>
      </contour>
    </TTGlyph>
    <TTGlyph name="G" xMin="113" yMin="-82" xMax="1827" yMax="1544">
      <contour>
        <pt x="932" y="1503" on="1"/>
        <pt x="836" y="1503" on="0"/>
        <pt x="639" y="1462" on="0"/>
        <pt x="424" y="1352" on="0"/>
        <pt x="260" y="1184" on="0"/>
        <pt x="154" y="905" on="0"/>
        <pt x="154" y="553" on="0"/>
        <pt x="260" y="274" on="0"/>
        <pt x="424" y="109" on="0"/>
        <pt x="639" y="0" on="0"/>
        <pt x="836" y="-41" on="0"/>
        <pt x="932" y="-41" on="1"/>
        <pt x="1083" y="-41" on="0"/>
        <pt x="1323" y="16" on="0"/>
        <pt x="1475" y="76" on="1"/>
        <pt x="1430" y="199" on="0"/>
        <pt x="1430" y="387" on="1"/>
        <pt x="1430" y="535" on="1"/>
        <pt x="1430" y="608" on="0"/>
        <pt x="1763" y="631" on="1"/>
        <pt x="1774" y="655" on="0"/>
        <pt x="1763" y="678" on="1"/>
        <pt x="1501" y="670" on="0"/>
        <pt x="1354" y="670" on="1"/>
        <pt x="1231" y="670" on="0"/>
        <pt x="1006" y="678" on="1"/>
        <pt x="999" y="655" on="0"/>
        <pt x="1006" y="631" on="1"/>
        <pt x="1237" y="608" on="0"/>
        <pt x="1237" y="535" on="1"/>
        <pt x="1237" y="129" on="1"/>
        <pt x="1151" y="31" on="0"/>
        <pt x="932" y="31" on="1"/>
        <pt x="815" y="31" on="0"/>
        <pt x="623" y="117" on="0"/>
        <pt x="498" y="258" on="0"/>
        <pt x="414" y="444" on="0"/>
        <pt x="377" y="633" on="0"/>
        <pt x="377" y="729" on="1"/>
        <pt x="377" y="852" on="0"/>
        <pt x="438" y="1087" on="0"/>
        <pt x="563" y="1300" on="0"/>
        <pt x="786" y="1432" on="0"/>
        <pt x="932" y="1432" on="1"/>
        <pt x="1030" y="1432" on="0"/>
        <pt x="1198" y="1370" on="0"/>
        <pt x="1307" y="1286" on="0"/>
        <pt x="1409" y="1145" on="0"/>
        <pt x="1462" y="1042" on="0"/>
        <pt x="1499" y="963" on="1"/>
        <pt x="1530" y="967" on="0"/>
        <pt x="1536" y="985" on="1"/>
        <pt x="1462" y="1282" on="0"/>
        <pt x="1163" y="1503" on="0"/>
      </contour>
      <contour>
        <pt x="1475" y="918" on="1"/>
        <pt x="1432" y="1014" on="0"/>
        <pt x="1360" y="1139" on="0"/>
        <pt x="1239" y="1294" on="0"/>
        <pt x="1073" y="1380" on="0"/>
        <pt x="971" y="1389" on="1"/>
        <pt x="854" y="1382" on="0"/>
        <pt x="676" y="1255" on="0"/>
        <pt x="578" y="1057" on="0"/>
        <pt x="530" y="842" on="0"/>
        <pt x="530" y="729" on="1"/>
        <pt x="530" y="573" on="0"/>
        <pt x="614" y="289" on="0"/>
        <pt x="825" y="72" on="0"/>
        <pt x="979" y="72" on="1"/>
        <pt x="1122" y="72" on="0"/>
        <pt x="1196" y="145" on="1"/>
        <pt x="1196" y="535" on="1"/>
        <pt x="1196" y="569" on="0"/>
        <pt x="973" y="592" on="1"/>
        <pt x="946" y="662" on="0"/>
        <pt x="977" y="721" on="1"/>
        <pt x="1276" y="707" on="0"/>
        <pt x="1804" y="715" on="1"/>
        <pt x="1827" y="655" on="0"/>
        <pt x="1806" y="592" on="1"/>
        <pt x="1583" y="569" on="0"/>
        <pt x="1583" y="535" on="1"/>
        <pt x="1583" y="387" on="1"/>
        <pt x="1583" y="205" on="0"/>
        <pt x="1640" y="51" on="1"/>
        <pt x="1499" y="-2" on="0"/>
        <pt x="1362" y="-43" on="0"/>
        <pt x="1102" y="-82" on="0"/>
        <pt x="932" y="-82" on="1"/>
        <pt x="829" y="-82" on="0"/>
        <pt x="623" y="-39" on="0"/>
        <pt x="397" y="76" on="0"/>
        <pt x="225" y="250" on="0"/>
        <pt x="113" y="543" on="0"/>
        <pt x="113" y="915" on="0"/>
        <pt x="223" y="1208" on="0"/>
        <pt x="393" y="1384" on="0"/>
        <pt x="616" y="1501" on="0"/>
        <pt x="821" y="1544" on="0"/>
        <pt x="924" y="1544" on="1"/>
        <pt x="1090" y="1544" on="0"/>
        <pt x="1495" y="1460" on="0"/>
        <pt x="1550" y="1454" on="1"/>
        <pt x="1518" y="1325" on="0"/>
        <pt x="1532" y="1130" on="0"/>
        <pt x="1581" y="989" on="1"/>
        <pt x="1552" y="930" on="0"/>
      </contour>
    </TTGlyph>
    <TTGlyph name="H" xMin="47" yMin="-49" xMax="1835" yMax="1513">
      <contour>
        <pt x="1249" y="137" on="1"/>
        <pt x="1249" y="63" on="0"/>
        <pt x="1018" y="41" on="1"/>
        <pt x="1010" y="25" on="0"/>
        <pt x="1018" y="-6" on="1"/>
        <pt x="1188" y="0" on="0"/>
        <pt x="1366" y="0" on="1"/>
        <pt x="1579" y="0" on="0"/>
        <pt x="1776" y="-6" on="1"/>
        <pt x="1784" y="12" on="0"/>
        <pt x="1776" y="41" on="1"/>
        <pt x="1444" y="61" on="0"/>
        <pt x="1442" y="137" on="1"/>
        <pt x="1431" y="385" on="0"/>
        <pt x="1431" y="731" on="1"/>
        <pt x="1431" y="1079" on="0"/>
        <pt x="1442" y="1327" on="1"/>
        <pt x="1444" y="1403" on="0"/>
        <pt x="1776" y="1423" on="1"/>
        <pt x="1786" y="1448" on="0"/>
        <pt x="1776" y="1470" on="1"/>
        <pt x="1513" y="1462" on="0"/>
        <pt x="1366" y="1462" on="1"/>
        <pt x="1243" y="1462" on="0"/>
        <pt x="1018" y="1470" on="1"/>
        <pt x="1012" y="1446" on="0"/>
        <pt x="1018" y="1423" on="1"/>
        <pt x="1247" y="1401" on="0"/>
        <pt x="1249" y="1327" on="1"/>
        <pt x="1255" y="1143" on="0"/>
        <pt x="1259" y="772" on="1"/>
        <pt x="1075" y="766" on="0"/>
        <pt x="911" y="766" on="1"/>
        <pt x="637" y="766" on="0"/>
        <pt x="514" y="770" on="1"/>
        <pt x="514" y="1106" on="0"/>
        <pt x="526" y="1327" on="1"/>
        <pt x="528" y="1403" on="0"/>
        <pt x="860" y="1423" on="1"/>
        <pt x="866" y="1442" on="0"/>
        <pt x="860" y="1470" on="1"/>
        <pt x="598" y="1462" on="0"/>
        <pt x="450" y="1462" on="1"/>
        <pt x="328" y="1462" on="0"/>
        <pt x="102" y="1470" on="1"/>
        <pt x="94" y="1452" on="0"/>
        <pt x="102" y="1423" on="1"/>
        <pt x="332" y="1401" on="0"/>
        <pt x="334" y="1327" on="1"/>
        <pt x="344" y="1092" on="0"/>
        <pt x="344" y="768" on="1"/>
        <pt x="344" y="451" on="0"/>
        <pt x="332" y="137" on="1"/>
        <pt x="330" y="63" on="0"/>
        <pt x="100" y="41" on="1"/>
        <pt x="92" y="25" on="0"/>
        <pt x="100" y="-6" on="1"/>
        <pt x="270" y="0" on="0"/>
        <pt x="448" y="0" on="1"/>
        <pt x="661" y="0" on="0"/>
        <pt x="858" y="-6" on="1"/>
        <pt x="866" y="10" on="0"/>
        <pt x="858" y="41" on="1"/>
        <pt x="526" y="61" on="0"/>
        <pt x="524" y="137" on="1"/>
        <pt x="514" y="438" on="0"/>
        <pt x="514" y="700" on="1"/>
        <pt x="760" y="705" on="0"/>
        <pt x="911" y="705" on="1"/>
        <pt x="1075" y="705" on="0"/>
        <pt x="1259" y="698" on="1"/>
        <pt x="1257" y="475" on="0"/>
      </contour>
      <contour>
        <pt x="1208" y="137" on="1"/>
        <pt x="1216" y="535" on="0"/>
        <pt x="1218" y="639" on="1"/>
        <pt x="1022" y="643" on="0"/>
        <pt x="911" y="643" on="1"/>
        <pt x="825" y="643" on="0"/>
        <pt x="676" y="641" on="0"/>
        <pt x="668" y="641" on="1"/>
        <pt x="668" y="410" on="0"/>
        <pt x="678" y="139" on="1"/>
        <pt x="678" y="133" on="0"/>
        <pt x="686" y="121" on="0"/>
        <pt x="706" y="113" on="0"/>
        <pt x="727" y="104" on="0"/>
        <pt x="760" y="96" on="0"/>
        <pt x="786" y="90" on="0"/>
        <pt x="827" y="84" on="0"/>
        <pt x="852" y="80" on="0"/>
        <pt x="895" y="76" on="0"/>
        <pt x="903" y="74" on="1"/>
        <pt x="919" y="18" on="0"/>
        <pt x="897" y="-49" on="1"/>
        <pt x="528" y="-41" on="0"/>
        <pt x="448" y="-41" on="1"/>
        <pt x="395" y="-41" on="0"/>
        <pt x="72" y="-49" on="1"/>
        <pt x="47" y="20" on="0"/>
        <pt x="72" y="80" on="1"/>
        <pt x="289" y="102" on="0"/>
        <pt x="291" y="139" on="1"/>
        <pt x="303" y="453" on="0"/>
        <pt x="303" y="768" on="1"/>
        <pt x="303" y="1090" on="0"/>
        <pt x="293" y="1325" on="1"/>
        <pt x="291" y="1362" on="0"/>
        <pt x="70" y="1384" on="1"/>
        <pt x="53" y="1448" on="0"/>
        <pt x="74" y="1513" on="1"/>
        <pt x="162" y="1513" on="0"/>
        <pt x="463" y="1503" on="0"/>
        <pt x="522" y="1503" on="1"/>
        <pt x="565" y="1503" on="0"/>
        <pt x="811" y="1507" on="0"/>
        <pt x="901" y="1507" on="1"/>
        <pt x="919" y="1450" on="0"/>
        <pt x="903" y="1384" on="1"/>
        <pt x="682" y="1362" on="0"/>
        <pt x="680" y="1325" on="1"/>
        <pt x="668" y="1049" on="0"/>
        <pt x="668" y="809" on="1"/>
        <pt x="764" y="803" on="0"/>
        <pt x="911" y="807" on="1"/>
        <pt x="1218" y="811" on="1"/>
        <pt x="1214" y="1137" on="0"/>
        <pt x="1208" y="1325" on="1"/>
        <pt x="1206" y="1362" on="0"/>
        <pt x="985" y="1384" on="1"/>
        <pt x="967" y="1454" on="0"/>
        <pt x="989" y="1513" on="1"/>
        <pt x="1134" y="1503" on="0"/>
        <pt x="1382" y="1503" on="1"/>
        <pt x="1429" y="1503" on="0"/>
        <pt x="1718" y="1507" on="0"/>
        <pt x="1816" y="1507" on="1"/>
        <pt x="1835" y="1450" on="0"/>
        <pt x="1819" y="1384" on="1"/>
        <pt x="1597" y="1362" on="0"/>
        <pt x="1595" y="1325" on="1"/>
        <pt x="1585" y="1077" on="0"/>
        <pt x="1585" y="731" on="1"/>
        <pt x="1585" y="387" on="0"/>
        <pt x="1595" y="139" on="1"/>
        <pt x="1597" y="102" on="0"/>
        <pt x="1819" y="80" on="1"/>
        <pt x="1835" y="16" on="0"/>
        <pt x="1814" y="-49" on="1"/>
        <pt x="1491" y="-41" on="0"/>
        <pt x="1438" y="-41" on="1"/>
        <pt x="1358" y="-41" on="0"/>
        <pt x="989" y="-49" on="1"/>
        <pt x="965" y="20" on="0"/>
        <pt x="989" y="80" on="1"/>
        <pt x="1208" y="102" on="0"/>
      </contour>
    </TTGlyph>
    <TTGlyph name="I" xMin="51" yMin="-49" xMax="924" yMax="1513">
      <contour>
        <pt x="528" y="137" on="1"/>
        <pt x="520" y="555" on="0"/>
        <pt x="520" y="768" on="1"/>
        <pt x="520" y="1014" on="0"/>
        <pt x="530" y="1327" on="1"/>
        <pt x="532" y="1403" on="0"/>
        <pt x="864" y="1423" on="1"/>
        <pt x="870" y="1442" on="0"/>
        <pt x="864" y="1470" on="1"/>
        <pt x="602" y="1462" on="0"/>
        <pt x="455" y="1462" on="1"/>
        <pt x="332" y="1462" on="0"/>
        <pt x="106" y="1470" on="1"/>
        <pt x="98" y="1452" on="0"/>
        <pt x="106" y="1423" on="1"/>
        <pt x="336" y="1401" on="0"/>
        <pt x="338" y="1327" on="1"/>
        <pt x="348" y="1092" on="0"/>
        <pt x="348" y="768" on="1"/>
        <pt x="348" y="451" on="0"/>
        <pt x="336" y="137" on="1"/>
        <pt x="334" y="63" on="0"/>
        <pt x="104" y="41" on="1"/>
        <pt x="96" y="25" on="0"/>
        <pt x="104" y="-6" on="1"/>
        <pt x="274" y="0" on="0"/>
        <pt x="453" y="0" on="1"/>
        <pt x="666" y="0" on="0"/>
        <pt x="862" y="-6" on="1"/>
        <pt x="870" y="10" on="0"/>
        <pt x="862" y="41" on="1"/>
        <pt x="530" y="61" on="0"/>
      </contour>
      <contour>
        <pt x="74" y="1384" on="1"/>
        <pt x="57" y="1450" on="0"/>
        <pt x="78" y="1513" on="1"/>
        <pt x="166" y="1513" on="0"/>
        <pt x="467" y="1503" on="0"/>
        <pt x="526" y="1503" on="1"/>
        <pt x="569" y="1503" on="0"/>
        <pt x="815" y="1507" on="0"/>
        <pt x="905" y="1507" on="1"/>
        <pt x="924" y="1450" on="0"/>
        <pt x="907" y="1384" on="1"/>
        <pt x="686" y="1362" on="0"/>
        <pt x="684" y="1325" on="1"/>
        <pt x="672" y="1075" on="0"/>
        <pt x="672" y="694" on="1"/>
        <pt x="672" y="326" on="0"/>
        <pt x="682" y="139" on="1"/>
        <pt x="682" y="133" on="0"/>
        <pt x="692" y="121" on="0"/>
        <pt x="711" y="113" on="0"/>
        <pt x="731" y="104" on="0"/>
        <pt x="766" y="96" on="0"/>
        <pt x="790" y="90" on="0"/>
        <pt x="831" y="84" on="0"/>
        <pt x="856" y="80" on="0"/>
        <pt x="899" y="76" on="0"/>
        <pt x="907" y="74" on="1"/>
        <pt x="924" y="18" on="0"/>
        <pt x="901" y="-49" on="1"/>
        <pt x="532" y="-41" on="0"/>
        <pt x="453" y="-41" on="1"/>
        <pt x="399" y="-41" on="0"/>
        <pt x="76" y="-49" on="1"/>
        <pt x="51" y="20" on="0"/>
        <pt x="76" y="80" on="1"/>
        <pt x="293" y="102" on="0"/>
        <pt x="295" y="139" on="1"/>
        <pt x="307" y="389" on="0"/>
        <pt x="307" y="768" on="1"/>
        <pt x="307" y="1090" on="0"/>
        <pt x="297" y="1325" on="1"/>
        <pt x="295" y="1362" on="0"/>
      </contour>
    </TTGlyph>
    <TTGlyph name="Iacute" xMin="51" yMin="-49" xMax="924" yMax="2095">
      <component glyphName="I" x="0" y="0" flags="0x204"/>
      <component glyphName="acute" x="-204" y="586" flags="0x4"/>
    </TTGlyph>
    <TTGlyph name="Icircumflex" xMin="50" yMin="-49" xMax="924" yMax="2026">
      <component glyphName="I" x="0" y="0" flags="0x204"/>
      <component glyphName="circumflex" x="-124" y="586" flags="0x4"/>
    </TTGlyph>
    <TTGlyph name="Idieresis" xMin="51" yMin="-49" xMax="924" yMax="1991">
      <component glyphName="I" x="0" y="0" flags="0x204"/>
      <component glyphName="dieresis" x="-136" y="586" flags="0x4"/>
    </TTGlyph>
    <TTGlyph name="Igrave" xMin="51" yMin="-49" xMax="924" yMax="2095">
      <component glyphName="I" x="0" y="0" flags="0x204"/>
      <component glyphName="grave" x="-132" y="586" flags="0x4"/>
    </TTGlyph>
    <TTGlyph name="J" xMin="-154" yMin="-573" xMax="967" yMax="1513">
      <contour>
        <pt x="563" y="768" on="1"/>
        <pt x="563" y="1014" on="0"/>
        <pt x="573" y="1327" on="1"/>
        <pt x="575" y="1403" on="0"/>
        <pt x="907" y="1423" on="1"/>
        <pt x="913" y="1442" on="0"/>
        <pt x="907" y="1470" on="1"/>
        <pt x="645" y="1462" on="0"/>
        <pt x="498" y="1462" on="1"/>
        <pt x="375" y="1462" on="0"/>
        <pt x="150" y="1470" on="1"/>
        <pt x="141" y="1452" on="0"/>
        <pt x="150" y="1423" on="1"/>
        <pt x="379" y="1401" on="0"/>
        <pt x="381" y="1327" on="1"/>
        <pt x="391" y="1092" on="0"/>
        <pt x="391" y="768" on="1"/>
        <pt x="391" y="55" on="1"/>
        <pt x="391" y="-236" on="0"/>
        <pt x="307" y="-469" on="0"/>
        <pt x="174" y="-469" on="1"/>
        <pt x="78" y="-469" on="0"/>
        <pt x="-25" y="-365" on="0"/>
        <pt x="-25" y="-297" on="1"/>
        <pt x="-25" y="-244" on="0"/>
        <pt x="29" y="-182" on="0"/>
        <pt x="66" y="-182" on="1"/>
        <pt x="100" y="-182" on="0"/>
        <pt x="125" y="-207" on="1"/>
        <pt x="150" y="-201" on="0"/>
        <pt x="158" y="-172" on="1"/>
        <pt x="121" y="-119" on="0"/>
        <pt x="-23" y="-119" on="0"/>
        <pt x="-111" y="-211" on="0"/>
        <pt x="-111" y="-293" on="1"/>
        <pt x="-111" y="-389" on="0"/>
        <pt x="39" y="-532" on="0"/>
        <pt x="174" y="-532" on="1"/>
        <pt x="229" y="-532" on="0"/>
        <pt x="319" y="-508" on="0"/>
        <pt x="393" y="-453" on="0"/>
        <pt x="449" y="-385" on="0"/>
        <pt x="492" y="-268" on="0"/>
        <pt x="522" y="-156" on="0"/>
        <pt x="543" y="20" on="0"/>
        <pt x="555" y="178" on="0"/>
        <pt x="561" y="416" on="0"/>
        <pt x="563" y="618" on="0"/>
      </contour>
      <contour>
        <pt x="199" y="-573" on="1"/>
        <pt x="27" y="-573" on="0"/>
        <pt x="-150" y="-410" on="0"/>
        <pt x="-152" y="-293" on="1"/>
        <pt x="-154" y="-190" on="0"/>
        <pt x="-33" y="-76" on="0"/>
        <pt x="47" y="-76" on="1"/>
        <pt x="123" y="-76" on="0"/>
        <pt x="233" y="-178" on="0"/>
        <pt x="233" y="-268" on="1"/>
        <pt x="233" y="-307" on="0"/>
        <pt x="209" y="-360" on="0"/>
        <pt x="180" y="-391" on="0"/>
        <pt x="178" y="-397" on="1"/>
        <pt x="186" y="-416" on="0"/>
        <pt x="213" y="-424" on="1"/>
        <pt x="297" y="-406" on="0"/>
        <pt x="350" y="-188" on="0"/>
        <pt x="350" y="55" on="1"/>
        <pt x="350" y="768" on="1"/>
        <pt x="350" y="1090" on="0"/>
        <pt x="340" y="1325" on="1"/>
        <pt x="338" y="1362" on="0"/>
        <pt x="117" y="1384" on="1"/>
        <pt x="100" y="1450" on="0"/>
        <pt x="121" y="1513" on="1"/>
        <pt x="297" y="1503" on="0"/>
        <pt x="569" y="1503" on="1"/>
        <pt x="610" y="1503" on="0"/>
        <pt x="856" y="1507" on="0"/>
        <pt x="948" y="1507" on="1"/>
        <pt x="967" y="1450" on="0"/>
        <pt x="950" y="1384" on="1"/>
        <pt x="729" y="1362" on="0"/>
        <pt x="727" y="1325" on="1"/>
        <pt x="715" y="1075" on="0"/>
        <pt x="715" y="694" on="1"/>
        <pt x="715" y="532" on="0"/>
        <pt x="707" y="283" on="0"/>
        <pt x="680" y="8" on="0"/>
        <pt x="635" y="-193" on="0"/>
        <pt x="557" y="-383" on="0"/>
        <pt x="449" y="-502" on="0"/>
        <pt x="295" y="-573" on="0"/>
      </contour>
    </TTGlyph>
    <TTGlyph name="K" xMin="51" yMin="-49" xMax="1792" yMax="1513">
      <contour>
        <pt x="1616" y="1470" on="1"/>
        <pt x="1341" y="1462" on="0"/>
        <pt x="1280" y="1462" on="1"/>
        <pt x="1208" y="1462" on="0"/>
        <pt x="983" y="1470" on="1"/>
        <pt x="977" y="1448" on="0"/>
        <pt x="983" y="1423" on="1"/>
        <pt x="1087" y="1417" on="0"/>
        <pt x="1167" y="1393" on="0"/>
        <pt x="1167" y="1356" on="1"/>
        <pt x="1167" y="1338" on="0"/>
        <pt x="1155" y="1327" on="1"/>
        <pt x="588" y="780" on="1"/>
        <pt x="518" y="780" on="1"/>
        <pt x="518" y="1053" on="0"/>
        <pt x="530" y="1327" on="1"/>
        <pt x="532" y="1403" on="0"/>
        <pt x="864" y="1423" on="1"/>
        <pt x="870" y="1442" on="0"/>
        <pt x="864" y="1470" on="1"/>
        <pt x="602" y="1462" on="0"/>
        <pt x="455" y="1462" on="1"/>
        <pt x="332" y="1462" on="0"/>
        <pt x="106" y="1470" on="1"/>
        <pt x="98" y="1452" on="0"/>
        <pt x="106" y="1423" on="1"/>
        <pt x="336" y="1401" on="0"/>
        <pt x="338" y="1327" on="1"/>
        <pt x="348" y="1092" on="0"/>
        <pt x="348" y="768" on="1"/>
        <pt x="348" y="451" on="0"/>
        <pt x="336" y="137" on="1"/>
        <pt x="334" y="63" on="0"/>
        <pt x="104" y="41" on="1"/>
        <pt x="96" y="25" on="0"/>
        <pt x="104" y="-6" on="1"/>
        <pt x="274" y="0" on="0"/>
        <pt x="453" y="0" on="1"/>
        <pt x="666" y="0" on="0"/>
        <pt x="862" y="-6" on="1"/>
        <pt x="870" y="10" on="0"/>
        <pt x="862" y="41" on="1"/>
        <pt x="530" y="61" on="0"/>
        <pt x="528" y="137" on="1"/>
        <pt x="518" y="449" on="0"/>
        <pt x="518" y="694" on="1"/>
        <pt x="598" y="696" on="1"/>
        <pt x="1085" y="190" on="1"/>
        <pt x="1139" y="133" on="0"/>
        <pt x="1139" y="109" on="1"/>
        <pt x="1139" y="74" on="0"/>
        <pt x="1075" y="43" on="0"/>
        <pt x="979" y="41" on="1"/>
        <pt x="971" y="10" on="0"/>
        <pt x="979" y="-6" on="1"/>
        <pt x="979" y="-8" on="1"/>
        <pt x="1200" y="0" on="0"/>
        <pt x="1358" y="0" on="1"/>
        <pt x="1589" y="0" on="0"/>
        <pt x="1730" y="-6" on="1"/>
        <pt x="1737" y="16" on="0"/>
        <pt x="1730" y="41" on="1"/>
        <pt x="1497" y="49" on="0"/>
        <pt x="1356" y="190" on="1"/>
        <pt x="739" y="815" on="1"/>
        <pt x="1278" y="1327" on="1"/>
        <pt x="1331" y="1364" on="0"/>
        <pt x="1462" y="1407" on="0"/>
        <pt x="1546" y="1417" on="0"/>
        <pt x="1616" y="1423" on="1"/>
        <pt x="1622" y="1448" on="0"/>
      </contour>
      <contour>
        <pt x="1669" y="1384" on="1"/>
        <pt x="1429" y="1368" on="0"/>
        <pt x="1325" y="1296" on="1"/>
        <pt x="866" y="858" on="1"/>
        <pt x="1495" y="221" on="1"/>
        <pt x="1636" y="80" on="0"/>
        <pt x="1776" y="74" on="1"/>
        <pt x="1792" y="8" on="0"/>
        <pt x="1776" y="-49" on="1"/>
        <pt x="1505" y="-33" on="0"/>
        <pt x="950" y="-49" on="1"/>
        <pt x="930" y="8" on="0"/>
        <pt x="944" y="74" on="1"/>
        <pt x="1098" y="78" on="0"/>
        <pt x="1098" y="109" on="1"/>
        <pt x="1098" y="119" on="0"/>
        <pt x="672" y="561" on="1"/>
        <pt x="672" y="375" on="0"/>
        <pt x="682" y="139" on="1"/>
        <pt x="682" y="133" on="0"/>
        <pt x="692" y="121" on="0"/>
        <pt x="711" y="113" on="0"/>
        <pt x="731" y="104" on="0"/>
        <pt x="766" y="96" on="0"/>
        <pt x="790" y="90" on="0"/>
        <pt x="831" y="84" on="0"/>
        <pt x="856" y="80" on="0"/>
        <pt x="899" y="76" on="0"/>
        <pt x="907" y="74" on="1"/>
        <pt x="922" y="8" on="0"/>
        <pt x="901" y="-49" on="1"/>
        <pt x="532" y="-41" on="0"/>
        <pt x="453" y="-41" on="1"/>
        <pt x="399" y="-41" on="0"/>
        <pt x="76" y="-49" on="1"/>
        <pt x="51" y="20" on="0"/>
        <pt x="76" y="80" on="1"/>
        <pt x="293" y="102" on="0"/>
        <pt x="295" y="139" on="1"/>
        <pt x="307" y="389" on="0"/>
        <pt x="307" y="768" on="1"/>
        <pt x="307" y="1090" on="0"/>
        <pt x="297" y="1325" on="1"/>
        <pt x="295" y="1362" on="0"/>
        <pt x="74" y="1384" on="1"/>
        <pt x="57" y="1450" on="0"/>
        <pt x="78" y="1513" on="1"/>
        <pt x="166" y="1513" on="0"/>
        <pt x="467" y="1503" on="0"/>
        <pt x="526" y="1503" on="1"/>
        <pt x="569" y="1503" on="0"/>
        <pt x="803" y="1507" on="0"/>
        <pt x="893" y="1507" on="1"/>
        <pt x="911" y="1450" on="0"/>
        <pt x="895" y="1384" on="1"/>
        <pt x="686" y="1364" on="0"/>
        <pt x="684" y="1325" on="1"/>
        <pt x="674" y="1118" on="0"/>
        <pt x="672" y="918" on="1"/>
        <pt x="1126" y="1356" on="1"/>
        <pt x="1126" y="1372" on="0"/>
        <pt x="956" y="1384" on="1"/>
        <pt x="936" y="1452" on="0"/>
        <pt x="958" y="1511" on="1"/>
        <pt x="1321" y="1495" on="0"/>
        <pt x="1669" y="1507" on="1"/>
        <pt x="1685" y="1450" on="0"/>
      </contour>
    </TTGlyph>
    <TTGlyph name="L" xMin="51" yMin="-47" xMax="1634" yMax="1513">
      <contour>
        <pt x="516" y="768" on="1"/>
        <pt x="516" y="1014" on="0"/>
        <pt x="526" y="1327" on="1"/>
        <pt x="528" y="1403" on="0"/>
        <pt x="860" y="1423" on="1"/>
        <pt x="866" y="1442" on="0"/>
        <pt x="860" y="1470" on="1"/>
        <pt x="598" y="1462" on="0"/>
        <pt x="451" y="1462" on="1"/>
        <pt x="328" y="1462" on="0"/>
        <pt x="102" y="1470" on="1"/>
        <pt x="94" y="1452" on="0"/>
        <pt x="102" y="1423" on="1"/>
        <pt x="332" y="1401" on="0"/>
        <pt x="334" y="1327" on="1"/>
        <pt x="344" y="1092" on="0"/>
        <pt x="344" y="768" on="1"/>
        <pt x="344" y="451" on="0"/>
        <pt x="332" y="137" on="1"/>
        <pt x="330" y="63" on="0"/>
        <pt x="100" y="41" on="1"/>
        <pt x="94" y="16" on="0"/>
        <pt x="100" y="-6" on="1"/>
        <pt x="293" y="0" on="0"/>
        <pt x="997" y="0" on="1"/>
        <pt x="1237" y="0" on="0"/>
        <pt x="1477" y="180" on="0"/>
        <pt x="1581" y="393" on="1"/>
        <pt x="1573" y="410" on="0"/>
        <pt x="1546" y="420" on="1"/>
        <pt x="1507" y="348" on="0"/>
        <pt x="1413" y="236" on="0"/>
        <pt x="1259" y="123" on="0"/>
        <pt x="1030" y="61" on="0"/>
        <pt x="885" y="61" on="1"/>
        <pt x="524" y="61" on="1"/>
        <pt x="516" y="412" on="0"/>
      </contour>
      <contour>
        <pt x="668" y="694" on="1"/>
        <pt x="668" y="420" on="0"/>
        <pt x="676" y="102" on="1"/>
        <pt x="883" y="102" on="1"/>
        <pt x="1327" y="102" on="0"/>
        <pt x="1528" y="471" on="1"/>
        <pt x="1612" y="440" on="0"/>
        <pt x="1634" y="393" on="1"/>
        <pt x="1491" y="156" on="0"/>
        <pt x="1466" y="-41" on="1"/>
        <pt x="659" y="-41" on="1"/>
        <pt x="264" y="-41" on="0"/>
        <pt x="72" y="-47" on="1"/>
        <pt x="51" y="18" on="0"/>
        <pt x="70" y="80" on="1"/>
        <pt x="289" y="102" on="0"/>
        <pt x="291" y="139" on="1"/>
        <pt x="303" y="453" on="0"/>
        <pt x="303" y="768" on="1"/>
        <pt x="303" y="1090" on="0"/>
        <pt x="293" y="1325" on="1"/>
        <pt x="291" y="1362" on="0"/>
        <pt x="70" y="1384" on="1"/>
        <pt x="53" y="1450" on="0"/>
        <pt x="74" y="1513" on="1"/>
        <pt x="248" y="1503" on="0"/>
        <pt x="522" y="1503" on="1"/>
        <pt x="563" y="1503" on="0"/>
        <pt x="809" y="1507" on="0"/>
        <pt x="901" y="1507" on="1"/>
        <pt x="920" y="1450" on="0"/>
        <pt x="903" y="1384" on="1"/>
        <pt x="682" y="1362" on="0"/>
        <pt x="680" y="1325" on="1"/>
        <pt x="668" y="1075" on="0"/>
      </contour>
    </TTGlyph>
    <TTGlyph name="M" xMin="41" yMin="-49" xMax="1982" yMax="1513">
      <contour>
        <pt x="315" y="152" on="1"/>
        <pt x="311" y="61" on="0"/>
        <pt x="94" y="41" on="1"/>
        <pt x="86" y="25" on="0"/>
        <pt x="94" y="-6" on="1"/>
        <pt x="283" y="0" on="0"/>
        <pt x="362" y="0" on="1"/>
        <pt x="487" y="0" on="0"/>
        <pt x="647" y="-6" on="1"/>
        <pt x="655" y="25" on="0"/>
        <pt x="647" y="41" on="1"/>
        <pt x="428" y="61" on="0"/>
        <pt x="426" y="152" on="1"/>
        <pt x="416" y="463" on="0"/>
        <pt x="416" y="694" on="1"/>
        <pt x="416" y="1010" on="0"/>
        <pt x="424" y="1253" on="1"/>
        <pt x="434" y="1253" on="1"/>
        <pt x="922" y="25" on="1"/>
        <pt x="932" y="25" on="1"/>
        <pt x="1388" y="1229" on="1"/>
        <pt x="1397" y="1229" on="1"/>
        <pt x="1407" y="928" on="0"/>
        <pt x="1407" y="694" on="1"/>
        <pt x="1407" y="369" on="0"/>
        <pt x="1397" y="139" on="1"/>
        <pt x="1395" y="113" on="0"/>
        <pt x="1352" y="76" on="0"/>
        <pt x="1268" y="55" on="0"/>
        <pt x="1210" y="47" on="0"/>
        <pt x="1165" y="43" on="1"/>
        <pt x="1157" y="27" on="0"/>
        <pt x="1165" y="-4" on="1"/>
        <pt x="1335" y="2" on="0"/>
        <pt x="1513" y="2" on="1"/>
        <pt x="1726" y="2" on="0"/>
        <pt x="1923" y="-4" on="1"/>
        <pt x="1931" y="14" on="0"/>
        <pt x="1923" y="43" on="1"/>
        <pt x="1591" y="63" on="0"/>
        <pt x="1589" y="137" on="1"/>
        <pt x="1577" y="451" on="0"/>
        <pt x="1577" y="768" on="1"/>
        <pt x="1577" y="1075" on="0"/>
        <pt x="1585" y="1327" on="1"/>
        <pt x="1587" y="1401" on="0"/>
        <pt x="1919" y="1421" on="1"/>
        <pt x="1927" y="1450" on="0"/>
        <pt x="1919" y="1468" on="1"/>
        <pt x="1722" y="1462" on="0"/>
        <pt x="1395" y="1462" on="1"/>
        <pt x="969" y="350" on="1"/>
        <pt x="559" y="1462" on="1"/>
        <pt x="315" y="1462" on="0"/>
        <pt x="127" y="1470" on="1"/>
        <pt x="117" y="1450" on="0"/>
        <pt x="127" y="1432" on="1"/>
        <pt x="246" y="1415" on="0"/>
        <pt x="319" y="1350" on="0"/>
        <pt x="321" y="1233" on="1"/>
        <pt x="328" y="987" on="0"/>
        <pt x="328" y="768" on="1"/>
        <pt x="328" y="465" on="0"/>
      </contour>
      <contour>
        <pt x="274" y="152" on="1"/>
        <pt x="287" y="467" on="0"/>
        <pt x="287" y="768" on="1"/>
        <pt x="287" y="987" on="0"/>
        <pt x="280" y="1233" on="1"/>
        <pt x="278" y="1325" on="0"/>
        <pt x="211" y="1378" on="0"/>
        <pt x="100" y="1393" on="1"/>
        <pt x="72" y="1454" on="0"/>
        <pt x="102" y="1513" on="1"/>
        <pt x="332" y="1503" on="0"/>
        <pt x="700" y="1503" on="1"/>
        <pt x="1028" y="627" on="1"/>
        <pt x="1366" y="1503" on="1"/>
        <pt x="1634" y="1503" on="0"/>
        <pt x="1958" y="1511" on="1"/>
        <pt x="1978" y="1446" on="0"/>
        <pt x="1962" y="1382" on="1"/>
        <pt x="1741" y="1360" on="0"/>
        <pt x="1739" y="1323" on="1"/>
        <pt x="1730" y="1135" on="0"/>
        <pt x="1730" y="768" on="1"/>
        <pt x="1730" y="389" on="0"/>
        <pt x="1743" y="141" on="1"/>
        <pt x="1745" y="104" on="0"/>
        <pt x="1966" y="82" on="1"/>
        <pt x="1982" y="18" on="0"/>
        <pt x="1962" y="-47" on="1"/>
        <pt x="1638" y="-39" on="0"/>
        <pt x="1585" y="-39" on="1"/>
        <pt x="1505" y="-39" on="0"/>
        <pt x="1137" y="-47" on="1"/>
        <pt x="1112" y="23" on="0"/>
        <pt x="1137" y="82" on="1"/>
        <pt x="1354" y="104" on="0"/>
        <pt x="1356" y="139" on="1"/>
        <pt x="1366" y="373" on="0"/>
        <pt x="1366" y="694" on="1"/>
        <pt x="1366" y="944" on="0"/>
        <pt x="1364" y="1061" on="1"/>
        <pt x="960" y="-16" on="1"/>
        <pt x="893" y="-16" on="1"/>
        <pt x="457" y="1083" on="1"/>
        <pt x="457" y="694" on="1"/>
        <pt x="457" y="463" on="0"/>
        <pt x="467" y="152" on="1"/>
        <pt x="469" y="98" on="0"/>
        <pt x="686" y="80" on="1"/>
        <pt x="711" y="20" on="0"/>
        <pt x="686" y="-49" on="1"/>
        <pt x="387" y="-37" on="0"/>
        <pt x="65" y="-49" on="1"/>
        <pt x="41" y="20" on="0"/>
        <pt x="65" y="80" on="1"/>
        <pt x="272" y="100" on="0"/>
      </contour>
    </TTGlyph>
    <TTGlyph name="N" xMin="41" yMin="-49" xMax="1700" yMax="1513">
      <contour>
        <pt x="1294" y="639" on="1"/>
        <pt x="1294" y="770" on="1"/>
        <pt x="1294" y="1001" on="0"/>
        <pt x="1284" y="1313" on="1"/>
        <pt x="1282" y="1366" on="0"/>
        <pt x="1065" y="1384" on="1"/>
        <pt x="1051" y="1419" on="0"/>
        <pt x="1051" y="1448" on="1"/>
        <pt x="1051" y="1466" on="0"/>
        <pt x="1065" y="1509" on="1"/>
        <pt x="1217" y="1503" on="0"/>
        <pt x="1524" y="1503" on="0"/>
        <pt x="1686" y="1509" on="1"/>
        <pt x="1700" y="1466" on="0"/>
        <pt x="1700" y="1448" on="1"/>
        <pt x="1700" y="1419" on="0"/>
        <pt x="1686" y="1384" on="1"/>
        <pt x="1479" y="1364" on="0"/>
        <pt x="1477" y="1313" on="1"/>
        <pt x="1464" y="1102" on="0"/>
        <pt x="1464" y="696" on="1"/>
        <pt x="1464" y="238" on="0"/>
        <pt x="1477" y="-45" on="1"/>
        <pt x="1395" y="-47" on="1"/>
        <pt x="446" y="1114" on="1"/>
        <pt x="446" y="1096" on="0"/>
        <pt x="444" y="1001" on="0"/>
        <pt x="444" y="975" on="1"/>
        <pt x="444" y="492" on="0"/>
        <pt x="457" y="152" on="1"/>
        <pt x="459" y="98" on="0"/>
        <pt x="676" y="80" on="1"/>
        <pt x="690" y="45" on="0"/>
        <pt x="690" y="16" on="1"/>
        <pt x="690" y="-6" on="0"/>
        <pt x="676" y="-49" on="1"/>
        <pt x="522" y="-43" on="0"/>
        <pt x="371" y="-43" on="1"/>
        <pt x="217" y="-43" on="0"/>
        <pt x="55" y="-49" on="1"/>
        <pt x="41" y="-6" on="0"/>
        <pt x="41" y="16" on="1"/>
        <pt x="41" y="45" on="0"/>
        <pt x="55" y="80" on="1"/>
        <pt x="262" y="100" on="0"/>
        <pt x="264" y="152" on="1"/>
        <pt x="276" y="362" on="0"/>
        <pt x="276" y="768" on="1"/>
        <pt x="276" y="1079" on="0"/>
        <pt x="268" y="1323" on="1"/>
        <pt x="203" y="1374" on="0"/>
        <pt x="70" y="1384" on="1"/>
        <pt x="55" y="1411" on="0"/>
        <pt x="55" y="1446" on="1"/>
        <pt x="55" y="1483" on="0"/>
        <pt x="74" y="1513" on="1"/>
        <pt x="283" y="1503" on="0"/>
        <pt x="602" y="1503" on="1"/>
      </contour>
      <contour>
        <pt x="1423" y="696" on="1"/>
        <pt x="1423" y="999" on="0"/>
        <pt x="1436" y="1313" on="1"/>
        <pt x="1440" y="1403" on="0"/>
        <pt x="1657" y="1423" on="1"/>
        <pt x="1665" y="1440" on="0"/>
        <pt x="1657" y="1470" on="1"/>
        <pt x="1468" y="1464" on="0"/>
        <pt x="1389" y="1464" on="1"/>
        <pt x="1264" y="1464" on="0"/>
        <pt x="1104" y="1470" on="1"/>
        <pt x="1096" y="1440" on="0"/>
        <pt x="1104" y="1423" on="1"/>
        <pt x="1323" y="1403" on="0"/>
        <pt x="1325" y="1313" on="1"/>
        <pt x="1335" y="1001" on="0"/>
        <pt x="1335" y="770" on="1"/>
        <pt x="1335" y="635" on="0"/>
        <pt x="1331" y="406" on="1"/>
        <pt x="469" y="1462" on="1"/>
        <pt x="244" y="1462" on="0"/>
        <pt x="96" y="1470" on="1"/>
        <pt x="88" y="1446" on="0"/>
        <pt x="96" y="1423" on="1"/>
        <pt x="225" y="1415" on="0"/>
        <pt x="309" y="1341" on="1"/>
        <pt x="317" y="1098" on="0"/>
        <pt x="317" y="768" on="1"/>
        <pt x="317" y="465" on="0"/>
        <pt x="305" y="152" on="1"/>
        <pt x="301" y="61" on="0"/>
        <pt x="84" y="41" on="1"/>
        <pt x="76" y="25" on="0"/>
        <pt x="84" y="-6" on="1"/>
        <pt x="272" y="0" on="0"/>
        <pt x="352" y="0" on="1"/>
        <pt x="477" y="0" on="0"/>
        <pt x="637" y="-6" on="1"/>
        <pt x="645" y="25" on="0"/>
        <pt x="637" y="41" on="1"/>
        <pt x="418" y="61" on="0"/>
        <pt x="416" y="152" on="1"/>
        <pt x="406" y="463" on="0"/>
        <pt x="406" y="694" on="1"/>
        <pt x="406" y="958" on="0"/>
        <pt x="412" y="1217" on="1"/>
        <pt x="422" y="1217" on="1"/>
        <pt x="1415" y="-6" on="1"/>
        <pt x="1434" y="-4" on="1"/>
        <pt x="1423" y="231" on="0"/>
      </contour>
    </TTGlyph>
    <TTGlyph name="Ntilde" xMin="41" yMin="-49" xMax="1700" yMax="1968">
      <component glyphName="N" x="0" y="0" flags="0x204"/>
      <component glyphName="tilde" x="283" y="586" flags="0x4"/>
    </TTGlyph>
    <TTGlyph name="O" xMin="113" yMin="-86" xMax="1782" yMax="1544">
      <contour>
        <pt x="946" y="1389" on="1"/>
        <pt x="869" y="1383" on="0"/>
        <pt x="747" y="1321" on="0"/>
        <pt x="655" y="1222" on="0"/>
        <pt x="590" y="1095" on="0"/>
        <pt x="549" y="953" on="0"/>
        <pt x="530" y="802" on="0"/>
        <pt x="530" y="729" on="1"/>
        <pt x="530" y="656" on="0"/>
        <pt x="549" y="505" on="0"/>
        <pt x="591" y="363" on="0"/>
        <pt x="656" y="237" on="0"/>
        <pt x="749" y="140" on="0"/>
        <pt x="870" y="80" on="0"/>
        <pt x="946" y="74" on="1"/>
        <pt x="1024" y="80" on="0"/>
        <pt x="1146" y="141" on="0"/>
        <pt x="1239" y="238" on="0"/>
        <pt x="1304" y="365" on="0"/>
        <pt x="1345" y="506" on="0"/>
        <pt x="1364" y="657" on="0"/>
        <pt x="1364" y="729" on="1"/>
        <pt x="1364" y="802" on="0"/>
        <pt x="1345" y="953" on="0"/>
        <pt x="1304" y="1096" on="0"/>
        <pt x="1239" y="1223" on="0"/>
        <pt x="1146" y="1321" on="0"/>
        <pt x="1023" y="1383" on="0"/>
      </contour>
      <contour>
        <pt x="911" y="31" on="1"/>
        <pt x="812" y="31" on="0"/>
        <pt x="656" y="90" on="0"/>
        <pt x="537" y="191" on="0"/>
        <pt x="454" y="327" on="0"/>
        <pt x="401" y="482" on="0"/>
        <pt x="377" y="649" on="0"/>
        <pt x="377" y="729" on="1"/>
        <pt x="377" y="809" on="0"/>
        <pt x="401" y="976" on="0"/>
        <pt x="453" y="1132" on="0"/>
        <pt x="537" y="1270" on="0"/>
        <pt x="655" y="1372" on="0"/>
        <pt x="812" y="1432" on="0"/>
        <pt x="911" y="1432" on="1"/>
        <pt x="1002" y="1432" on="0"/>
        <pt x="1146" y="1373" on="0"/>
        <pt x="1255" y="1270" on="0"/>
        <pt x="1333" y="1132" on="0"/>
        <pt x="1382" y="976" on="0"/>
        <pt x="1405" y="809" on="0"/>
        <pt x="1405" y="729" on="1"/>
        <pt x="1405" y="649" on="0"/>
        <pt x="1383" y="484" on="0"/>
        <pt x="1334" y="329" on="0"/>
        <pt x="1257" y="192" on="0"/>
        <pt x="1147" y="90" on="0"/>
        <pt x="1003" y="31" on="0"/>
      </contour>
      <contour>
        <pt x="911" y="-41" on="1"/>
        <pt x="980" y="-41" on="0"/>
        <pt x="1140" y="-13" on="0"/>
        <pt x="1299" y="55" on="0"/>
        <pt x="1447" y="169" on="0"/>
        <pt x="1560" y="340" on="0"/>
        <pt x="1628" y="575" on="0"/>
        <pt x="1628" y="729" on="1"/>
        <pt x="1628" y="880" on="0"/>
        <pt x="1561" y="1113" on="0"/>
        <pt x="1449" y="1285" on="0"/>
        <pt x="1303" y="1401" on="0"/>
        <pt x="1143" y="1472" on="0"/>
        <pt x="982" y="1503" on="0"/>
        <pt x="911" y="1503" on="1"/>
        <pt x="842" y="1503" on="0"/>
        <pt x="676" y="1476" on="0"/>
        <pt x="508" y="1409" on="0"/>
        <pt x="350" y="1295" on="0"/>
        <pt x="228" y="1123" on="0"/>
        <pt x="154" y="886" on="0"/>
        <pt x="154" y="729" on="1"/>
        <pt x="154" y="577" on="0"/>
        <pt x="225" y="345" on="0"/>
        <pt x="343" y="174" on="0"/>
        <pt x="498" y="59" on="0"/>
        <pt x="666" y="-11" on="0"/>
        <pt x="836" y="-41" on="0"/>
      </contour>
      <contour>
        <pt x="946" y="-86" on="1"/>
        <pt x="745" y="-86" on="0"/>
        <pt x="435" y="31" on="0"/>
        <pt x="223" y="244" on="0"/>
        <pt x="113" y="545" on="0"/>
        <pt x="113" y="729" on="1"/>
        <pt x="113" y="913" on="0"/>
        <pt x="223" y="1214" on="0"/>
        <pt x="435" y="1427" on="0"/>
        <pt x="745" y="1544" on="0"/>
        <pt x="946" y="1544" on="1"/>
        <pt x="1135" y="1544" on="0"/>
        <pt x="1444" y="1436" on="0"/>
        <pt x="1663" y="1229" on="0"/>
        <pt x="1782" y="925" on="0"/>
        <pt x="1782" y="729" on="1"/>
        <pt x="1782" y="532" on="0"/>
        <pt x="1663" y="229" on="0"/>
        <pt x="1444" y="21" on="0"/>
        <pt x="1135" y="-86" on="0"/>
      </contour>
    </TTGlyph>
    <TTGlyph name="OE" xMin="113" yMin="-82" xMax="2476" yMax="1544">
      <contour>
        <pt x="1788" y="1462" on="1"/>
        <pt x="1190" y="1462" on="1"/>
        <pt x="1049" y="1503" on="0"/>
        <pt x="911" y="1503" on="1"/>
        <pt x="842" y="1503" on="0"/>
        <pt x="677" y="1473" on="0"/>
        <pt x="509" y="1403" on="0"/>
        <pt x="351" y="1287" on="0"/>
        <pt x="228" y="1115" on="0"/>
        <pt x="154" y="881" on="0"/>
        <pt x="154" y="729" on="1"/>
        <pt x="154" y="581" on="0"/>
        <pt x="226" y="351" on="0"/>
        <pt x="345" y="180" on="0"/>
        <pt x="501" y="63" on="0"/>
        <pt x="670" y="-9" on="0"/>
        <pt x="838" y="-41" on="0"/>
        <pt x="911" y="-41" on="1"/>
        <pt x="1045" y="-41" on="0"/>
        <pt x="1186" y="0" on="1"/>
        <pt x="1829" y="0" on="1"/>
        <pt x="2075" y="0" on="0"/>
        <pt x="2198" y="84" on="1"/>
        <pt x="2323" y="168" on="0"/>
        <pt x="2423" y="373" on="1"/>
        <pt x="2416" y="388" on="0"/>
        <pt x="2388" y="399" on="1"/>
        <pt x="2206" y="61" on="0"/>
        <pt x="1716" y="61" on="1"/>
        <pt x="1356" y="61" on="1"/>
        <pt x="1351" y="281" on="0"/>
        <pt x="1346" y="598" on="0"/>
        <pt x="1346" y="700" on="1"/>
        <pt x="1671" y="702" on="1"/>
        <pt x="1720" y="702" on="0"/>
        <pt x="1793" y="674" on="0"/>
        <pt x="1847" y="629" on="0"/>
        <pt x="1888" y="572" on="0"/>
        <pt x="1987" y="396" on="0"/>
        <pt x="1989" y="393" on="1"/>
        <pt x="2019" y="406" on="0"/>
        <pt x="2028" y="420" on="1"/>
        <pt x="1927" y="590" on="0"/>
        <pt x="1927" y="733" on="1"/>
        <pt x="1927" y="763" on="0"/>
        <pt x="1943" y="841" on="0"/>
        <pt x="1970" y="927" on="0"/>
        <pt x="2007" y="1011" on="0"/>
        <pt x="2028" y="1047" on="1"/>
        <pt x="2019" y="1061" on="0"/>
        <pt x="1989" y="1073" on="1"/>
        <pt x="1984" y="1066" on="0"/>
        <pt x="1907" y="920" on="0"/>
        <pt x="1887" y="889" on="0"/>
        <pt x="1868" y="861" on="0"/>
        <pt x="1800" y="793" on="0"/>
        <pt x="1725" y="766" on="0"/>
        <pt x="1671" y="766" on="1"/>
        <pt x="1563" y="766" on="0"/>
        <pt x="1401" y="768" on="0"/>
        <pt x="1346" y="770" on="1"/>
        <pt x="1346" y="1012" on="0"/>
        <pt x="1358" y="1401" on="1"/>
        <pt x="1675" y="1401" on="1"/>
        <pt x="2165" y="1401" on="0"/>
        <pt x="2347" y="1063" on="1"/>
        <pt x="2375" y="1074" on="0"/>
        <pt x="2382" y="1090" on="1"/>
        <pt x="2281" y="1294" on="0"/>
        <pt x="2157" y="1378" on="1"/>
        <pt x="2034" y="1462" on="0"/>
      </contour>
      <contour>
        <pt x="1124" y="125" on="1"/>
        <pt x="1135" y="385" on="0"/>
        <pt x="1135" y="768" on="1"/>
        <pt x="1135" y="1149" on="0"/>
        <pt x="1126" y="1337" on="1"/>
        <pt x="1038" y="1382" on="0"/>
        <pt x="950" y="1389" on="1"/>
        <pt x="836" y="1380" on="0"/>
        <pt x="666" y="1253" on="0"/>
        <pt x="573" y="1055" on="0"/>
        <pt x="530" y="842" on="0"/>
        <pt x="530" y="729" on="1"/>
        <pt x="530" y="455" on="0"/>
        <pt x="854" y="98" on="0"/>
      </contour>
      <contour>
        <pt x="2320" y="-41" on="1"/>
        <pt x="1268" y="-41" on="1"/>
        <pt x="1122" y="-82" on="0"/>
        <pt x="911" y="-82" on="1"/>
        <pt x="811" y="-82" on="0"/>
        <pt x="606" y="-35" on="0"/>
        <pt x="387" y="84" on="0"/>
        <pt x="219" y="262" on="0"/>
        <pt x="113" y="551" on="0"/>
        <pt x="113" y="729" on="1"/>
        <pt x="113" y="915" on="0"/>
        <pt x="223" y="1208" on="0"/>
        <pt x="395" y="1384" on="0"/>
        <pt x="625" y="1501" on="0"/>
        <pt x="842" y="1544" on="0"/>
        <pt x="952" y="1544" on="1"/>
        <pt x="1090" y="1544" on="0"/>
        <pt x="1266" y="1503" on="1"/>
        <pt x="2279" y="1503" on="1"/>
        <pt x="2304" y="1307" on="0"/>
        <pt x="2435" y="1090" on="1"/>
        <pt x="2413" y="1042" on="0"/>
        <pt x="2329" y="1012" on="1"/>
        <pt x="2247" y="1161" on="0"/>
        <pt x="1927" y="1360" on="0"/>
        <pt x="1673" y="1360" on="1"/>
        <pt x="1509" y="1360" on="1"/>
        <pt x="1499" y="1001" on="0"/>
        <pt x="1499" y="809" on="1"/>
        <pt x="1563" y="807" on="0"/>
        <pt x="1681" y="807" on="1"/>
        <pt x="1765" y="807" on="0"/>
        <pt x="1866" y="920" on="0"/>
        <pt x="1925" y="1040" on="1"/>
        <pt x="1968" y="1124" on="1"/>
        <pt x="2052" y="1094" on="0"/>
        <pt x="2075" y="1047" on="1"/>
        <pt x="2030" y="969" on="0"/>
        <pt x="1968" y="788" on="0"/>
        <pt x="1968" y="733" on="1"/>
        <pt x="1968" y="600" on="0"/>
        <pt x="2075" y="420" on="1"/>
        <pt x="2050" y="369" on="0"/>
        <pt x="1972" y="342" on="1"/>
        <pt x="1882" y="504" on="0"/>
        <pt x="1831" y="571" on="0"/>
        <pt x="1737" y="639" on="0"/>
        <pt x="1679" y="641" on="1"/>
        <pt x="1499" y="641" on="1"/>
        <pt x="1499" y="420" on="0"/>
        <pt x="1507" y="102" on="1"/>
        <pt x="1714" y="102" on="1"/>
        <pt x="1968" y="102" on="0"/>
        <pt x="2288" y="301" on="0"/>
        <pt x="2370" y="451" on="1"/>
        <pt x="2454" y="420" on="0"/>
        <pt x="2476" y="373" on="1"/>
        <pt x="2345" y="156" on="0"/>
      </contour>
      <contour>
        <pt x="1165" y="1362" on="1"/>
        <pt x="1176" y="1126" on="0"/>
        <pt x="1176" y="768" on="1"/>
        <pt x="1176" y="360" on="0"/>
        <pt x="1165" y="100" on="1"/>
        <pt x="1094" y="82" on="0"/>
        <pt x="997" y="82" on="1"/>
        <pt x="690" y="82" on="0"/>
        <pt x="377" y="453" on="0"/>
        <pt x="377" y="729" on="1"/>
        <pt x="377" y="854" on="0"/>
        <pt x="432" y="1087" on="0"/>
        <pt x="549" y="1300" on="0"/>
        <pt x="766" y="1432" on="0"/>
        <pt x="911" y="1432" on="1"/>
        <pt x="1034" y="1432" on="0"/>
      </contour>
    </TTGlyph>
    <TTGlyph name="Oacute" xMin="113" yMin="-86" xMax="1782" yMax="2095">
      <component glyphName="O" x="0" y="0" flags="0x204"/>
      <component glyphName="acute" x="260" y="586" flags="0x4"/>
    </TTGlyph>
    <TTGlyph name="Ocircumflex" xMin="113" yMin="-86" xMax="1782" yMax="2026">
      <component glyphName="O" x="0" y="0" flags="0x204"/>
      <component glyphName="circumflex" x="360" y="586" flags="0x4"/>
    </TTGlyph>
    <TTGlyph name="Odieresis" xMin="113" yMin="-86" xMax="1782" yMax="1991">
      <component glyphName="O" x="0" y="0" flags="0x204"/>
      <component glyphName="dieresis" x="328" y="586" flags="0x4"/>
    </TTGlyph>
    <TTGlyph name="Ograve" xMin="113" yMin="-86" xMax="1782" yMax="2095">
      <component glyphName="O" x="0" y="0" flags="0x204"/>
      <component glyphName="grave" x="352" y="586" flags="0x4"/>
    </TTGlyph>
    <TTGlyph name="Oslash" xMin="113" yMin="-240" xMax="1782" yMax="1677">
      <contour>
        <pt x="1405" y="729" on="1"/>
        <pt x="1405" y="604" on="0"/>
        <pt x="1354" y="373" on="0"/>
        <pt x="1245" y="160" on="0"/>
        <pt x="1044" y="31" on="0"/>
        <pt x="911" y="31" on="1"/>
        <pt x="725" y="31" on="0"/>
        <pt x="582" y="164" on="1"/>
        <pt x="1307" y="1178" on="1"/>
        <pt x="1405" y="989" on="0"/>
      </contour>
      <contour>
        <pt x="377" y="729" on="1"/>
        <pt x="377" y="854" on="0"/>
        <pt x="432" y="1087" on="0"/>
        <pt x="549" y="1300" on="0"/>
        <pt x="766" y="1432" on="0"/>
        <pt x="911" y="1432" on="1"/>
        <pt x="1114" y="1432" on="0"/>
        <pt x="1243" y="1276" on="1"/>
        <pt x="508" y="252" on="1"/>
        <pt x="377" y="455" on="0"/>
      </contour>
      <contour>
        <pt x="1417" y="1331" on="1"/>
        <pt x="1577" y="1554" on="1"/>
        <pt x="1489" y="1620" on="1"/>
        <pt x="1327" y="1395" on="1"/>
        <pt x="1141" y="1503" on="0"/>
        <pt x="911" y="1503" on="1"/>
        <pt x="815" y="1503" on="0"/>
        <pt x="623" y="1462" on="0"/>
        <pt x="414" y="1352" on="0"/>
        <pt x="256" y="1184" on="0"/>
        <pt x="154" y="905" on="0"/>
        <pt x="154" y="729" on="1"/>
        <pt x="154" y="324" on="0"/>
        <pt x="414" y="121" on="1"/>
        <pt x="244" y="-117" on="1"/>
        <pt x="332" y="-182" on="1"/>
        <pt x="504" y="59" on="1"/>
        <pt x="688" y="-41" on="0"/>
        <pt x="911" y="-41" on="1"/>
        <pt x="1004" y="-41" on="0"/>
        <pt x="1184" y="0" on="0"/>
        <pt x="1382" y="109" on="0"/>
        <pt x="1532" y="274" on="0"/>
        <pt x="1628" y="553" on="0"/>
        <pt x="1628" y="729" on="1"/>
        <pt x="1628" y="1124" on="0"/>
      </contour>
      <contour>
        <pt x="514" y="4" on="1"/>
        <pt x="342" y="-240" on="1"/>
        <pt x="186" y="-127" on="1"/>
        <pt x="358" y="113" on="1"/>
        <pt x="113" y="328" on="0"/>
        <pt x="113" y="729" on="1"/>
        <pt x="113" y="915" on="0"/>
        <pt x="221" y="1208" on="0"/>
        <pt x="391" y="1384" on="0"/>
        <pt x="618" y="1501" on="0"/>
        <pt x="836" y="1544" on="0"/>
        <pt x="948" y="1544" on="1"/>
        <pt x="1171" y="1544" on="0"/>
        <pt x="1333" y="1473" on="1"/>
        <pt x="1479" y="1677" on="1"/>
        <pt x="1634" y="1565" on="1"/>
        <pt x="1499" y="1378" on="1"/>
        <pt x="1782" y="1124" on="0"/>
        <pt x="1782" y="729" on="1"/>
        <pt x="1782" y="543" on="0"/>
        <pt x="1673" y="252" on="0"/>
        <pt x="1503" y="76" on="0"/>
        <pt x="1276" y="-39" on="0"/>
        <pt x="1059" y="-82" on="0"/>
        <pt x="946" y="-82" on="1"/>
        <pt x="737" y="-82" on="0"/>
      </contour>
      <contour>
        <pt x="530" y="729" on="1"/>
        <pt x="530" y="555" on="0"/>
        <pt x="575" y="418" on="1"/>
        <pt x="1192" y="1274" on="1"/>
        <pt x="1100" y="1374" on="0"/>
        <pt x="950" y="1389" on="1"/>
        <pt x="836" y="1380" on="0"/>
        <pt x="666" y="1253" on="0"/>
        <pt x="573" y="1055" on="0"/>
        <pt x="530" y="842" on="0"/>
      </contour>
      <contour>
        <pt x="1364" y="729" on="1"/>
        <pt x="1364" y="928" on="0"/>
        <pt x="1303" y="1108" on="1"/>
        <pt x="668" y="213" on="1"/>
        <pt x="715" y="152" on="0"/>
        <pt x="866" y="78" on="0"/>
        <pt x="942" y="72" on="1"/>
        <pt x="1057" y="80" on="0"/>
        <pt x="1227" y="207" on="0"/>
        <pt x="1321" y="403" on="0"/>
        <pt x="1364" y="616" on="0"/>
      </contour>
    </TTGlyph>
    <TTGlyph name="Otilde" xMin="113" yMin="-86" xMax="1782" yMax="1968">
      <component glyphName="O" x="0" y="0" flags="0x204"/>
      <component glyphName="tilde" x="322" y="586" flags="0x4"/>
    </TTGlyph>
    <TTGlyph name="P" xMin="51" yMin="-49" xMax="1386" yMax="1513">
      <contour>
        <pt x="532" y="1401" on="1"/>
        <pt x="614" y="1405" on="0"/>
        <pt x="649" y="1405" on="1"/>
        <pt x="1014" y="1405" on="0"/>
        <pt x="1014" y="1036" on="1"/>
        <pt x="1014" y="877" on="0"/>
        <pt x="872" y="694" on="0"/>
        <pt x="731" y="694" on="1"/>
        <pt x="625" y="694" on="0"/>
        <pt x="526" y="731" on="1"/>
        <pt x="526" y="1040" on="0"/>
      </contour>
      <contour>
        <pt x="295" y="139" on="1"/>
        <pt x="307" y="389" on="0"/>
        <pt x="307" y="768" on="1"/>
        <pt x="307" y="1090" on="0"/>
        <pt x="297" y="1325" on="1"/>
        <pt x="295" y="1362" on="0"/>
        <pt x="74" y="1384" on="1"/>
        <pt x="57" y="1450" on="0"/>
        <pt x="78" y="1513" on="1"/>
        <pt x="184" y="1509" on="0"/>
        <pt x="428" y="1507" on="0"/>
        <pt x="745" y="1511" on="0"/>
        <pt x="819" y="1511" on="1"/>
        <pt x="1096" y="1511" on="0"/>
        <pt x="1386" y="1251" on="0"/>
        <pt x="1386" y="1034" on="1"/>
        <pt x="1386" y="815" on="0"/>
        <pt x="1065" y="567" on="0"/>
        <pt x="809" y="567" on="1"/>
        <pt x="737" y="567" on="0"/>
        <pt x="680" y="580" on="1"/>
        <pt x="680" y="297" on="0"/>
        <pt x="686" y="137" on="1"/>
        <pt x="686" y="131" on="0"/>
        <pt x="715" y="111" on="0"/>
        <pt x="772" y="93" on="0"/>
        <pt x="901" y="76" on="0"/>
        <pt x="911" y="74" on="1"/>
        <pt x="928" y="18" on="0"/>
        <pt x="905" y="-49" on="1"/>
        <pt x="536" y="-41" on="0"/>
        <pt x="457" y="-41" on="1"/>
        <pt x="399" y="-41" on="0"/>
        <pt x="76" y="-49" on="1"/>
        <pt x="51" y="20" on="0"/>
        <pt x="76" y="80" on="1"/>
        <pt x="293" y="102" on="0"/>
      </contour>
      <contour>
        <pt x="973" y="1036" on="1"/>
        <pt x="973" y="1346" on="0"/>
        <pt x="684" y="1362" on="1"/>
        <pt x="680" y="1141" on="0"/>
        <pt x="680" y="756" on="1"/>
        <pt x="717" y="739" on="0"/>
        <pt x="760" y="735" on="1"/>
        <pt x="864" y="745" on="0"/>
        <pt x="973" y="905" on="0"/>
      </contour>
      <contour>
        <pt x="336" y="137" on="1"/>
        <pt x="334" y="63" on="0"/>
        <pt x="104" y="41" on="1"/>
        <pt x="96" y="25" on="0"/>
        <pt x="104" y="-6" on="1"/>
        <pt x="274" y="0" on="0"/>
        <pt x="457" y="0" on="1"/>
        <pt x="670" y="0" on="0"/>
        <pt x="866" y="-6" on="1"/>
        <pt x="874" y="10" on="0"/>
        <pt x="866" y="41" on="1"/>
        <pt x="534" y="61" on="0"/>
        <pt x="532" y="137" on="1"/>
        <pt x="526" y="420" on="0"/>
        <pt x="526" y="664" on="1"/>
        <pt x="651" y="608" on="0"/>
        <pt x="809" y="608" on="1"/>
        <pt x="1012" y="608" on="0"/>
        <pt x="1233" y="846" on="0"/>
        <pt x="1233" y="1034" on="1"/>
        <pt x="1233" y="1231" on="0"/>
        <pt x="983" y="1470" on="0"/>
        <pt x="747" y="1470" on="1"/>
        <pt x="674" y="1470" on="0"/>
        <pt x="410" y="1464" on="0"/>
        <pt x="201" y="1464" on="0"/>
        <pt x="106" y="1470" on="1"/>
        <pt x="98" y="1452" on="0"/>
        <pt x="106" y="1423" on="1"/>
        <pt x="151" y="1419" on="0"/>
        <pt x="209" y="1411" on="0"/>
        <pt x="293" y="1391" on="0"/>
        <pt x="336" y="1354" on="0"/>
        <pt x="338" y="1327" on="1"/>
        <pt x="348" y="1092" on="0"/>
        <pt x="348" y="768" on="1"/>
        <pt x="348" y="451" on="0"/>
      </contour>
    </TTGlyph>
    <TTGlyph name="Q" xMin="113" yMin="-528" xMax="1782" yMax="1544">
      <contour>
        <pt x="911" y="31" on="1"/>
        <pt x="810" y="31" on="0"/>
        <pt x="652" y="91" on="0"/>
        <pt x="534" y="195" on="0"/>
        <pt x="451" y="333" on="0"/>
        <pt x="400" y="488" on="0"/>
        <pt x="377" y="652" on="0"/>
        <pt x="377" y="729" on="1"/>
        <pt x="377" y="809" on="0"/>
        <pt x="401" y="976" on="0"/>
        <pt x="453" y="1132" on="0"/>
        <pt x="537" y="1270" on="0"/>
        <pt x="655" y="1372" on="0"/>
        <pt x="812" y="1432" on="0"/>
        <pt x="911" y="1432" on="1"/>
        <pt x="1002" y="1432" on="0"/>
        <pt x="1146" y="1373" on="0"/>
        <pt x="1255" y="1270" on="0"/>
        <pt x="1333" y="1132" on="0"/>
        <pt x="1382" y="976" on="0"/>
        <pt x="1405" y="809" on="0"/>
        <pt x="1405" y="729" on="1"/>
        <pt x="1405" y="649" on="0"/>
        <pt x="1383" y="484" on="0"/>
        <pt x="1334" y="329" on="0"/>
        <pt x="1257" y="192" on="0"/>
        <pt x="1147" y="90" on="0"/>
        <pt x="1003" y="31" on="0"/>
      </contour>
      <contour>
        <pt x="946" y="1389" on="1"/>
        <pt x="869" y="1383" on="0"/>
        <pt x="747" y="1321" on="0"/>
        <pt x="655" y="1222" on="0"/>
        <pt x="590" y="1095" on="0"/>
        <pt x="549" y="953" on="0"/>
        <pt x="530" y="802" on="0"/>
        <pt x="530" y="729" on="1"/>
        <pt x="530" y="656" on="0"/>
        <pt x="549" y="505" on="0"/>
        <pt x="591" y="363" on="0"/>
        <pt x="656" y="237" on="0"/>
        <pt x="749" y="140" on="0"/>
        <pt x="870" y="80" on="0"/>
        <pt x="946" y="74" on="1"/>
        <pt x="1024" y="80" on="0"/>
        <pt x="1146" y="141" on="0"/>
        <pt x="1239" y="238" on="0"/>
        <pt x="1304" y="365" on="0"/>
        <pt x="1345" y="506" on="0"/>
        <pt x="1364" y="657" on="0"/>
        <pt x="1364" y="729" on="1"/>
        <pt x="1364" y="802" on="0"/>
        <pt x="1345" y="953" on="0"/>
        <pt x="1304" y="1096" on="0"/>
        <pt x="1239" y="1223" on="0"/>
        <pt x="1146" y="1321" on="0"/>
        <pt x="1023" y="1383" on="0"/>
      </contour>
      <contour>
        <pt x="1714" y="-406" on="1"/>
        <pt x="1731" y="-461" on="0"/>
        <pt x="1708" y="-528" on="1"/>
        <pt x="1356" y="-528" on="0"/>
        <pt x="877" y="-326" on="0"/>
        <pt x="729" y="-66" on="1"/>
        <pt x="610" y="-43" on="0"/>
        <pt x="406" y="59" on="0"/>
        <pt x="219" y="240" on="0"/>
        <pt x="113" y="537" on="0"/>
        <pt x="113" y="729" on="1"/>
        <pt x="113" y="915" on="0"/>
        <pt x="221" y="1208" on="0"/>
        <pt x="387" y="1384" on="0"/>
        <pt x="606" y="1501" on="0"/>
        <pt x="809" y="1544" on="0"/>
        <pt x="911" y="1544" on="1"/>
        <pt x="1096" y="1544" on="0"/>
        <pt x="1403" y="1450" on="0"/>
        <pt x="1647" y="1257" on="0"/>
        <pt x="1782" y="938" on="0"/>
        <pt x="1782" y="729" on="1"/>
        <pt x="1782" y="553" on="0"/>
        <pt x="1690" y="272" on="0"/>
        <pt x="1528" y="90" on="0"/>
        <pt x="1339" y="-20" on="0"/>
        <pt x="1227" y="-51" on="1"/>
        <pt x="1280" y="-160" on="0"/>
        <pt x="1491" y="-332" on="0"/>
      </contour>
      <contour>
        <pt x="1683" y="-440" on="1"/>
        <pt x="1556" y="-401" on="0"/>
        <pt x="1364" y="-295" on="0"/>
        <pt x="1241" y="-168" on="0"/>
        <pt x="1174" y="-72" on="0"/>
        <pt x="1141" y="-8" on="1"/>
        <pt x="1217" y="18" on="0"/>
        <pt x="1337" y="84" on="0"/>
        <pt x="1475" y="203" on="0"/>
        <pt x="1567" y="354" on="0"/>
        <pt x="1628" y="586" on="0"/>
        <pt x="1628" y="729" on="1"/>
        <pt x="1628" y="905" on="0"/>
        <pt x="1532" y="1184" on="0"/>
        <pt x="1382" y="1352" on="0"/>
        <pt x="1184" y="1462" on="0"/>
        <pt x="1001" y="1503" on="0"/>
        <pt x="911" y="1503" on="1"/>
        <pt x="815" y="1503" on="0"/>
        <pt x="623" y="1462" on="0"/>
        <pt x="414" y="1352" on="0"/>
        <pt x="256" y="1184" on="0"/>
        <pt x="154" y="905" on="0"/>
        <pt x="154" y="729" on="1"/>
        <pt x="154" y="389" on="0"/>
        <pt x="557" y="-33" on="0"/>
        <pt x="899" y="-41" on="1"/>
        <pt x="995" y="-233" on="0"/>
        <pt x="1411" y="-479" on="0"/>
        <pt x="1681" y="-487" on="1"/>
        <pt x="1692" y="-461" on="0"/>
      </contour>
    </TTGlyph>
    <TTGlyph name="R" xMin="51" yMin="-49" xMax="1687" yMax="1513">
      <contour>
        <pt x="528" y="1401" on="1"/>
        <pt x="530" y="1401" on="1"/>
        <pt x="592" y="1405" on="0"/>
        <pt x="690" y="1405" on="1"/>
        <pt x="842" y="1405" on="0"/>
        <pt x="1003" y="1217" on="0"/>
        <pt x="1003" y="1067" on="1"/>
        <pt x="1003" y="915" on="0"/>
        <pt x="856" y="692" on="0"/>
        <pt x="700" y="692" on="1"/>
        <pt x="608" y="692" on="0"/>
        <pt x="518" y="715" on="1"/>
        <pt x="518" y="1067" on="0"/>
      </contour>
      <contour>
        <pt x="962" y="1067" on="1"/>
        <pt x="962" y="1196" on="0"/>
        <pt x="807" y="1372" on="0"/>
        <pt x="680" y="1362" on="1"/>
        <pt x="672" y="977" on="0"/>
        <pt x="672" y="745" on="1"/>
        <pt x="692" y="739" on="0"/>
        <pt x="733" y="735" on="1"/>
        <pt x="850" y="748" on="0"/>
        <pt x="962" y="942" on="0"/>
      </contour>
      <contour>
        <pt x="336" y="137" on="1"/>
        <pt x="334" y="63" on="0"/>
        <pt x="104" y="41" on="1"/>
        <pt x="96" y="25" on="0"/>
        <pt x="104" y="-6" on="1"/>
        <pt x="274" y="0" on="0"/>
        <pt x="453" y="0" on="1"/>
        <pt x="666" y="0" on="0"/>
        <pt x="862" y="-6" on="1"/>
        <pt x="870" y="10" on="0"/>
        <pt x="862" y="41" on="1"/>
        <pt x="530" y="61" on="0"/>
        <pt x="528" y="137" on="1"/>
        <pt x="518" y="418" on="0"/>
        <pt x="518" y="639" on="1"/>
        <pt x="631" y="616" on="0"/>
        <pt x="727" y="616" on="1"/>
        <pt x="891" y="311" on="0"/>
        <pt x="1159" y="0" on="1"/>
        <pt x="1210" y="0" on="0"/>
        <pt x="1403" y="-2" on="0"/>
        <pt x="1558" y="-4" on="0"/>
        <pt x="1628" y="-6" on="1"/>
        <pt x="1636" y="12" on="0"/>
        <pt x="1628" y="41" on="1"/>
        <pt x="1464" y="53" on="0"/>
        <pt x="1239" y="190" on="0"/>
        <pt x="1089" y="375" on="1"/>
        <pt x="987" y="504" on="0"/>
        <pt x="905" y="647" on="1"/>
        <pt x="1053" y="696" on="0"/>
        <pt x="1223" y="924" on="0"/>
        <pt x="1223" y="1067" on="1"/>
        <pt x="1223" y="1247" on="0"/>
        <pt x="991" y="1470" on="0"/>
        <pt x="786" y="1470" on="1"/>
        <pt x="110" y="1462" on="0"/>
        <pt x="106" y="1470" on="1"/>
        <pt x="100" y="1446" on="0"/>
        <pt x="106" y="1423" on="1"/>
        <pt x="336" y="1401" on="0"/>
        <pt x="338" y="1327" on="1"/>
        <pt x="348" y="1092" on="0"/>
        <pt x="348" y="768" on="1"/>
        <pt x="348" y="451" on="0"/>
      </contour>
      <contour>
        <pt x="295" y="139" on="1"/>
        <pt x="307" y="389" on="0"/>
        <pt x="307" y="768" on="1"/>
        <pt x="307" y="1090" on="0"/>
        <pt x="297" y="1325" on="1"/>
        <pt x="295" y="1362" on="0"/>
        <pt x="74" y="1384" on="1"/>
        <pt x="57" y="1450" on="0"/>
        <pt x="78" y="1513" on="1"/>
        <pt x="188" y="1507" on="0"/>
        <pt x="446" y="1507" on="0"/>
        <pt x="780" y="1511" on="0"/>
        <pt x="858" y="1511" on="1"/>
        <pt x="1100" y="1511" on="0"/>
        <pt x="1376" y="1266" on="0"/>
        <pt x="1376" y="1067" on="1"/>
        <pt x="1376" y="926" on="0"/>
        <pt x="1214" y="688" on="0"/>
        <pt x="1077" y="627" on="1"/>
        <pt x="1145" y="516" on="0"/>
        <pt x="1235" y="399" on="1"/>
        <pt x="1341" y="258" on="0"/>
        <pt x="1546" y="92" on="0"/>
        <pt x="1671" y="80" on="1"/>
        <pt x="1687" y="16" on="0"/>
        <pt x="1667" y="-49" on="1"/>
        <pt x="1524" y="-45" on="0"/>
        <pt x="1141" y="-41" on="1"/>
        <pt x="860" y="287" on="0"/>
        <pt x="702" y="575" on="1"/>
        <pt x="672" y="575" on="1"/>
        <pt x="672" y="389" on="0"/>
        <pt x="682" y="139" on="1"/>
        <pt x="682" y="133" on="0"/>
        <pt x="692" y="121" on="0"/>
        <pt x="760" y="95" on="0"/>
        <pt x="899" y="76" on="0"/>
        <pt x="907" y="74" on="1"/>
        <pt x="924" y="18" on="0"/>
        <pt x="901" y="-49" on="1"/>
        <pt x="532" y="-41" on="0"/>
        <pt x="453" y="-41" on="1"/>
        <pt x="399" y="-41" on="0"/>
        <pt x="76" y="-49" on="1"/>
        <pt x="51" y="20" on="0"/>
        <pt x="76" y="80" on="1"/>
        <pt x="293" y="102" on="0"/>
      </contour>
    </TTGlyph>
    <TTGlyph name="S" xMin="98" yMin="-82" xMax="1294" yMax="1544">
      <contour>
        <pt x="678" y="1544" on="1"/>
        <pt x="821" y="1544" on="0"/>
        <pt x="1061" y="1464" on="0"/>
        <pt x="1157" y="1452" on="1"/>
        <pt x="1104" y="1266" on="0"/>
        <pt x="1153" y="1051" on="1"/>
        <pt x="1102" y="1008" on="0"/>
        <pt x="1036" y="1001" on="1"/>
        <pt x="1028" y="1020" on="0"/>
        <pt x="987" y="1141" on="0"/>
        <pt x="950" y="1219" on="0"/>
        <pt x="885" y="1319" on="0"/>
        <pt x="778" y="1378" on="0"/>
        <pt x="709" y="1389" on="1"/>
        <pt x="608" y="1380" on="0"/>
        <pt x="498" y="1274" on="0"/>
        <pt x="498" y="1190" on="1"/>
        <pt x="498" y="1104" on="0"/>
        <pt x="586" y="993" on="0"/>
        <pt x="727" y="938" on="0"/>
        <pt x="897" y="897" on="0"/>
        <pt x="1065" y="838" on="0"/>
        <pt x="1206" y="743" on="0"/>
        <pt x="1294" y="555" on="0"/>
        <pt x="1294" y="420" on="1"/>
        <pt x="1294" y="256" on="0"/>
        <pt x="1104" y="20" on="0"/>
        <pt x="846" y="-82" on="0"/>
        <pt x="711" y="-82" on="1"/>
        <pt x="414" y="-82" on="0"/>
        <pt x="123" y="49" on="1"/>
        <pt x="129" y="178" on="0"/>
        <pt x="129" y="207" on="1"/>
        <pt x="129" y="369" on="0"/>
        <pt x="98" y="555" on="1"/>
        <pt x="188" y="598" on="0"/>
        <pt x="299" y="559" on="1"/>
        <pt x="336" y="332" on="0"/>
        <pt x="549" y="90" on="0"/>
        <pt x="676" y="76" on="1"/>
        <pt x="795" y="84" on="0"/>
        <pt x="924" y="223" on="0"/>
        <pt x="924" y="330" on="1"/>
        <pt x="924" y="420" on="0"/>
        <pt x="840" y="545" on="0"/>
        <pt x="702" y="614" on="0"/>
        <pt x="541" y="670" on="0"/>
        <pt x="377" y="733" on="0"/>
        <pt x="240" y="821" on="0"/>
        <pt x="156" y="979" on="0"/>
        <pt x="156" y="1092" on="1"/>
        <pt x="156" y="1194" on="0"/>
        <pt x="221" y="1356" on="0"/>
        <pt x="326" y="1454" on="0"/>
        <pt x="467" y="1520" on="0"/>
        <pt x="606" y="1544" on="0"/>
      </contour>
      <contour>
        <pt x="678" y="1503" on="1"/>
        <pt x="594" y="1503" on="0"/>
        <pt x="436" y="1464" on="0"/>
        <pt x="287" y="1376" on="0"/>
        <pt x="197" y="1206" on="0"/>
        <pt x="197" y="1092" on="1"/>
        <pt x="197" y="991" on="0"/>
        <pt x="281" y="846" on="0"/>
        <pt x="418" y="766" on="0"/>
        <pt x="582" y="705" on="0"/>
        <pt x="743" y="643" on="0"/>
        <pt x="881" y="565" on="0"/>
        <pt x="965" y="426" on="0"/>
        <pt x="965" y="330" on="1"/>
        <pt x="965" y="197" on="0"/>
        <pt x="795" y="33" on="0"/>
        <pt x="639" y="33" on="1"/>
        <pt x="489" y="33" on="0"/>
        <pt x="231" y="283" on="0"/>
        <pt x="190" y="532" on="1"/>
        <pt x="170" y="545" on="0"/>
        <pt x="143" y="532" on="1"/>
        <pt x="170" y="375" on="0"/>
        <pt x="170" y="207" on="1"/>
        <pt x="170" y="160" on="0"/>
        <pt x="166" y="74" on="1"/>
        <pt x="414" y="-41" on="0"/>
        <pt x="639" y="-41" on="1"/>
        <pt x="825" y="-41" on="0"/>
        <pt x="1141" y="180" on="0"/>
        <pt x="1141" y="379" on="1"/>
        <pt x="1141" y="492" on="0"/>
        <pt x="1053" y="649" on="0"/>
        <pt x="911" y="737" on="0"/>
        <pt x="741" y="801" on="0"/>
        <pt x="573" y="858" on="0"/>
        <pt x="432" y="928" on="0"/>
        <pt x="344" y="1057" on="0"/>
        <pt x="344" y="1149" on="1"/>
        <pt x="344" y="1278" on="0"/>
        <pt x="518" y="1432" on="0"/>
        <pt x="678" y="1432" on="1"/>
        <pt x="956" y="1432" on="0"/>
        <pt x="1061" y="1047" on="1"/>
        <pt x="1092" y="1042" on="0"/>
        <pt x="1104" y="1061" on="1"/>
        <pt x="1071" y="1305" on="0"/>
        <pt x="848" y="1503" on="0"/>
      </contour>
    </TTGlyph>
    <TTGlyph name="T" xMin="-16" yMin="-49" xMax="1823" yMax="1503">
      <contour>
        <pt x="84" y="1012" on="1"/>
        <pt x="8" y="1042" on="0"/>
        <pt x="-16" y="1090" on="1"/>
        <pt x="41" y="1198" on="0"/>
        <pt x="80" y="1272" on="0"/>
        <pt x="131" y="1425" on="0"/>
        <pt x="141" y="1503" on="1"/>
        <pt x="834" y="1503" on="1"/>
        <pt x="1667" y="1503" on="1"/>
        <pt x="1692" y="1307" on="0"/>
        <pt x="1823" y="1090" on="1"/>
        <pt x="1800" y="1042" on="0"/>
        <pt x="1716" y="1012" on="1"/>
        <pt x="1634" y="1161" on="0"/>
        <pt x="1315" y="1360" on="0"/>
        <pt x="1061" y="1360" on="1"/>
        <pt x="1053" y="1112" on="0"/>
        <pt x="1053" y="772" on="1"/>
        <pt x="1053" y="338" on="0"/>
        <pt x="1063" y="139" on="1"/>
        <pt x="1065" y="102" on="0"/>
        <pt x="1286" y="80" on="1"/>
        <pt x="1303" y="16" on="0"/>
        <pt x="1282" y="-49" on="1"/>
        <pt x="958" y="-41" on="0"/>
        <pt x="905" y="-41" on="1"/>
        <pt x="825" y="-41" on="0"/>
        <pt x="457" y="-49" on="1"/>
        <pt x="432" y="20" on="0"/>
        <pt x="457" y="80" on="1"/>
        <pt x="674" y="102" on="0"/>
        <pt x="676" y="137" on="1"/>
        <pt x="686" y="389" on="0"/>
        <pt x="686" y="772" on="1"/>
        <pt x="686" y="1092" on="0"/>
        <pt x="678" y="1354" on="1"/>
        <pt x="262" y="1300" on="0"/>
      </contour>
      <contour>
        <pt x="367" y="1395" on="1"/>
        <pt x="717" y="1405" on="1"/>
        <pt x="727" y="1073" on="0"/>
        <pt x="727" y="772" on="1"/>
        <pt x="727" y="385" on="0"/>
        <pt x="717" y="137" on="1"/>
        <pt x="715" y="63" on="0"/>
        <pt x="485" y="41" on="1"/>
        <pt x="477" y="25" on="0"/>
        <pt x="485" y="-6" on="1"/>
        <pt x="655" y="0" on="0"/>
        <pt x="834" y="0" on="1"/>
        <pt x="1047" y="0" on="0"/>
        <pt x="1243" y="-6" on="1"/>
        <pt x="1251" y="12" on="0"/>
        <pt x="1243" y="41" on="1"/>
        <pt x="911" y="61" on="0"/>
        <pt x="909" y="137" on="1"/>
        <pt x="899" y="469" on="0"/>
        <pt x="899" y="772" on="1"/>
        <pt x="899" y="1157" on="0"/>
        <pt x="909" y="1405" on="1"/>
        <pt x="1063" y="1401" on="1"/>
        <pt x="1561" y="1389" on="0"/>
        <pt x="1735" y="1063" on="1"/>
        <pt x="1761" y="1073" on="0"/>
        <pt x="1769" y="1090" on="1"/>
        <pt x="1669" y="1294" on="0"/>
        <pt x="1421" y="1462" on="0"/>
        <pt x="1176" y="1462" on="1"/>
        <pt x="834" y="1462" on="1"/>
        <pt x="725" y="1462" on="0"/>
        <pt x="285" y="1464" on="0"/>
        <pt x="178" y="1464" on="1"/>
        <pt x="174" y="1430" on="0"/>
        <pt x="154" y="1356" on="0"/>
        <pt x="137" y="1305" on="0"/>
        <pt x="98" y="1221" on="0"/>
        <pt x="84" y="1192" on="0"/>
        <pt x="35" y="1096" on="0"/>
        <pt x="31" y="1090" on="1"/>
        <pt x="39" y="1073" on="0"/>
        <pt x="66" y="1063" on="1"/>
        <pt x="137" y="1180" on="0"/>
        <pt x="215" y="1292" on="0"/>
        <pt x="322" y="1395" on="0"/>
      </contour>
    </TTGlyph>
    <TTGlyph name="Thorn" xMin="51" yMin="-49" xMax="1395" yMax="1513">
      <contour>
        <pt x="749" y="1108" on="1"/>
        <pt x="1022" y="1108" on="0"/>
        <pt x="1022" y="774" on="1"/>
        <pt x="1022" y="612" on="0"/>
        <pt x="878" y="418" on="0"/>
        <pt x="739" y="418" on="1"/>
        <pt x="606" y="418" on="0"/>
        <pt x="520" y="440" on="1"/>
        <pt x="512" y="711" on="0"/>
        <pt x="522" y="1081" on="1"/>
        <pt x="614" y="1108" on="0"/>
      </contour>
      <contour>
        <pt x="528" y="1327" on="1"/>
        <pt x="530" y="1403" on="0"/>
        <pt x="862" y="1423" on="1"/>
        <pt x="868" y="1442" on="0"/>
        <pt x="862" y="1470" on="1"/>
        <pt x="600" y="1462" on="0"/>
        <pt x="453" y="1462" on="1"/>
        <pt x="330" y="1462" on="0"/>
        <pt x="104" y="1470" on="1"/>
        <pt x="96" y="1452" on="0"/>
        <pt x="104" y="1423" on="1"/>
        <pt x="338" y="1401" on="0"/>
        <pt x="338" y="1327" on="1"/>
        <pt x="340" y="922" on="0"/>
        <pt x="336" y="137" on="1"/>
        <pt x="336" y="63" on="0"/>
        <pt x="104" y="41" on="1"/>
        <pt x="96" y="25" on="0"/>
        <pt x="104" y="-6" on="1"/>
        <pt x="274" y="0" on="0"/>
        <pt x="453" y="0" on="1"/>
        <pt x="666" y="0" on="0"/>
        <pt x="862" y="-6" on="1"/>
        <pt x="870" y="10" on="0"/>
        <pt x="862" y="41" on="1"/>
        <pt x="530" y="61" on="0"/>
        <pt x="528" y="137" on="1"/>
        <pt x="524" y="215" on="0"/>
        <pt x="520" y="375" on="1"/>
        <pt x="641" y="332" on="0"/>
        <pt x="817" y="332" on="1"/>
        <pt x="1020" y="332" on="0"/>
        <pt x="1241" y="582" on="0"/>
        <pt x="1241" y="772" on="1"/>
        <pt x="1241" y="965" on="0"/>
        <pt x="1018" y="1194" on="0"/>
        <pt x="829" y="1194" on="1"/>
        <pt x="635" y="1194" on="0"/>
        <pt x="524" y="1153" on="1"/>
        <pt x="524" y="1212" on="0"/>
      </contour>
      <contour>
        <pt x="981" y="774" on="1"/>
        <pt x="981" y="1051" on="0"/>
        <pt x="774" y="1065" on="1"/>
        <pt x="717" y="1063" on="0"/>
        <pt x="674" y="1051" on="1"/>
        <pt x="666" y="784" on="0"/>
        <pt x="672" y="471" on="1"/>
        <pt x="715" y="463" on="0"/>
        <pt x="762" y="459" on="1"/>
        <pt x="868" y="467" on="0"/>
        <pt x="981" y="639" on="0"/>
      </contour>
      <contour>
        <pt x="682" y="1325" on="1"/>
        <pt x="680" y="1290" on="0"/>
        <pt x="680" y="1225" on="1"/>
        <pt x="752" y="1235" on="0"/>
        <pt x="901" y="1235" on="1"/>
        <pt x="1126" y="1235" on="0"/>
        <pt x="1395" y="983" on="0"/>
        <pt x="1395" y="772" on="1"/>
        <pt x="1395" y="565" on="0"/>
        <pt x="1130" y="291" on="0"/>
        <pt x="889" y="291" on="1"/>
        <pt x="727" y="291" on="0"/>
        <pt x="674" y="301" on="1"/>
        <pt x="678" y="195" on="0"/>
        <pt x="682" y="139" on="1"/>
        <pt x="682" y="133" on="0"/>
        <pt x="692" y="121" on="0"/>
        <pt x="717" y="109" on="0"/>
        <pt x="775" y="91" on="0"/>
        <pt x="899" y="76" on="0"/>
        <pt x="907" y="74" on="1"/>
        <pt x="924" y="18" on="0"/>
        <pt x="901" y="-49" on="1"/>
        <pt x="532" y="-41" on="0"/>
        <pt x="453" y="-41" on="1"/>
        <pt x="399" y="-41" on="0"/>
        <pt x="76" y="-49" on="1"/>
        <pt x="51" y="20" on="0"/>
        <pt x="76" y="80" on="1"/>
        <pt x="293" y="102" on="0"/>
        <pt x="295" y="139" on="1"/>
        <pt x="307" y="729" on="0"/>
        <pt x="295" y="1325" on="1"/>
        <pt x="295" y="1362" on="0"/>
        <pt x="72" y="1384" on="1"/>
        <pt x="55" y="1450" on="0"/>
        <pt x="76" y="1513" on="1"/>
        <pt x="164" y="1513" on="0"/>
        <pt x="465" y="1503" on="0"/>
        <pt x="524" y="1503" on="1"/>
        <pt x="565" y="1503" on="0"/>
        <pt x="811" y="1507" on="0"/>
        <pt x="903" y="1507" on="1"/>
        <pt x="922" y="1450" on="0"/>
        <pt x="905" y="1384" on="1"/>
        <pt x="684" y="1362" on="0"/>
      </contour>
    </TTGlyph>
    <TTGlyph name="U" xMin="20" yMin="-82" xMax="1792" yMax="1516">
      <contour>
        <pt x="252" y="1327" on="1"/>
        <pt x="250" y="1364" on="0"/>
        <pt x="29" y="1386" on="1"/>
        <pt x="20" y="1417" on="0"/>
        <pt x="20" y="1446" on="1"/>
        <pt x="20" y="1479" on="0"/>
        <pt x="33" y="1516" on="1"/>
        <pt x="121" y="1516" on="0"/>
        <pt x="422" y="1505" on="0"/>
        <pt x="481" y="1505" on="1"/>
        <pt x="524" y="1505" on="0"/>
        <pt x="770" y="1509" on="0"/>
        <pt x="860" y="1509" on="1"/>
        <pt x="870" y="1479" on="0"/>
        <pt x="870" y="1448" on="1"/>
        <pt x="870" y="1419" on="0"/>
        <pt x="862" y="1386" on="1"/>
        <pt x="641" y="1364" on="0"/>
        <pt x="639" y="1327" on="1"/>
        <pt x="635" y="1257" on="0"/>
        <pt x="635" y="596" on="1"/>
        <pt x="635" y="344" on="0"/>
        <pt x="793" y="104" on="0"/>
        <pt x="977" y="94" on="1"/>
        <pt x="1171" y="106" on="0"/>
        <pt x="1382" y="365" on="0"/>
        <pt x="1382" y="596" on="1"/>
        <pt x="1382" y="1071" on="0"/>
        <pt x="1376" y="1311" on="1"/>
        <pt x="1374" y="1360" on="0"/>
        <pt x="1161" y="1391" on="1"/>
        <pt x="1153" y="1415" on="0"/>
        <pt x="1153" y="1440" on="1"/>
        <pt x="1153" y="1470" on="0"/>
        <pt x="1167" y="1511" on="1"/>
        <pt x="1450" y="1503" on="0"/>
        <pt x="1505" y="1503" on="1"/>
        <pt x="1612" y="1503" on="0"/>
        <pt x="1778" y="1509" on="1"/>
        <pt x="1792" y="1466" on="0"/>
        <pt x="1792" y="1446" on="1"/>
        <pt x="1792" y="1415" on="0"/>
        <pt x="1778" y="1384" on="1"/>
        <pt x="1571" y="1364" on="0"/>
        <pt x="1569" y="1311" on="1"/>
        <pt x="1559" y="1118" on="0"/>
        <pt x="1559" y="596" on="1"/>
        <pt x="1559" y="440" on="0"/>
        <pt x="1477" y="197" on="0"/>
        <pt x="1350" y="49" on="0"/>
        <pt x="1182" y="-47" on="0"/>
        <pt x="1026" y="-82" on="0"/>
        <pt x="946" y="-82" on="1"/>
        <pt x="786" y="-82" on="0"/>
        <pt x="553" y="-25" on="0"/>
        <pt x="360" y="119" on="0"/>
        <pt x="262" y="393" on="0"/>
        <pt x="262" y="596" on="1"/>
        <pt x="262" y="1085" on="0"/>
      </contour>
      <contour>
        <pt x="485" y="1329" on="1"/>
        <pt x="487" y="1405" on="0"/>
        <pt x="819" y="1425" on="1"/>
        <pt x="825" y="1444" on="0"/>
        <pt x="819" y="1473" on="1"/>
        <pt x="557" y="1464" on="0"/>
        <pt x="410" y="1464" on="1"/>
        <pt x="287" y="1464" on="0"/>
        <pt x="61" y="1473" on="1"/>
        <pt x="53" y="1454" on="0"/>
        <pt x="61" y="1425" on="1"/>
        <pt x="106" y="1421" on="0"/>
        <pt x="164" y="1413" on="0"/>
        <pt x="248" y="1393" on="0"/>
        <pt x="293" y="1354" on="0"/>
        <pt x="293" y="1327" on="1"/>
        <pt x="303" y="1010" on="0"/>
        <pt x="303" y="596" on="1"/>
        <pt x="303" y="406" on="0"/>
        <pt x="395" y="147" on="0"/>
        <pt x="578" y="12" on="0"/>
        <pt x="795" y="-41" on="0"/>
        <pt x="946" y="-41" on="1"/>
        <pt x="1020" y="-41" on="0"/>
        <pt x="1167" y="-8" on="0"/>
        <pt x="1323" y="82" on="0"/>
        <pt x="1442" y="221" on="0"/>
        <pt x="1518" y="451" on="0"/>
        <pt x="1518" y="596" on="1"/>
        <pt x="1518" y="1075" on="0"/>
        <pt x="1528" y="1313" on="1"/>
        <pt x="1532" y="1401" on="0"/>
        <pt x="1749" y="1421" on="1"/>
        <pt x="1757" y="1438" on="0"/>
        <pt x="1749" y="1468" on="1"/>
        <pt x="1561" y="1462" on="0"/>
        <pt x="1481" y="1462" on="1"/>
        <pt x="1356" y="1462" on="0"/>
        <pt x="1196" y="1468" on="1"/>
        <pt x="1188" y="1452" on="0"/>
        <pt x="1196" y="1421" on="1"/>
        <pt x="1415" y="1401" on="0"/>
        <pt x="1417" y="1313" on="1"/>
        <pt x="1423" y="1073" on="0"/>
        <pt x="1423" y="596" on="1"/>
        <pt x="1423" y="334" on="0"/>
        <pt x="1174" y="53" on="0"/>
        <pt x="942" y="53" on="1"/>
        <pt x="690" y="53" on="0"/>
        <pt x="481" y="311" on="0"/>
        <pt x="481" y="596" on="1"/>
        <pt x="481" y="1194" on="0"/>
      </contour>
    </TTGlyph>
    <TTGlyph name="Uacute" xMin="20" yMin="-82" xMax="1792" yMax="2095">
      <component glyphName="U" x="0" y="0" flags="0x204"/>
      <component glyphName="acute" x="397" y="586" flags="0x4"/>
    </TTGlyph>
    <TTGlyph name="Ucircumflex" xMin="20" yMin="-82" xMax="1792" yMax="2026">
      <component glyphName="U" x="0" y="0" flags="0x204"/>
      <component glyphName="circumflex" x="393" y="586" flags="0x4"/>
    </TTGlyph>
    <TTGlyph name="Udieresis" xMin="20" yMin="-82" xMax="1792" yMax="1991">
      <component glyphName="U" x="0" y="0" flags="0x204"/>
      <component glyphName="dieresis" x="342" y="586" flags="0x4"/>
    </TTGlyph>
    <TTGlyph name="Ugrave" xMin="20" yMin="-82" xMax="1792" yMax="2095">
      <component glyphName="U" x="0" y="0" flags="0x204"/>
      <component glyphName="grave" x="285" y="586" flags="0x4"/>
    </TTGlyph>
    <TTGlyph name="V" xMin="-20" yMin="-70" xMax="1725" yMax="1513">
      <contour>
        <pt x="1709" y="1384" on="1"/>
        <pt x="1609" y="1376" on="0"/>
        <pt x="1492" y="1343" on="0"/>
        <pt x="1473" y="1298" on="1"/>
        <pt x="923" y="-70" on="1"/>
        <pt x="820" y="-70" on="1"/>
        <pt x="228" y="1284" on="1"/>
        <pt x="191" y="1366" on="0"/>
        <pt x="-3" y="1384" on="1"/>
        <pt x="-20" y="1450" on="0"/>
        <pt x="1" y="1513" on="1"/>
        <pt x="464" y="1499" on="0"/>
        <pt x="804" y="1509" on="1"/>
        <pt x="824" y="1452" on="0"/>
        <pt x="804" y="1382" on="1"/>
        <pt x="675" y="1372" on="0"/>
        <pt x="609" y="1348" on="0"/>
        <pt x="623" y="1311" on="1"/>
        <pt x="966" y="514" on="1"/>
        <pt x="1283" y="1311" on="1"/>
        <pt x="1289" y="1327" on="0"/>
        <pt x="1260" y="1352" on="0"/>
        <pt x="1193" y="1368" on="0"/>
        <pt x="1125" y="1378" on="0"/>
        <pt x="1076" y="1382" on="1"/>
        <pt x="1060" y="1448" on="0"/>
        <pt x="1080" y="1511" on="1"/>
        <pt x="1410" y="1499" on="0"/>
        <pt x="1705" y="1513" on="1"/>
        <pt x="1725" y="1450" on="0"/>
      </contour>
      <contour>
        <pt x="1676" y="1423" on="1"/>
        <pt x="1684" y="1452" on="0"/>
        <pt x="1676" y="1470" on="1"/>
        <pt x="1545" y="1464" on="0"/>
        <pt x="1408" y="1464" on="1"/>
        <pt x="1277" y="1464" on="0"/>
        <pt x="1111" y="1470" on="1"/>
        <pt x="1103" y="1452" on="0"/>
        <pt x="1111" y="1423" on="1"/>
        <pt x="1156" y="1419" on="0"/>
        <pt x="1217" y="1411" on="0"/>
        <pt x="1305" y="1389" on="0"/>
        <pt x="1340" y="1343" on="0"/>
        <pt x="1328" y="1313" on="1"/>
        <pt x="914" y="272" on="1"/>
        <pt x="472" y="1300" on="1"/>
        <pt x="443" y="1368" on="0"/>
        <pt x="548" y="1409" on="0"/>
        <pt x="765" y="1423" on="1"/>
        <pt x="773" y="1452" on="0"/>
        <pt x="765" y="1470" on="1"/>
        <pt x="470" y="1456" on="0"/>
        <pt x="30" y="1470" on="1"/>
        <pt x="21" y="1452" on="0"/>
        <pt x="30" y="1423" on="1"/>
        <pt x="218" y="1405" on="0"/>
        <pt x="265" y="1300" on="1"/>
        <pt x="847" y="-29" on="1"/>
        <pt x="894" y="-29" on="1"/>
        <pt x="1435" y="1313" on="1"/>
        <pt x="1463" y="1370" on="0"/>
        <pt x="1584" y="1415" on="0"/>
      </contour>
    </TTGlyph>
    <TTGlyph name="W" xMin="-20" yMin="-70" xMax="2311" yMax="1503">
      <contour>
        <pt x="668" y="1384" on="1"/>
        <pt x="617" y="1382" on="0"/>
        <pt x="599" y="1339" on="0"/>
        <pt x="621" y="1284" on="1"/>
        <pt x="929" y="526" on="1"/>
        <pt x="1051" y="854" on="1"/>
        <pt x="879" y="1286" on="1"/>
        <pt x="857" y="1339" on="0"/>
        <pt x="793" y="1380" on="0"/>
        <pt x="724" y="1384" on="1"/>
        <pt x="699" y="1448" on="0"/>
        <pt x="724" y="1503" on="1"/>
        <pt x="1430" y="1503" on="1"/>
        <pt x="1455" y="1448" on="0"/>
        <pt x="1430" y="1384" on="1"/>
        <pt x="1322" y="1380" on="0"/>
        <pt x="1256" y="1329" on="0"/>
        <pt x="1273" y="1284" on="1"/>
        <pt x="1559" y="532" on="1"/>
        <pt x="1840" y="1284" on="1"/>
        <pt x="1860" y="1339" on="0"/>
        <pt x="1793" y="1376" on="0"/>
        <pt x="1692" y="1384" on="1"/>
        <pt x="1668" y="1448" on="0"/>
        <pt x="1692" y="1503" on="1"/>
        <pt x="2286" y="1503" on="1"/>
        <pt x="2311" y="1448" on="0"/>
        <pt x="2286" y="1384" on="1"/>
        <pt x="2135" y="1374" on="0"/>
        <pt x="2092" y="1354" on="1"/>
        <pt x="2047" y="1331" on="0"/>
        <pt x="2028" y="1284" on="1"/>
        <pt x="1516" y="-70" on="1"/>
        <pt x="1414" y="-70" on="1"/>
        <pt x="1146" y="621" on="1"/>
        <pt x="885" y="-70" on="1"/>
        <pt x="785" y="-70" on="1"/>
        <pt x="226" y="1284" on="1"/>
        <pt x="206" y="1333" on="0"/>
        <pt x="105" y="1374" on="0"/>
        <pt x="5" y="1384" on="1"/>
        <pt x="-20" y="1448" on="0"/>
        <pt x="5" y="1503" on="1"/>
        <pt x="668" y="1503" on="1"/>
        <pt x="693" y="1448" on="0"/>
      </contour>
      <contour>
        <pt x="634" y="1470" on="1"/>
        <pt x="40" y="1470" on="1"/>
        <pt x="27" y="1450" on="0"/>
        <pt x="40" y="1423" on="1"/>
        <pt x="220" y="1405" on="0"/>
        <pt x="263" y="1300" on="1"/>
        <pt x="812" y="-29" on="1"/>
        <pt x="857" y="-29" on="1"/>
        <pt x="1141" y="733" on="1"/>
        <pt x="1443" y="-29" on="1"/>
        <pt x="1488" y="-29" on="1"/>
        <pt x="1996" y="1313" on="1"/>
        <pt x="2018" y="1370" on="0"/>
        <pt x="2135" y="1415" on="0"/>
        <pt x="2243" y="1423" on="1"/>
        <pt x="2256" y="1450" on="0"/>
        <pt x="2243" y="1470" on="1"/>
        <pt x="1735" y="1470" on="1"/>
        <pt x="1723" y="1450" on="0"/>
        <pt x="1735" y="1423" on="1"/>
        <pt x="1854" y="1409" on="0"/>
        <pt x="1881" y="1386" on="1"/>
        <pt x="1914" y="1360" on="0"/>
        <pt x="1895" y="1313" on="1"/>
        <pt x="1506" y="266" on="1"/>
        <pt x="1111" y="1300" on="1"/>
        <pt x="1088" y="1354" on="0"/>
        <pt x="1228" y="1415" on="0"/>
        <pt x="1387" y="1423" on="1"/>
        <pt x="1400" y="1450" on="0"/>
        <pt x="1387" y="1470" on="1"/>
        <pt x="759" y="1470" on="1"/>
        <pt x="746" y="1450" on="0"/>
        <pt x="759" y="1423" on="1"/>
        <pt x="822" y="1417" on="0"/>
        <pt x="894" y="1364" on="0"/>
        <pt x="918" y="1300" on="1"/>
        <pt x="1094" y="854" on="1"/>
        <pt x="875" y="266" on="1"/>
        <pt x="455" y="1300" on="1"/>
        <pt x="421" y="1368" on="0"/>
        <pt x="503" y="1413" on="0"/>
        <pt x="634" y="1423" on="1"/>
        <pt x="646" y="1450" on="0"/>
      </contour>
    </TTGlyph>
    <TTGlyph name="X" xMin="0" yMin="-51" xMax="1669" yMax="1513">
      <contour>
        <pt x="696" y="713" on="1"/>
        <pt x="283" y="152" on="1"/>
        <pt x="213" y="55" on="0"/>
        <pt x="53" y="41" on="1"/>
        <pt x="45" y="25" on="0"/>
        <pt x="53" y="-6" on="1"/>
        <pt x="168" y="0" on="0"/>
        <pt x="301" y="0" on="1"/>
        <pt x="416" y="0" on="0"/>
        <pt x="545" y="-6" on="1"/>
        <pt x="553" y="10" on="0"/>
        <pt x="545" y="41" on="1"/>
        <pt x="405" y="57" on="0"/>
        <pt x="383" y="94" on="1"/>
        <pt x="369" y="119" on="0"/>
        <pt x="391" y="154" on="1"/>
        <pt x="743" y="637" on="1"/>
        <pt x="1048" y="152" on="1"/>
        <pt x="1061" y="133" on="0"/>
        <pt x="1063" y="102" on="0"/>
        <pt x="1028" y="69" on="0"/>
        <pt x="958" y="51" on="0"/>
        <pt x="922" y="45" on="0"/>
        <pt x="868" y="41" on="0"/>
        <pt x="844" y="39" on="0"/>
        <pt x="827" y="39" on="1"/>
        <pt x="819" y="23" on="0"/>
        <pt x="827" y="-8" on="1"/>
        <pt x="977" y="0" on="0"/>
        <pt x="1175" y="0" on="1"/>
        <pt x="1347" y="0" on="0"/>
        <pt x="1610" y="-8" on="1"/>
        <pt x="1618" y="10" on="0"/>
        <pt x="1610" y="39" on="1"/>
        <pt x="1341" y="57" on="0"/>
        <pt x="1255" y="152" on="1"/>
        <pt x="854" y="791" on="1"/>
        <pt x="1229" y="1313" on="1"/>
        <pt x="1294" y="1407" on="0"/>
        <pt x="1458" y="1423" on="1"/>
        <pt x="1468" y="1446" on="0"/>
        <pt x="1458" y="1470" on="1"/>
        <pt x="1343" y="1464" on="0"/>
        <pt x="1210" y="1464" on="1"/>
        <pt x="1106" y="1464" on="0"/>
        <pt x="977" y="1470" on="1"/>
        <pt x="969" y="1454" on="0"/>
        <pt x="977" y="1423" on="1"/>
        <pt x="1134" y="1403" on="0"/>
        <pt x="1137" y="1350" on="1"/>
        <pt x="1137" y="1333" on="0"/>
        <pt x="1124" y="1313" on="1"/>
        <pt x="807" y="866" on="1"/>
        <pt x="541" y="1288" on="1"/>
        <pt x="528" y="1315" on="0"/>
        <pt x="524" y="1354" on="0"/>
        <pt x="567" y="1384" on="0"/>
        <pt x="618" y="1403" on="0"/>
        <pt x="700" y="1415" on="0"/>
        <pt x="774" y="1421" on="0"/>
        <pt x="821" y="1423" on="1"/>
        <pt x="829" y="1440" on="0"/>
        <pt x="821" y="1470" on="1"/>
        <pt x="641" y="1462" on="0"/>
        <pt x="442" y="1462" on="1"/>
        <pt x="305" y="1462" on="0"/>
        <pt x="80" y="1470" on="1"/>
        <pt x="72" y="1452" on="0"/>
        <pt x="80" y="1423" on="1"/>
        <pt x="137" y="1417" on="0"/>
        <pt x="199" y="1407" on="0"/>
        <pt x="283" y="1364" on="0"/>
        <pt x="311" y="1327" on="1"/>
      </contour>
      <contour>
        <pt x="250" y="176" on="1"/>
        <pt x="647" y="715" on="1"/>
        <pt x="276" y="1305" on="1"/>
        <pt x="278" y="1303" on="1"/>
        <pt x="256" y="1333" on="0"/>
        <pt x="172" y="1370" on="0"/>
        <pt x="108" y="1378" on="0"/>
        <pt x="47" y="1384" on="1"/>
        <pt x="31" y="1448" on="0"/>
        <pt x="51" y="1513" on="1"/>
        <pt x="446" y="1497" on="0"/>
        <pt x="862" y="1507" on="1"/>
        <pt x="883" y="1452" on="0"/>
        <pt x="862" y="1384" on="1"/>
        <pt x="752" y="1380" on="0"/>
        <pt x="666" y="1348" on="0"/>
        <pt x="688" y="1311" on="1"/>
        <pt x="866" y="1022" on="1"/>
        <pt x="1089" y="1335" on="1"/>
        <pt x="1098" y="1348" on="0"/>
        <pt x="1081" y="1366" on="0"/>
        <pt x="1034" y="1378" on="0"/>
        <pt x="999" y="1384" on="0"/>
        <pt x="971" y="1389" on="1"/>
        <pt x="942" y="1391" on="1"/>
        <pt x="926" y="1446" on="0"/>
        <pt x="948" y="1513" on="1"/>
        <pt x="1190" y="1499" on="0"/>
        <pt x="1487" y="1513" on="1"/>
        <pt x="1497" y="1491" on="0"/>
        <pt x="1497" y="1407" on="0"/>
        <pt x="1487" y="1384" on="1"/>
        <pt x="1319" y="1370" on="0"/>
        <pt x="1261" y="1288" on="1"/>
        <pt x="965" y="872" on="1"/>
        <pt x="1403" y="174" on="1"/>
        <pt x="1452" y="96" on="0"/>
        <pt x="1653" y="78" on="1"/>
        <pt x="1669" y="14" on="0"/>
        <pt x="1649" y="-51" on="1"/>
        <pt x="1188" y="-33" on="0"/>
        <pt x="797" y="-45" on="1"/>
        <pt x="774" y="14" on="0"/>
        <pt x="797" y="78" on="1"/>
        <pt x="960" y="84" on="0"/>
        <pt x="993" y="96" on="1"/>
        <pt x="1028" y="109" on="0"/>
        <pt x="1014" y="129" on="1"/>
        <pt x="737" y="561" on="1"/>
        <pt x="424" y="129" on="1"/>
        <pt x="412" y="113" on="0"/>
        <pt x="438" y="90" on="0"/>
        <pt x="502" y="80" on="0"/>
        <pt x="551" y="76" on="0"/>
        <pt x="579" y="74" on="1"/>
        <pt x="596" y="18" on="0"/>
        <pt x="573" y="-49" on="1"/>
        <pt x="266" y="-35" on="0"/>
        <pt x="24" y="-49" on="1"/>
        <pt x="0" y="20" on="0"/>
        <pt x="24" y="80" on="1"/>
        <pt x="188" y="94" on="0"/>
      </contour>
    </TTGlyph>
    <TTGlyph name="Y" xMin="-20" yMin="-45" xMax="1520" yMax="1511">
      <contour>
        <pt x="967" y="141" on="1"/>
        <pt x="969" y="104" on="0"/>
        <pt x="1190" y="82" on="1"/>
        <pt x="1204" y="23" on="0"/>
        <pt x="1186" y="-45" on="1"/>
        <pt x="911" y="-41" on="0"/>
        <pt x="772" y="-41" on="1"/>
        <pt x="635" y="-41" on="0"/>
        <pt x="360" y="-45" on="1"/>
        <pt x="328" y="14" on="0"/>
        <pt x="360" y="82" on="1"/>
        <pt x="578" y="104" on="0"/>
        <pt x="580" y="139" on="1"/>
        <pt x="590" y="416" on="0"/>
        <pt x="592" y="635" on="1"/>
        <pt x="219" y="1284" on="1"/>
        <pt x="170" y="1366" on="0"/>
        <pt x="-12" y="1384" on="1"/>
        <pt x="-20" y="1415" on="0"/>
        <pt x="-20" y="1444" on="1"/>
        <pt x="-20" y="1475" on="0"/>
        <pt x="-8" y="1511" on="1"/>
        <pt x="203" y="1503" on="0"/>
        <pt x="489" y="1503" on="1"/>
        <pt x="696" y="1503" on="0"/>
        <pt x="795" y="1507" on="1"/>
        <pt x="805" y="1473" on="0"/>
        <pt x="805" y="1448" on="1"/>
        <pt x="805" y="1419" on="0"/>
        <pt x="795" y="1382" on="1"/>
        <pt x="688" y="1374" on="0"/>
        <pt x="606" y="1354" on="0"/>
        <pt x="606" y="1333" on="1"/>
        <pt x="606" y="1327" on="0"/>
        <pt x="850" y="889" on="1"/>
        <pt x="1122" y="1341" on="0"/>
        <pt x="1122" y="1346" on="1"/>
        <pt x="1122" y="1356" on="0"/>
        <pt x="1098" y="1372" on="0"/>
        <pt x="1057" y="1382" on="0"/>
        <pt x="1022" y="1386" on="0"/>
        <pt x="977" y="1391" on="0"/>
        <pt x="973" y="1391" on="1"/>
        <pt x="956" y="1444" on="0"/>
        <pt x="979" y="1511" on="1"/>
        <pt x="1163" y="1503" on="0"/>
        <pt x="1253" y="1503" on="1"/>
        <pt x="1337" y="1503" on="0"/>
        <pt x="1497" y="1511" on="1"/>
        <pt x="1520" y="1442" on="0"/>
        <pt x="1497" y="1384" on="1"/>
        <pt x="1343" y="1370" on="0"/>
        <pt x="1294" y="1292" on="1"/>
        <pt x="956" y="750" on="1"/>
        <pt x="956" y="344" on="0"/>
      </contour>
      <contour>
        <pt x="621" y="137" on="1"/>
        <pt x="618" y="63" on="0"/>
        <pt x="389" y="41" on="1"/>
        <pt x="379" y="16" on="0"/>
        <pt x="389" y="-8" on="1"/>
        <pt x="831" y="0" on="0"/>
        <pt x="1147" y="-6" on="1"/>
        <pt x="1155" y="14" on="0"/>
        <pt x="1147" y="43" on="1"/>
        <pt x="815" y="63" on="0"/>
        <pt x="813" y="137" on="1"/>
        <pt x="803" y="424" on="0"/>
        <pt x="803" y="582" on="1"/>
        <pt x="1260" y="1313" on="1"/>
        <pt x="1319" y="1409" on="0"/>
        <pt x="1468" y="1423" on="1"/>
        <pt x="1477" y="1440" on="0"/>
        <pt x="1468" y="1470" on="1"/>
        <pt x="1356" y="1464" on="0"/>
        <pt x="1241" y="1464" on="1"/>
        <pt x="1137" y="1464" on="0"/>
        <pt x="1008" y="1470" on="1"/>
        <pt x="999" y="1454" on="0"/>
        <pt x="1008" y="1423" on="1"/>
        <pt x="1155" y="1407" on="0"/>
        <pt x="1165" y="1358" on="1"/>
        <pt x="1169" y="1339" on="0"/>
        <pt x="1153" y="1313" on="1"/>
        <pt x="791" y="715" on="1"/>
        <pt x="463" y="1300" on="1"/>
        <pt x="428" y="1366" on="0"/>
        <pt x="541" y="1409" on="0"/>
        <pt x="756" y="1423" on="1"/>
        <pt x="764" y="1452" on="0"/>
        <pt x="756" y="1470" on="1"/>
        <pt x="461" y="1456" on="0"/>
        <pt x="20" y="1470" on="1"/>
        <pt x="12" y="1452" on="0"/>
        <pt x="20" y="1423" on="1"/>
        <pt x="197" y="1407" on="0"/>
        <pt x="256" y="1300" on="1"/>
        <pt x="633" y="643" on="1"/>
        <pt x="631" y="408" on="0"/>
      </contour>
    </TTGlyph>
    <TTGlyph name="Yacute" xMin="-20" yMin="-45" xMax="1520" yMax="2095">
      <component glyphName="Y" x="0" y="0" flags="0x204"/>
      <component glyphName="acute" x="246" y="586" flags="0x4"/>
    </TTGlyph>
    <TTGlyph name="Z" xMin="37" yMin="-47" xMax="1495" yMax="1511">
      <contour>
        <pt x="1370" y="-41" on="1"/>
        <pt x="248" y="-41" on="0"/>
        <pt x="76" y="-47" on="1"/>
        <pt x="70" y="-42" on="0"/>
        <pt x="56" y="-18" on="0"/>
        <pt x="44" y="10" on="0"/>
        <pt x="37" y="37" on="0"/>
        <pt x="37" y="45" on="1"/>
        <pt x="269" y="373" on="0"/>
        <pt x="725" y="1030" on="0"/>
        <pt x="948" y="1360" on="1"/>
        <pt x="857" y="1355" on="0"/>
        <pt x="709" y="1335" on="0"/>
        <pt x="581" y="1299" on="0"/>
        <pt x="466" y="1246" on="0"/>
        <pt x="348" y="1173" on="0"/>
        <pt x="222" y="1077" on="0"/>
        <pt x="147" y="1016" on="1"/>
        <pt x="76" y="1033" on="0"/>
        <pt x="51" y="1087" on="1"/>
        <pt x="228" y="1273" on="0"/>
        <pt x="301" y="1511" on="1"/>
        <pt x="430" y="1506" on="0"/>
        <pt x="688" y="1503" on="0"/>
        <pt x="819" y="1503" on="1"/>
        <pt x="950" y="1503" on="0"/>
        <pt x="1212" y="1506" on="0"/>
        <pt x="1346" y="1511" on="1"/>
        <pt x="1413" y="1489" on="0"/>
        <pt x="1413" y="1413" on="1"/>
        <pt x="1157" y="1051" on="0"/>
        <pt x="701" y="396" on="0"/>
        <pt x="502" y="102" on="1"/>
        <pt x="786" y="102" on="1"/>
        <pt x="910" y="102" on="0"/>
        <pt x="1106" y="177" on="0"/>
        <pt x="1252" y="307" on="0"/>
        <pt x="1351" y="483" on="0"/>
        <pt x="1380" y="584" on="1"/>
        <pt x="1460" y="567" on="0"/>
        <pt x="1495" y="522" on="1"/>
        <pt x="1491" y="507" on="0"/>
        <pt x="1476" y="451" on="0"/>
        <pt x="1457" y="381" on="0"/>
        <pt x="1435" y="302" on="0"/>
        <pt x="1415" y="227" on="0"/>
        <pt x="1399" y="159" on="0"/>
        <pt x="1377" y="52" on="0"/>
      </contour>
      <contour>
        <pt x="901" y="0" on="1"/>
        <pt x="1133" y="0" on="0"/>
        <pt x="1374" y="244" on="0"/>
        <pt x="1442" y="518" on="1"/>
        <pt x="1425" y="532" on="0"/>
        <pt x="1403" y="535" on="1"/>
        <pt x="1376" y="438" on="0"/>
        <pt x="1288" y="281" on="0"/>
        <pt x="1145" y="141" on="0"/>
        <pt x="926" y="61" on="0"/>
        <pt x="788" y="61" on="1"/>
        <pt x="313" y="61" on="1"/>
        <pt x="782" y="754" on="0"/>
        <pt x="1260" y="1425" on="1"/>
        <pt x="1260" y="1458" on="0"/>
        <pt x="1227" y="1470" on="1"/>
        <pt x="846" y="1460" on="0"/>
        <pt x="332" y="1470" on="1"/>
        <pt x="260" y="1245" on="0"/>
        <pt x="102" y="1079" on="1"/>
        <pt x="115" y="1057" on="0"/>
        <pt x="143" y="1057" on="1"/>
        <pt x="317" y="1219" on="0"/>
        <pt x="410" y="1366" on="1"/>
        <pt x="438" y="1368" on="0"/>
        <pt x="877" y="1403" on="0"/>
        <pt x="1028" y="1405" on="1"/>
        <pt x="569" y="723" on="0"/>
        <pt x="78" y="33" on="1"/>
        <pt x="78" y="8" on="0"/>
        <pt x="92" y="-6" on="1"/>
        <pt x="201" y="0" on="0"/>
      </contour>
    </TTGlyph>
    <TTGlyph name="a" xMin="113" yMin="-70" xMax="1124" yMax="950">
      <contour>
        <pt x="330" y="727" on="1"/>
        <pt x="377" y="719" on="0"/>
        <pt x="432" y="662" on="0"/>
        <pt x="432" y="618" on="1"/>
        <pt x="432" y="565" on="0"/>
        <pt x="362" y="496" on="0"/>
        <pt x="305" y="496" on="1"/>
        <pt x="246" y="496" on="0"/>
        <pt x="150" y="580" on="0"/>
        <pt x="150" y="657" on="1"/>
        <pt x="150" y="788" on="0"/>
        <pt x="399" y="950" on="0"/>
        <pt x="600" y="950" on="1"/>
        <pt x="791" y="950" on="0"/>
        <pt x="946" y="797" on="0"/>
        <pt x="946" y="616" on="1"/>
        <pt x="946" y="266" on="1"/>
        <pt x="1010" y="268" on="1"/>
        <pt x="1092" y="262" on="0"/>
        <pt x="1124" y="190" on="1"/>
        <pt x="1092" y="135" on="1"/>
        <pt x="1061" y="88" on="0"/>
        <pt x="1020" y="37" on="0"/>
        <pt x="944" y="-27" on="0"/>
        <pt x="842" y="-55" on="0"/>
        <pt x="774" y="-55" on="1"/>
        <pt x="690" y="-55" on="0"/>
        <pt x="647" y="8" on="1"/>
        <pt x="539" y="-70" on="0"/>
        <pt x="365" y="-70" on="1"/>
        <pt x="289" y="-70" on="0"/>
        <pt x="182" y="-23" on="0"/>
        <pt x="133" y="55" on="0"/>
        <pt x="113" y="123" on="0"/>
        <pt x="113" y="158" on="1"/>
        <pt x="113" y="305" on="0"/>
        <pt x="311" y="451" on="0"/>
        <pt x="612" y="528" on="1"/>
        <pt x="612" y="637" on="1"/>
        <pt x="612" y="717" on="0"/>
        <pt x="545" y="791" on="0"/>
        <pt x="492" y="791" on="1"/>
        <pt x="379" y="791" on="0"/>
      </contour>
      <contour>
        <pt x="653" y="434" on="1"/>
        <pt x="653" y="225" on="1"/>
        <pt x="557" y="98" on="0"/>
        <pt x="457" y="98" on="1"/>
        <pt x="399" y="98" on="0"/>
        <pt x="326" y="154" on="0"/>
        <pt x="326" y="205" on="1"/>
        <pt x="326" y="287" on="0"/>
        <pt x="461" y="393" on="0"/>
      </contour>
      <contour>
        <pt x="612" y="238" on="1"/>
        <pt x="612" y="360" on="1"/>
        <pt x="467" y="307" on="0"/>
        <pt x="467" y="205" on="1"/>
        <pt x="467" y="162" on="0"/>
        <pt x="498" y="145" on="1"/>
        <pt x="551" y="164" on="0"/>
      </contour>
      <contour>
        <pt x="305" y="584" on="1"/>
        <pt x="270" y="584" on="0"/>
        <pt x="256" y="635" on="1"/>
        <pt x="236" y="717" on="0"/>
        <pt x="305" y="778" on="1"/>
        <pt x="373" y="838" on="0"/>
        <pt x="510" y="838" on="1"/>
        <pt x="575" y="838" on="0"/>
        <pt x="653" y="737" on="0"/>
        <pt x="653" y="637" on="1"/>
        <pt x="653" y="498" on="1"/>
        <pt x="358" y="422" on="0"/>
        <pt x="154" y="287" on="0"/>
        <pt x="154" y="158" on="1"/>
        <pt x="154" y="90" on="0"/>
        <pt x="246" y="-29" on="0"/>
        <pt x="365" y="-29" on="1"/>
        <pt x="412" y="-29" on="0"/>
        <pt x="495" y="1" on="0"/>
        <pt x="584" y="68" on="0"/>
        <pt x="604" y="86" on="0"/>
        <pt x="651" y="131" on="0"/>
        <pt x="653" y="133" on="1"/>
        <pt x="666" y="-14" on="0"/>
        <pt x="774" y="-14" on="1"/>
        <pt x="801" y="-14" on="0"/>
        <pt x="871" y="14" on="0"/>
        <pt x="942" y="96" on="0"/>
        <pt x="961" y="123" on="0"/>
        <pt x="999" y="182" on="0"/>
        <pt x="1008" y="193" on="1"/>
        <pt x="995" y="221" on="0"/>
        <pt x="958" y="225" on="1"/>
        <pt x="903" y="141" on="0"/>
        <pt x="846" y="143" on="1"/>
        <pt x="805" y="145" on="0"/>
        <pt x="805" y="201" on="1"/>
        <pt x="805" y="616" on="1"/>
        <pt x="805" y="776" on="0"/>
        <pt x="680" y="909" on="0"/>
        <pt x="528" y="909" on="1"/>
        <pt x="391" y="909" on="0"/>
        <pt x="190" y="768" on="0"/>
        <pt x="190" y="657" on="1"/>
        <pt x="190" y="600" on="0"/>
        <pt x="260" y="537" on="0"/>
        <pt x="305" y="537" on="1"/>
        <pt x="319" y="557" on="0"/>
      </contour>
    </TTGlyph>
    <TTGlyph name="aacute" xMin="113" yMin="-70" xMax="1124" yMax="1509">
      <component glyphName="a" x="0" y="0" flags="0x204"/>
      <component glyphName="acute" x="-110" y="0" flags="0x4"/>
    </TTGlyph>
    <TTGlyph name="acircumflex" xMin="113" yMin="-70" xMax="1124" yMax="1440">
      <component glyphName="a" x="0" y="0" flags="0x204"/>
      <component glyphName="circumflex" x="-28" y="0" flags="0x4"/>
    </TTGlyph>
    <TTGlyph name="acute" xMin="451" yMin="1028" xMax="1034" yMax="1509">
      <contour>
        <pt x="743" y="1421" on="1"/>
        <pt x="502" y="1120" on="1"/>
        <pt x="530" y="1083" on="1"/>
        <pt x="885" y="1309" on="1"/>
        <pt x="922" y="1331" on="0"/>
        <pt x="922" y="1382" on="1"/>
        <pt x="922" y="1421" on="0"/>
        <pt x="874" y="1468" on="0"/>
        <pt x="836" y="1468" on="1"/>
        <pt x="780" y="1468" on="0"/>
      </contour>
      <contour>
        <pt x="451" y="1122" on="1"/>
        <pt x="711" y="1446" on="1"/>
        <pt x="762" y="1509" on="0"/>
        <pt x="836" y="1509" on="1"/>
        <pt x="907" y="1509" on="1"/>
        <pt x="965" y="1509" on="0"/>
        <pt x="1034" y="1440" on="0"/>
        <pt x="1034" y="1382" on="1"/>
        <pt x="1034" y="1311" on="0"/>
        <pt x="983" y="1278" on="1"/>
        <pt x="590" y="1028" on="1"/>
        <pt x="518" y="1028" on="1"/>
      </contour>
    </TTGlyph>
    <TTGlyph name="adieresis" xMin="113" yMin="-70" xMax="1124" yMax="1405">
      <component glyphName="a" x="0" y="0" flags="0x204"/>
      <component glyphName="dieresis" x="-42" y="0" flags="0x4"/>
    </TTGlyph>
    <TTGlyph name="ae" xMin="113" yMin="-70" xMax="1511" yMax="950">
      <contour>
        <pt x="1067" y="844" on="1"/>
        <pt x="1147" y="844" on="0"/>
        <pt x="1219" y="741" on="0"/>
        <pt x="1219" y="664" on="1"/>
        <pt x="1219" y="635" on="0"/>
        <pt x="1208" y="598" on="1"/>
        <pt x="819" y="598" on="1"/>
        <pt x="850" y="723" on="0"/>
        <pt x="989" y="844" on="0"/>
      </contour>
      <contour>
        <pt x="653" y="434" on="1"/>
        <pt x="653" y="178" on="1"/>
        <pt x="563" y="98" on="0"/>
        <pt x="457" y="98" on="1"/>
        <pt x="399" y="98" on="0"/>
        <pt x="326" y="154" on="0"/>
        <pt x="326" y="205" on="1"/>
        <pt x="326" y="287" on="0"/>
        <pt x="461" y="393" on="0"/>
      </contour>
      <contour>
        <pt x="528" y="909" on="1"/>
        <pt x="391" y="909" on="0"/>
        <pt x="190" y="768" on="0"/>
        <pt x="190" y="657" on="1"/>
        <pt x="190" y="600" on="0"/>
        <pt x="260" y="537" on="0"/>
        <pt x="305" y="537" on="1"/>
        <pt x="319" y="557" on="0"/>
        <pt x="305" y="584" on="1"/>
        <pt x="285" y="584" on="0"/>
        <pt x="254" y="631" on="0"/>
        <pt x="254" y="666" on="1"/>
        <pt x="254" y="731" on="0"/>
        <pt x="369" y="836" on="0"/>
        <pt x="496" y="838" on="1"/>
        <pt x="567" y="836" on="0"/>
        <pt x="653" y="735" on="0"/>
        <pt x="653" y="637" on="1"/>
        <pt x="653" y="498" on="1"/>
        <pt x="358" y="422" on="0"/>
        <pt x="154" y="287" on="0"/>
        <pt x="154" y="158" on="1"/>
        <pt x="154" y="90" on="0"/>
        <pt x="246" y="-29" on="0"/>
        <pt x="365" y="-29" on="1"/>
        <pt x="440" y="-29" on="0"/>
        <pt x="571" y="18" on="0"/>
        <pt x="651" y="76" on="0"/>
        <pt x="727" y="139" on="1"/>
        <pt x="838" y="-29" on="0"/>
        <pt x="1057" y="-29" on="1"/>
        <pt x="1180" y="-29" on="0"/>
        <pt x="1391" y="104" on="0"/>
        <pt x="1440" y="238" on="1"/>
        <pt x="1425" y="254" on="0"/>
        <pt x="1401" y="260" on="1"/>
        <pt x="1397" y="254" on="0"/>
        <pt x="1358" y="201" on="0"/>
        <pt x="1339" y="178" on="0"/>
        <pt x="1292" y="135" on="0"/>
        <pt x="1249" y="115" on="0"/>
        <pt x="1184" y="96" on="0"/>
        <pt x="1145" y="96" on="1"/>
        <pt x="991" y="96" on="0"/>
        <pt x="809" y="276" on="0"/>
        <pt x="805" y="424" on="1"/>
        <pt x="809" y="530" on="1"/>
        <pt x="1354" y="530" on="1"/>
        <pt x="1370" y="580" on="0"/>
        <pt x="1370" y="633" on="1"/>
        <pt x="1370" y="750" on="0"/>
        <pt x="1237" y="909" on="0"/>
        <pt x="1092" y="909" on="1"/>
        <pt x="922" y="909" on="0"/>
        <pt x="801" y="793" on="1"/>
        <pt x="739" y="909" on="0"/>
      </contour>
      <contour>
        <pt x="1178" y="664" on="1"/>
        <pt x="1178" y="774" on="0"/>
        <pt x="1104" y="797" on="1"/>
        <pt x="1016" y="770" on="0"/>
        <pt x="973" y="639" on="1"/>
        <pt x="1176" y="639" on="1"/>
        <pt x="1176" y="643" on="0"/>
        <pt x="1178" y="659" on="0"/>
      </contour>
      <contour>
        <pt x="612" y="197" on="1"/>
        <pt x="612" y="360" on="1"/>
        <pt x="467" y="307" on="0"/>
        <pt x="467" y="205" on="1"/>
        <pt x="467" y="158" on="0"/>
        <pt x="504" y="143" on="1"/>
        <pt x="563" y="154" on="0"/>
      </contour>
      <contour>
        <pt x="489" y="795" on="1"/>
        <pt x="379" y="791" on="0"/>
        <pt x="330" y="727" on="1"/>
        <pt x="377" y="719" on="0"/>
        <pt x="432" y="662" on="0"/>
        <pt x="432" y="618" on="1"/>
        <pt x="432" y="565" on="0"/>
        <pt x="362" y="496" on="0"/>
        <pt x="305" y="496" on="1"/>
        <pt x="246" y="496" on="0"/>
        <pt x="150" y="580" on="0"/>
        <pt x="150" y="657" on="1"/>
        <pt x="150" y="788" on="0"/>
        <pt x="381" y="950" on="0"/>
        <pt x="565" y="950" on="1"/>
        <pt x="754" y="950" on="0"/>
        <pt x="850" y="883" on="1"/>
        <pt x="965" y="950" on="0"/>
        <pt x="1163" y="950" on="1"/>
        <pt x="1343" y="950" on="0"/>
        <pt x="1511" y="766" on="0"/>
        <pt x="1511" y="633" on="1"/>
        <pt x="1511" y="571" on="0"/>
        <pt x="1483" y="489" on="1"/>
        <pt x="946" y="489" on="1"/>
        <pt x="946" y="424" on="1"/>
        <pt x="950" y="303" on="0"/>
        <pt x="1073" y="152" on="0"/>
        <pt x="1180" y="139" on="1"/>
        <pt x="1243" y="145" on="0"/>
        <pt x="1325" y="219" on="0"/>
        <pt x="1384" y="307" on="1"/>
        <pt x="1448" y="293" on="0"/>
        <pt x="1487" y="244" on="1"/>
        <pt x="1430" y="88" on="0"/>
        <pt x="1192" y="-70" on="0"/>
        <pt x="1057" y="-70" on="1"/>
        <pt x="885" y="-70" on="0"/>
        <pt x="752" y="47" on="1"/>
        <pt x="672" y="-14" on="0"/>
        <pt x="510" y="-70" on="0"/>
        <pt x="365" y="-70" on="1"/>
        <pt x="289" y="-70" on="0"/>
        <pt x="182" y="-23" on="0"/>
        <pt x="133" y="55" on="0"/>
        <pt x="113" y="123" on="0"/>
        <pt x="113" y="158" on="1"/>
        <pt x="113" y="305" on="0"/>
        <pt x="311" y="451" on="0"/>
        <pt x="612" y="528" on="1"/>
        <pt x="612" y="637" on="1"/>
        <pt x="612" y="711" on="0"/>
        <pt x="549" y="795" on="0"/>
      </contour>
    </TTGlyph>
    <TTGlyph name="agrave" xMin="113" yMin="-70" xMax="1124" yMax="1509">
      <component glyphName="a" x="0" y="0" flags="0x204"/>
      <component glyphName="grave" x="-58" y="0" flags="0x4"/>
    </TTGlyph>
    <TTGlyph name="ampersand" xMin="102" yMin="-72" xMax="1618" yMax="1462">
      <contour>
        <pt x="1448" y="268" on="1"/>
        <pt x="1519" y="268" on="0"/>
        <pt x="1569" y="229" on="1"/>
        <pt x="1557" y="170" on="0"/>
        <pt x="1517" y="61" on="0"/>
        <pt x="1446" y="-22" on="0"/>
        <pt x="1337" y="-72" on="0"/>
        <pt x="1255" y="-72" on="1"/>
        <pt x="1171" y="-69" on="0"/>
        <pt x="1105" y="-38" on="0"/>
        <pt x="1031" y="7" on="0"/>
        <pt x="979" y="70" on="1"/>
        <pt x="920" y="26" on="0"/>
        <pt x="818" y="-29" on="0"/>
        <pt x="714" y="-61" on="0"/>
        <pt x="601" y="-72" on="0"/>
        <pt x="530" y="-72" on="1"/>
        <pt x="452" y="-72" on="0"/>
        <pt x="327" y="-37" on="0"/>
        <pt x="232" y="24" on="0"/>
        <pt x="165" y="105" on="0"/>
        <pt x="122" y="196" on="0"/>
        <pt x="102" y="293" on="0"/>
        <pt x="102" y="338" on="1"/>
        <pt x="102" y="385" on="0"/>
        <pt x="128" y="505" on="0"/>
        <pt x="196" y="629" on="0"/>
        <pt x="313" y="750" on="0"/>
        <pt x="403" y="799" on="1"/>
        <pt x="365" y="836" on="0"/>
        <pt x="309" y="908" on="0"/>
        <pt x="272" y="984" on="0"/>
        <pt x="254" y="1070" on="0"/>
        <pt x="254" y="1122" on="1"/>
        <pt x="254" y="1194" on="0"/>
        <pt x="313" y="1319" on="0"/>
        <pt x="415" y="1410" on="0"/>
        <pt x="551" y="1462" on="0"/>
        <pt x="629" y="1462" on="1"/>
        <pt x="831" y="1462" on="0"/>
        <pt x="1032" y="1311" on="0"/>
        <pt x="1032" y="1149" on="1"/>
        <pt x="1032" y="1090" on="0"/>
        <pt x="1006" y="996" on="0"/>
        <pt x="953" y="917" on="0"/>
        <pt x="870" y="847" on="0"/>
        <pt x="813" y="811" on="1"/>
        <pt x="938" y="680" on="0"/>
        <pt x="1061" y="508" on="1"/>
        <pt x="1100" y="583" on="0"/>
        <pt x="1151" y="728" on="0"/>
        <pt x="1151" y="789" on="1"/>
        <pt x="1151" y="796" on="0"/>
        <pt x="1148" y="808" on="0"/>
        <pt x="1130" y="816" on="0"/>
        <pt x="1090" y="822" on="0"/>
        <pt x="1053" y="825" on="1"/>
        <pt x="1042" y="856" on="0"/>
        <pt x="1042" y="888" on="1"/>
        <pt x="1042" y="920" on="0"/>
        <pt x="1053" y="956" on="1"/>
        <pt x="1188" y="950" on="0"/>
        <pt x="1325" y="950" on="1"/>
        <pt x="1462" y="950" on="0"/>
        <pt x="1602" y="956" on="1"/>
        <pt x="1618" y="930" on="0"/>
        <pt x="1618" y="896" on="1"/>
        <pt x="1618" y="881" on="0"/>
        <pt x="1612" y="847" on="0"/>
        <pt x="1604" y="829" on="1"/>
        <pt x="1486" y="815" on="0"/>
        <pt x="1448" y="750" on="1"/>
        <pt x="1196" y="317" on="1"/>
        <pt x="1292" y="171" on="0"/>
        <pt x="1362" y="143" on="1"/>
        <pt x="1416" y="171" on="0"/>
      </contour>
      <contour>
        <pt x="1081" y="866" on="1"/>
        <pt x="1102" y="863" on="0"/>
        <pt x="1142" y="855" on="0"/>
        <pt x="1174" y="839" on="0"/>
        <pt x="1193" y="811" on="0"/>
        <pt x="1193" y="787" on="1"/>
        <pt x="1193" y="701" on="0"/>
        <pt x="1092" y="491" on="0"/>
        <pt x="1004" y="377" on="1"/>
        <pt x="815" y="650" on="0"/>
        <pt x="647" y="819" on="1"/>
        <pt x="707" y="852" on="0"/>
        <pt x="799" y="923" on="0"/>
        <pt x="860" y="1002" on="0"/>
        <pt x="891" y="1094" on="0"/>
        <pt x="891" y="1149" on="1"/>
        <pt x="891" y="1286" on="0"/>
        <pt x="750" y="1421" on="0"/>
        <pt x="629" y="1421" on="1"/>
        <pt x="560" y="1421" on="0"/>
        <pt x="438" y="1374" on="0"/>
        <pt x="348" y="1293" on="0"/>
        <pt x="295" y="1184" on="0"/>
        <pt x="295" y="1122" on="1"/>
        <pt x="295" y="1069" on="0"/>
        <pt x="314" y="987" on="0"/>
        <pt x="357" y="912" on="0"/>
        <pt x="425" y="836" on="0"/>
        <pt x="473" y="788" on="1"/>
        <pt x="374" y="741" on="0"/>
        <pt x="247" y="623" on="0"/>
        <pt x="172" y="502" on="0"/>
        <pt x="143" y="385" on="0"/>
        <pt x="143" y="338" on="1"/>
        <pt x="143" y="278" on="0"/>
        <pt x="184" y="148" on="0"/>
        <pt x="275" y="39" on="0"/>
        <pt x="423" y="-31" on="0"/>
        <pt x="530" y="-31" on="1"/>
        <pt x="743" y="-31" on="0"/>
        <pt x="958" y="170" on="1"/>
        <pt x="988" y="124" on="0"/>
        <pt x="1056" y="42" on="0"/>
        <pt x="1161" y="-21" on="0"/>
        <pt x="1232" y="-31" on="0"/>
        <pt x="1255" y="-31" on="1"/>
        <pt x="1318" y="-31" on="0"/>
        <pt x="1408" y="5" on="0"/>
        <pt x="1470" y="69" on="0"/>
        <pt x="1510" y="160" on="0"/>
        <pt x="1524" y="215" on="1"/>
        <pt x="1509" y="227" on="0"/>
        <pt x="1477" y="227" on="1"/>
        <pt x="1424" y="96" on="0"/>
        <pt x="1329" y="96" on="1"/>
        <pt x="1307" y="96" on="0"/>
        <pt x="1261" y="110" on="0"/>
        <pt x="1205" y="134" on="0"/>
        <pt x="1119" y="227" on="0"/>
        <pt x="1044" y="315" on="1"/>
        <pt x="1327" y="774" on="1"/>
        <pt x="1372" y="848" on="0"/>
        <pt x="1563" y="866" on="1"/>
        <pt x="1569" y="876" on="0"/>
        <pt x="1569" y="888" on="1"/>
        <pt x="1569" y="899" on="0"/>
        <pt x="1563" y="913" on="1"/>
        <pt x="1494" y="910" on="0"/>
        <pt x="1366" y="908" on="0"/>
        <pt x="1306" y="908" on="1"/>
        <pt x="1245" y="908" on="0"/>
        <pt x="1133" y="910" on="0"/>
        <pt x="1081" y="913" on="1"/>
        <pt x="1076" y="903" on="0"/>
        <pt x="1076" y="890" on="1"/>
        <pt x="1076" y="876" on="0"/>
      </contour>
      <contour>
        <pt x="594" y="868" on="1"/>
        <pt x="440" y="993" on="0"/>
        <pt x="440" y="1124" on="1"/>
        <pt x="440" y="1212" on="0"/>
        <pt x="545" y="1331" on="0"/>
        <pt x="639" y="1331" on="1"/>
        <pt x="709" y="1331" on="0"/>
        <pt x="805" y="1239" on="0"/>
        <pt x="805" y="1145" on="1"/>
        <pt x="805" y="1047" on="0"/>
        <pt x="676" y="905" on="0"/>
      </contour>
      <contour>
        <pt x="915" y="240" on="1"/>
        <pt x="803" y="119" on="0"/>
        <pt x="623" y="119" on="1"/>
        <pt x="485" y="119" on="0"/>
        <pt x="309" y="258" on="0"/>
        <pt x="309" y="387" on="1"/>
        <pt x="309" y="512" on="0"/>
        <pt x="438" y="696" on="0"/>
        <pt x="530" y="731" on="1"/>
        <pt x="764" y="487" on="0"/>
      </contour>
      <contour>
        <pt x="662" y="160" on="1"/>
        <pt x="776" y="170" on="0"/>
        <pt x="862" y="246" on="1"/>
        <pt x="727" y="463" on="0"/>
        <pt x="551" y="651" on="1"/>
        <pt x="451" y="561" on="0"/>
        <pt x="451" y="387" on="1"/>
        <pt x="451" y="285" on="0"/>
        <pt x="567" y="170" on="0"/>
      </contour>
      <contour>
        <pt x="764" y="1145" on="1"/>
        <pt x="764" y="1262" on="0"/>
        <pt x="674" y="1284" on="1"/>
        <pt x="629" y="1270" on="0"/>
        <pt x="582" y="1184" on="0"/>
        <pt x="582" y="1124" on="1"/>
        <pt x="582" y="1036" on="0"/>
        <pt x="666" y="948" on="1"/>
        <pt x="764" y="1030" on="0"/>
      </contour>
    </TTGlyph>
    <TTGlyph name="aring" xMin="113" yMin="-70" xMax="1124" yMax="1505">
      <component glyphName="a" x="0" y="0" flags="0x204"/>
      <component glyphName="ring" x="-52" y="0" flags="0x4"/>
    </TTGlyph>
    <TTGlyph name="asciicircum" xMin="86" yMin="1014" xMax="1253" yMax="1563">
      <contour>
        <pt x="365" y="1055" on="1"/>
        <pt x="633" y="1323" on="1"/>
        <pt x="901" y="1055" on="1"/>
        <pt x="1083" y="1055" on="1"/>
        <pt x="633" y="1505" on="1"/>
        <pt x="184" y="1055" on="1"/>
      </contour>
      <contour>
        <pt x="885" y="1014" on="1"/>
        <pt x="668" y="1229" on="1"/>
        <pt x="453" y="1014" on="1"/>
        <pt x="86" y="1014" on="1"/>
        <pt x="633" y="1563" on="1"/>
        <pt x="705" y="1563" on="1"/>
        <pt x="1253" y="1014" on="1"/>
      </contour>
    </TTGlyph>
    <TTGlyph name="asciitilde" xMin="145" yMin="360" xMax="1358" yMax="768">
      <contour>
        <pt x="184" y="401" on="1"/>
        <pt x="264" y="401" on="1"/>
        <pt x="299" y="473" on="0"/>
        <pt x="383" y="543" on="0"/>
        <pt x="449" y="543" on="1"/>
        <pt x="475" y="543" on="0"/>
        <pt x="541" y="524" on="0"/>
        <pt x="586" y="506" on="0"/>
        <pt x="664" y="469" on="0"/>
        <pt x="682" y="461" on="1"/>
        <pt x="809" y="401" on="0"/>
        <pt x="891" y="401" on="1"/>
        <pt x="1010" y="401" on="0"/>
        <pt x="1204" y="580" on="0"/>
        <pt x="1235" y="727" on="1"/>
        <pt x="1153" y="727" on="1"/>
        <pt x="1110" y="567" on="0"/>
        <pt x="975" y="567" on="1"/>
        <pt x="909" y="567" on="0"/>
        <pt x="819" y="612" on="1"/>
        <pt x="647" y="702" on="0"/>
        <pt x="532" y="702" on="1"/>
        <pt x="459" y="702" on="0"/>
        <pt x="332" y="637" on="0"/>
        <pt x="248" y="532" on="0"/>
        <pt x="201" y="446" on="0"/>
      </contour>
      <contour>
        <pt x="184" y="360" on="1"/>
        <pt x="145" y="416" on="1"/>
        <pt x="160" y="453" on="0"/>
        <pt x="195" y="524" on="0"/>
        <pt x="262" y="623" on="0"/>
        <pt x="342" y="692" on="0"/>
        <pt x="463" y="743" on="0"/>
        <pt x="532" y="743" on="1"/>
        <pt x="631" y="743" on="0"/>
        <pt x="797" y="696" on="0"/>
        <pt x="961" y="625" on="0"/>
        <pt x="1008" y="612" on="1"/>
        <pt x="1085" y="633" on="0"/>
        <pt x="1122" y="768" on="1"/>
        <pt x="1358" y="768" on="1"/>
        <pt x="1315" y="578" on="0"/>
        <pt x="1073" y="360" on="0"/>
        <pt x="891" y="360" on="1"/>
        <pt x="807" y="360" on="0"/>
        <pt x="532" y="485" on="0"/>
        <pt x="485" y="498" on="1"/>
        <pt x="418" y="479" on="0"/>
        <pt x="362" y="360" on="1"/>
      </contour>
    </TTGlyph>
    <TTGlyph name="asterisk" xMin="102" yMin="621" xMax="1006" yMax="1544">
      <contour>
        <pt x="430" y="1083" on="1"/>
        <pt x="430" y="1071" on="0"/>
        <pt x="432" y="1061" on="1"/>
        <pt x="260" y="1018" on="1"/>
        <pt x="143" y="986" on="0"/>
        <pt x="143" y="899" on="1"/>
        <pt x="143" y="831" on="0"/>
        <pt x="233" y="831" on="1"/>
        <pt x="251" y="831" on="0"/>
        <pt x="302" y="861" on="0"/>
        <pt x="332" y="893" on="1"/>
        <pt x="457" y="1022" on="1"/>
        <pt x="475" y="1004" on="0"/>
        <pt x="496" y="1001" on="1"/>
        <pt x="444" y="829" on="1"/>
        <pt x="434" y="795" on="0"/>
        <pt x="434" y="764" on="1"/>
        <pt x="434" y="662" on="0"/>
        <pt x="518" y="662" on="1"/>
        <pt x="557" y="662" on="0"/>
        <pt x="600" y="722" on="0"/>
        <pt x="600" y="770" on="1"/>
        <pt x="600" y="802" on="0"/>
        <pt x="592" y="829" on="1"/>
        <pt x="539" y="1004" on="1"/>
        <pt x="561" y="1010" on="0"/>
        <pt x="575" y="1024" on="1"/>
        <pt x="705" y="893" on="1"/>
        <pt x="760" y="836" on="0"/>
        <pt x="819" y="836" on="1"/>
        <pt x="893" y="836" on="0"/>
        <pt x="893" y="905" on="1"/>
        <pt x="893" y="988" on="0"/>
        <pt x="776" y="1018" on="1"/>
        <pt x="598" y="1063" on="1"/>
        <pt x="600" y="1071" on="0"/>
        <pt x="600" y="1083" on="1"/>
        <pt x="600" y="1091" on="0"/>
        <pt x="596" y="1106" on="1"/>
        <pt x="776" y="1149" on="1"/>
        <pt x="830" y="1162" on="0"/>
        <pt x="893" y="1224" on="0"/>
        <pt x="893" y="1268" on="1"/>
        <pt x="893" y="1292" on="0"/>
        <pt x="856" y="1331" on="0"/>
        <pt x="819" y="1331" on="1"/>
        <pt x="761" y="1329" on="0"/>
        <pt x="705" y="1272" on="1"/>
        <pt x="578" y="1141" on="1"/>
        <pt x="567" y="1153" on="0"/>
        <pt x="539" y="1165" on="1"/>
        <pt x="592" y="1339" on="1"/>
        <pt x="596" y="1355" on="0"/>
        <pt x="600" y="1385" on="0"/>
        <pt x="600" y="1401" on="1"/>
        <pt x="600" y="1449" on="0"/>
        <pt x="557" y="1503" on="0"/>
        <pt x="518" y="1503" on="1"/>
        <pt x="479" y="1503" on="0"/>
        <pt x="434" y="1450" on="0"/>
        <pt x="434" y="1405" on="1"/>
        <pt x="434" y="1391" on="0"/>
        <pt x="438" y="1358" on="0"/>
        <pt x="444" y="1339" on="1"/>
        <pt x="496" y="1167" on="1"/>
        <pt x="471" y="1161" on="0"/>
        <pt x="455" y="1145" on="1"/>
        <pt x="319" y="1286" on="1"/>
        <pt x="305" y="1300" on="0"/>
        <pt x="287" y="1318" on="0"/>
        <pt x="265" y="1329" on="0"/>
        <pt x="235" y="1333" on="0"/>
        <pt x="211" y="1333" on="1"/>
        <pt x="197" y="1333" on="0"/>
        <pt x="173" y="1321" on="0"/>
        <pt x="154" y="1302" on="0"/>
        <pt x="143" y="1279" on="0"/>
        <pt x="143" y="1268" on="1"/>
        <pt x="143" y="1176" on="0"/>
        <pt x="260" y="1149" on="1"/>
        <pt x="432" y="1106" on="1"/>
        <pt x="430" y="1098" on="0"/>
      </contour>
      <contour>
        <pt x="102" y="899" on="1"/>
        <pt x="102" y="1020" on="0"/>
        <pt x="250" y="1057" on="1"/>
        <pt x="356" y="1083" on="1"/>
        <pt x="250" y="1110" on="1"/>
        <pt x="252" y="1110" on="1"/>
        <pt x="102" y="1143" on="0"/>
        <pt x="102" y="1268" on="1"/>
        <pt x="102" y="1303" on="0"/>
        <pt x="166" y="1374" on="0"/>
        <pt x="211" y="1374" on="1"/>
        <pt x="311" y="1374" on="0"/>
        <pt x="406" y="1325" on="1"/>
        <pt x="393" y="1368" on="0"/>
        <pt x="393" y="1405" on="1"/>
        <pt x="393" y="1468" on="0"/>
        <pt x="459" y="1544" on="0"/>
        <pt x="518" y="1544" on="1"/>
        <pt x="565" y="1544" on="0"/>
        <pt x="623" y="1536" on="0"/>
        <pt x="684" y="1509" on="0"/>
        <pt x="713" y="1450" on="0"/>
        <pt x="713" y="1401" on="1"/>
        <pt x="713" y="1362" on="0"/>
        <pt x="700" y="1325" on="1"/>
        <pt x="752" y="1372" on="0"/>
        <pt x="819" y="1372" on="1"/>
        <pt x="891" y="1372" on="1"/>
        <pt x="946" y="1372" on="0"/>
        <pt x="1006" y="1307" on="0"/>
        <pt x="1006" y="1268" on="1"/>
        <pt x="1006" y="1217" on="0"/>
        <pt x="918" y="1130" on="0"/>
        <pt x="858" y="1110" on="1"/>
        <pt x="754" y="1081" on="1"/>
        <pt x="858" y="1057" on="1"/>
        <pt x="1006" y="1016" on="0"/>
        <pt x="1006" y="905" on="1"/>
        <pt x="1006" y="856" on="0"/>
        <pt x="948" y="795" on="0"/>
        <pt x="891" y="795" on="1"/>
        <pt x="754" y="795" on="0"/>
        <pt x="702" y="838" on="1"/>
        <pt x="713" y="805" on="0"/>
        <pt x="713" y="770" on="1"/>
        <pt x="713" y="621" on="0"/>
        <pt x="518" y="621" on="1"/>
        <pt x="393" y="621" on="0"/>
        <pt x="393" y="764" on="1"/>
        <pt x="393" y="805" on="0"/>
        <pt x="403" y="838" on="1"/>
        <pt x="348" y="791" on="0"/>
        <pt x="305" y="791" on="1"/>
        <pt x="233" y="791" on="1"/>
        <pt x="178" y="791" on="0"/>
        <pt x="102" y="844" on="0"/>
      </contour>
    </TTGlyph>
    <TTGlyph name="at" xMin="115" yMin="-356" xMax="2036" yMax="1542">
      <contour>
        <pt x="1104" y="348" on="1"/>
        <pt x="1225" y="770" on="1"/>
        <pt x="1205" y="872" on="0"/>
        <pt x="1124" y="899" on="1"/>
        <pt x="1089" y="887" on="0"/>
        <pt x="1022" y="813" on="0"/>
        <pt x="965" y="701" on="0"/>
        <pt x="922" y="559" on="0"/>
        <pt x="912" y="478" on="1"/>
        <pt x="909" y="460" on="0"/>
        <pt x="909" y="440" on="1"/>
        <pt x="909" y="411" on="0"/>
        <pt x="917" y="354" on="0"/>
        <pt x="934" y="306" on="0"/>
        <pt x="962" y="270" on="0"/>
        <pt x="983" y="262" on="1"/>
        <pt x="1054" y="278" on="0"/>
      </contour>
      <contour>
        <pt x="1266" y="770" on="1"/>
        <pt x="1141" y="330" on="1"/>
        <pt x="1095" y="269" on="0"/>
        <pt x="994" y="217" on="0"/>
        <pt x="932" y="217" on="1"/>
        <pt x="884" y="217" on="0"/>
        <pt x="821" y="251" on="0"/>
        <pt x="783" y="304" on="0"/>
        <pt x="768" y="370" on="0"/>
        <pt x="768" y="402" on="1"/>
        <pt x="768" y="510" on="0"/>
        <pt x="817" y="707" on="0"/>
        <pt x="903" y="857" on="0"/>
        <pt x="1019" y="946" on="0"/>
        <pt x="1087" y="946" on="1"/>
        <pt x="1120" y="946" on="0"/>
        <pt x="1179" y="920" on="0"/>
        <pt x="1225" y="874" on="0"/>
        <pt x="1258" y="809" on="0"/>
      </contour>
      <contour>
        <pt x="1317" y="487" on="1"/>
        <pt x="1470" y="971" on="1"/>
        <pt x="1446" y="969" on="1"/>
        <pt x="1317" y="874" on="1"/>
        <pt x="1268" y="946" on="0"/>
        <pt x="1139" y="1006" on="0"/>
        <pt x="1092" y="1006" on="1"/>
        <pt x="885" y="1006" on="0"/>
        <pt x="612" y="705" on="0"/>
        <pt x="612" y="498" on="1"/>
        <pt x="612" y="332" on="0"/>
        <pt x="786" y="150" on="0"/>
        <pt x="907" y="150" on="1"/>
        <pt x="1051" y="150" on="0"/>
        <pt x="1155" y="248" on="1"/>
        <pt x="1212" y="123" on="0"/>
        <pt x="1382" y="123" on="1"/>
        <pt x="1460" y="123" on="0"/>
        <pt x="1632" y="197" on="0"/>
        <pt x="1792" y="334" on="0"/>
        <pt x="1894" y="575" on="0"/>
        <pt x="1894" y="723" on="1"/>
        <pt x="1894" y="1047" on="0"/>
        <pt x="1442" y="1501" on="0"/>
        <pt x="1090" y="1501" on="1"/>
        <pt x="678" y="1501" on="0"/>
        <pt x="156" y="975" on="0"/>
        <pt x="156" y="578" on="1"/>
        <pt x="156" y="346" on="0"/>
        <pt x="377" y="-57" on="0"/>
        <pt x="817" y="-315" on="0"/>
        <pt x="1104" y="-315" on="1"/>
        <pt x="1260" y="-315" on="0"/>
        <pt x="1489" y="-231" on="0"/>
        <pt x="1628" y="-129" on="1"/>
        <pt x="1569" y="-29" on="1"/>
        <pt x="1479" y="-113" on="0"/>
        <pt x="1214" y="-207" on="0"/>
        <pt x="1094" y="-207" on="1"/>
        <pt x="909" y="-207" on="0"/>
        <pt x="590" y="-76" on="0"/>
        <pt x="375" y="145" on="0"/>
        <pt x="252" y="432" on="0"/>
        <pt x="252" y="588" on="1"/>
        <pt x="252" y="733" on="0"/>
        <pt x="358" y="1018" on="0"/>
        <pt x="557" y="1257" on="0"/>
        <pt x="887" y="1405" on="0"/>
        <pt x="1090" y="1405" on="1"/>
        <pt x="1399" y="1405" on="0"/>
        <pt x="1802" y="1014" on="0"/>
        <pt x="1802" y="723" on="1"/>
        <pt x="1802" y="590" on="0"/>
        <pt x="1712" y="383" on="0"/>
        <pt x="1579" y="274" on="0"/>
        <pt x="1454" y="221" on="0"/>
        <pt x="1403" y="221" on="1"/>
        <pt x="1235" y="221" on="0"/>
      </contour>
      <contour>
        <pt x="1122" y="1542" on="1"/>
        <pt x="1507" y="1542" on="0"/>
        <pt x="2036" y="1061" on="0"/>
        <pt x="2036" y="723" on="1"/>
        <pt x="2036" y="563" on="0"/>
        <pt x="1917" y="309" on="0"/>
        <pt x="1722" y="160" on="0"/>
        <pt x="1497" y="82" on="0"/>
        <pt x="1382" y="82" on="1"/>
        <pt x="1245" y="82" on="0"/>
        <pt x="1171" y="154" on="1"/>
        <pt x="1094" y="109" on="0"/>
        <pt x="907" y="109" on="1"/>
        <pt x="770" y="109" on="0"/>
        <pt x="571" y="313" on="0"/>
        <pt x="571" y="498" on="1"/>
        <pt x="571" y="723" on="0"/>
        <pt x="868" y="1047" on="0"/>
        <pt x="1092" y="1047" on="1"/>
        <pt x="1280" y="1047" on="0"/>
        <pt x="1368" y="963" on="1"/>
        <pt x="1434" y="1010" on="1"/>
        <pt x="1626" y="1010" on="1"/>
        <pt x="1442" y="432" on="0"/>
        <pt x="1436" y="410" on="0"/>
        <pt x="1425" y="367" on="0"/>
        <pt x="1423" y="338" on="0"/>
        <pt x="1425" y="303" on="0"/>
        <pt x="1440" y="276" on="0"/>
        <pt x="1452" y="268" on="1"/>
        <pt x="1501" y="279" on="0"/>
        <pt x="1602" y="340" on="0"/>
        <pt x="1700" y="444" on="0"/>
        <pt x="1761" y="616" on="0"/>
        <pt x="1761" y="723" on="1"/>
        <pt x="1761" y="989" on="0"/>
        <pt x="1401" y="1352" on="0"/>
        <pt x="1120" y="1362" on="1"/>
        <pt x="944" y="1354" on="0"/>
        <pt x="659" y="1210" on="0"/>
        <pt x="485" y="985" on="0"/>
        <pt x="393" y="723" on="0"/>
        <pt x="393" y="588" on="1"/>
        <pt x="393" y="291" on="0"/>
        <pt x="805" y="-150" on="0"/>
        <pt x="1128" y="-164" on="1"/>
        <pt x="1239" y="-156" on="0"/>
        <pt x="1485" y="-51" on="0"/>
        <pt x="1579" y="37" on="1"/>
        <pt x="1651" y="37" on="1"/>
        <pt x="1753" y="-141" on="1"/>
        <pt x="1589" y="-262" on="0"/>
        <pt x="1317" y="-356" on="0"/>
        <pt x="1104" y="-356" on="1"/>
        <pt x="879" y="-356" on="0"/>
        <pt x="500" y="-199" on="0"/>
        <pt x="252" y="63" on="0"/>
        <pt x="115" y="397" on="0"/>
        <pt x="115" y="578" on="1"/>
        <pt x="115" y="995" on="0"/>
        <pt x="672" y="1542" on="0"/>
      </contour>
    </TTGlyph>
    <TTGlyph name="atilde" xMin="113" yMin="-70" xMax="1124" yMax="1382">
      <component glyphName="a" x="0" y="0" flags="0x204"/>
      <component glyphName="tilde" x="-48" y="0" flags="0x4"/>
    </TTGlyph>
    <TTGlyph name="b" xMin="-20" yMin="-70" xMax="1180" yMax="1569">
      <contour>
        <pt x="623" y="778" on="1"/>
        <pt x="742" y="778" on="0"/>
        <pt x="865" y="586" on="0"/>
        <pt x="865" y="438" on="1"/>
        <pt x="865" y="221" on="0"/>
        <pt x="711" y="37" on="0"/>
        <pt x="621" y="37" on="1"/>
        <pt x="460" y="37" on="0"/>
        <pt x="382" y="156" on="1"/>
        <pt x="378" y="356" on="0"/>
        <pt x="378" y="680" on="1"/>
        <pt x="492" y="778" on="0"/>
      </contour>
      <contour>
        <pt x="34" y="1438" on="1"/>
        <pt x="29" y="1407" on="0"/>
        <pt x="34" y="1391" on="1"/>
        <pt x="169" y="1384" on="0"/>
        <pt x="226" y="1350" on="1"/>
        <pt x="234" y="604" on="0"/>
        <pt x="226" y="98" on="1"/>
        <pt x="378" y="-29" on="0"/>
        <pt x="587" y="-29" on="1"/>
        <pt x="705" y="-29" on="0"/>
        <pt x="886" y="66" on="0"/>
        <pt x="988" y="219" on="0"/>
        <pt x="1039" y="393" on="0"/>
        <pt x="1039" y="485" on="1"/>
        <pt x="1039" y="680" on="0"/>
        <pt x="861" y="909" on="0"/>
        <pt x="720" y="909" on="1"/>
        <pt x="546" y="909" on="0"/>
        <pt x="378" y="758" on="1"/>
        <pt x="378" y="1493" on="1"/>
        <pt x="369" y="1509" on="0"/>
        <pt x="343" y="1520" on="1"/>
        <pt x="210" y="1456" on="0"/>
      </contour>
      <contour>
        <pt x="357" y="1569" on="1"/>
        <pt x="466" y="1561" on="0"/>
        <pt x="519" y="1503" on="1"/>
        <pt x="519" y="897" on="1"/>
        <pt x="623" y="950" on="0"/>
        <pt x="791" y="950" on="1"/>
        <pt x="963" y="950" on="0"/>
        <pt x="1180" y="698" on="0"/>
        <pt x="1180" y="485" on="1"/>
        <pt x="1180" y="385" on="0"/>
        <pt x="1123" y="197" on="0"/>
        <pt x="1004" y="31" on="0"/>
        <pt x="795" y="-70" on="0"/>
        <pt x="658" y="-70" on="1"/>
        <pt x="367" y="-70" on="0"/>
        <pt x="185" y="80" on="1"/>
        <pt x="197" y="690" on="0"/>
        <pt x="185" y="1325" on="1"/>
        <pt x="120" y="1346" on="0"/>
        <pt x="3" y="1352" on="1"/>
        <pt x="-20" y="1417" on="0"/>
        <pt x="5" y="1477" on="1"/>
        <pt x="183" y="1493" on="0"/>
      </contour>
      <contour>
        <pt x="824" y="438" on="1"/>
        <pt x="824" y="555" on="0"/>
        <pt x="738" y="721" on="0"/>
        <pt x="654" y="733" on="1"/>
        <pt x="584" y="723" on="0"/>
        <pt x="519" y="664" on="1"/>
        <pt x="519" y="362" on="0"/>
        <pt x="523" y="166" on="1"/>
        <pt x="568" y="92" on="0"/>
        <pt x="652" y="80" on="1"/>
        <pt x="722" y="96" on="0"/>
        <pt x="824" y="266" on="0"/>
      </contour>
    </TTGlyph>
    <TTGlyph name="backslash" xMin="123" yMin="-467" xMax="1257" yMax="1661">
      <contour>
        <pt x="184" y="1620" on="1"/>
        <pt x="991" y="-426" on="1"/>
        <pt x="1124" y="-426" on="1"/>
        <pt x="322" y="1620" on="1"/>
      </contour>
      <contour>
        <pt x="963" y="-467" on="1"/>
        <pt x="123" y="1661" on="1"/>
        <pt x="422" y="1661" on="1"/>
        <pt x="1257" y="-467" on="1"/>
      </contour>
    </TTGlyph>
    <TTGlyph name="bar" xMin="143" yMin="-518" xMax="414" yMax="1858">
      <contour>
        <pt x="184" y="1817" on="1"/>
        <pt x="184" y="-477" on="1"/>
        <pt x="301" y="-477" on="1"/>
        <pt x="301" y="1817" on="1"/>
      </contour>
      <contour>
        <pt x="143" y="-518" on="1"/>
        <pt x="143" y="1858" on="1"/>
        <pt x="414" y="1858" on="1"/>
        <pt x="414" y="-518" on="1"/>
      </contour>
    </TTGlyph>
    <TTGlyph name="braceleft" xMin="82" yMin="-473" xMax="889" yMax="1681">
      <contour>
        <pt x="82" y="686" on="1"/>
        <pt x="157" y="697" on="0"/>
        <pt x="252" y="761" on="0"/>
        <pt x="306" y="854" on="0"/>
        <pt x="326" y="970" on="0"/>
        <pt x="326" y="1034" on="1"/>
        <pt x="319" y="1231" on="1"/>
        <pt x="319" y="1261" on="0"/>
        <pt x="321" y="1324" on="0"/>
        <pt x="328" y="1386" on="0"/>
        <pt x="344" y="1444" on="0"/>
        <pt x="359" y="1470" on="1"/>
        <pt x="381" y="1509" on="0"/>
        <pt x="443" y="1577" on="0"/>
        <pt x="552" y="1632" on="0"/>
        <pt x="723" y="1671" on="0"/>
        <pt x="854" y="1681" on="1"/>
        <pt x="889" y="1552" on="1"/>
        <pt x="850" y="1547" on="0"/>
        <pt x="775" y="1523" on="0"/>
        <pt x="716" y="1483" on="0"/>
        <pt x="680" y="1426" on="0"/>
        <pt x="680" y="1388" on="1"/>
        <pt x="697" y="1047" on="0"/>
        <pt x="697" y="1039" on="1"/>
        <pt x="697" y="752" on="0"/>
        <pt x="426" y="604" on="1"/>
        <pt x="697" y="456" on="0"/>
        <pt x="697" y="169" on="1"/>
        <pt x="697" y="161" on="0"/>
        <pt x="696" y="143" on="0"/>
        <pt x="680" y="-180" on="1"/>
        <pt x="680" y="-218" on="0"/>
        <pt x="716" y="-275" on="0"/>
        <pt x="775" y="-315" on="0"/>
        <pt x="850" y="-339" on="0"/>
        <pt x="889" y="-344" on="1"/>
        <pt x="854" y="-473" on="1"/>
        <pt x="685" y="-461" on="0"/>
        <pt x="614" y="-439" on="1"/>
        <pt x="513" y="-410" on="0"/>
        <pt x="396" y="-326" on="0"/>
        <pt x="336" y="-220" on="0"/>
        <pt x="319" y="-94" on="0"/>
        <pt x="319" y="-23" on="1"/>
        <pt x="326" y="174" on="1"/>
        <pt x="326" y="204" on="0"/>
        <pt x="323" y="251" on="0"/>
        <pt x="316" y="296" on="0"/>
        <pt x="302" y="344" on="0"/>
        <pt x="292" y="374" on="1"/>
        <pt x="271" y="434" on="0"/>
        <pt x="165" y="510" on="0"/>
        <pt x="82" y="522" on="1"/>
      </contour>
      <contour>
        <pt x="123" y="649" on="1"/>
        <pt x="123" y="559" on="1"/>
        <pt x="190" y="549" on="0"/>
        <pt x="287" y="485" on="0"/>
        <pt x="336" y="410" on="0"/>
        <pt x="362" y="297" on="0"/>
        <pt x="367" y="225" on="0"/>
        <pt x="367" y="174" on="1"/>
        <pt x="360" y="-23" on="1"/>
        <pt x="360" y="-70" on="0"/>
        <pt x="365" y="-127" on="0"/>
        <pt x="383" y="-211" on="0"/>
        <pt x="418" y="-268" on="0"/>
        <pt x="483" y="-334" on="0"/>
        <pt x="578" y="-379" on="0"/>
        <pt x="721" y="-418" on="0"/>
        <pt x="813" y="-428" on="1"/>
        <pt x="827" y="-379" on="1"/>
        <pt x="711" y="-369" on="0"/>
        <pt x="530" y="-268" on="0"/>
        <pt x="539" y="-170" on="1"/>
        <pt x="555" y="135" on="1"/>
        <pt x="573" y="469" on="0"/>
        <pt x="227" y="604" on="1"/>
        <pt x="317" y="639" on="0"/>
        <pt x="449" y="741" on="0"/>
        <pt x="512" y="836" on="0"/>
        <pt x="549" y="956" on="0"/>
        <pt x="555" y="1028" on="0"/>
        <pt x="555" y="1073" on="1"/>
        <pt x="555" y="1141" on="0"/>
        <pt x="539" y="1346" on="0"/>
        <pt x="539" y="1378" on="1"/>
        <pt x="539" y="1477" on="0"/>
        <pt x="713" y="1577" on="0"/>
        <pt x="827" y="1587" on="1"/>
        <pt x="813" y="1636" on="1"/>
        <pt x="721" y="1626" on="0"/>
        <pt x="578" y="1587" on="0"/>
        <pt x="483" y="1542" on="0"/>
        <pt x="418" y="1477" on="0"/>
        <pt x="383" y="1419" on="0"/>
        <pt x="365" y="1335" on="0"/>
        <pt x="360" y="1278" on="0"/>
        <pt x="360" y="1231" on="1"/>
        <pt x="367" y="1034" on="1"/>
        <pt x="367" y="983" on="0"/>
        <pt x="362" y="911" on="0"/>
        <pt x="336" y="799" on="0"/>
        <pt x="287" y="723" on="0"/>
        <pt x="190" y="659" on="0"/>
      </contour>
    </TTGlyph>
    <TTGlyph name="braceright" xMin="31" yMin="-473" xMax="838" yMax="1681">
      <contour>
        <pt x="592" y="604" on="1"/>
        <pt x="263" y="475" on="0"/>
        <pt x="263" y="168" on="1"/>
        <pt x="263" y="160" on="0"/>
        <pt x="281" y="-170" on="1"/>
        <pt x="281" y="-232" on="0"/>
        <pt x="246" y="-300" on="0"/>
        <pt x="190" y="-347" on="0"/>
        <pt x="119" y="-374" on="0"/>
        <pt x="82" y="-379" on="1"/>
        <pt x="96" y="-428" on="1"/>
        <pt x="213" y="-411" on="0"/>
        <pt x="356" y="-343" on="0"/>
        <pt x="433" y="-245" on="0"/>
        <pt x="459" y="-121" on="0"/>
        <pt x="459" y="-23" on="1"/>
        <pt x="452" y="183" on="0"/>
        <pt x="452" y="200" on="0"/>
        <pt x="452" y="208" on="1"/>
        <pt x="452" y="526" on="0"/>
        <pt x="696" y="559" on="1"/>
        <pt x="696" y="649" on="1"/>
        <pt x="452" y="682" on="0"/>
        <pt x="452" y="1000" on="1"/>
        <pt x="452" y="1008" on="0"/>
        <pt x="452" y="1025" on="0"/>
        <pt x="459" y="1231" on="1"/>
        <pt x="459" y="1291" on="0"/>
        <pt x="456" y="1346" on="0"/>
        <pt x="444" y="1409" on="0"/>
        <pt x="432" y="1443" on="0"/>
        <pt x="416" y="1474" on="1"/>
        <pt x="349" y="1600" on="0"/>
        <pt x="96" y="1636" on="1"/>
        <pt x="82" y="1587" on="1"/>
        <pt x="119" y="1582" on="0"/>
        <pt x="190" y="1555" on="0"/>
        <pt x="246" y="1508" on="0"/>
        <pt x="281" y="1440" on="0"/>
        <pt x="281" y="1395" on="1"/>
        <pt x="263" y="1048" on="0"/>
        <pt x="263" y="1040" on="1"/>
        <pt x="263" y="731" on="0"/>
      </contour>
      <contour>
        <pt x="240" y="-170" on="1"/>
        <pt x="222" y="144" on="0"/>
        <pt x="222" y="163" on="0"/>
        <pt x="222" y="172" on="1"/>
        <pt x="222" y="460" on="0"/>
        <pt x="492" y="604" on="1"/>
        <pt x="222" y="749" on="0"/>
        <pt x="222" y="1039" on="1"/>
        <pt x="222" y="1047" on="0"/>
        <pt x="222" y="1064" on="0"/>
        <pt x="240" y="1388" on="1"/>
        <pt x="240" y="1426" on="0"/>
        <pt x="204" y="1483" on="0"/>
        <pt x="145" y="1523" on="0"/>
        <pt x="70" y="1547" on="0"/>
        <pt x="31" y="1552" on="1"/>
        <pt x="66" y="1681" on="1"/>
        <pt x="189" y="1672" on="0"/>
        <pt x="347" y="1638" on="0"/>
        <pt x="450" y="1593" on="0"/>
        <pt x="513" y="1538" on="0"/>
        <pt x="561" y="1480" on="0"/>
        <pt x="586" y="1415" on="0"/>
        <pt x="598" y="1351" on="0"/>
        <pt x="601" y="1294" on="0"/>
        <pt x="600" y="1231" on="1"/>
        <pt x="594" y="1026" on="0"/>
        <pt x="593" y="1013" on="0"/>
        <pt x="593" y="1006" on="1"/>
        <pt x="593" y="719" on="0"/>
        <pt x="838" y="686" on="1"/>
        <pt x="838" y="522" on="1"/>
        <pt x="593" y="489" on="0"/>
        <pt x="593" y="201" on="1"/>
        <pt x="593" y="194" on="0"/>
        <pt x="594" y="181" on="0"/>
        <pt x="600" y="-23" on="1"/>
        <pt x="600" y="-35" on="0"/>
        <pt x="601" y="-87" on="0"/>
        <pt x="598" y="-144" on="0"/>
        <pt x="586" y="-208" on="0"/>
        <pt x="561" y="-273" on="0"/>
        <pt x="512" y="-330" on="0"/>
        <pt x="450" y="-385" on="0"/>
        <pt x="348" y="-430" on="0"/>
        <pt x="189" y="-464" on="0"/>
        <pt x="66" y="-473" on="1"/>
        <pt x="31" y="-344" on="1"/>
        <pt x="70" y="-339" on="0"/>
        <pt x="145" y="-315" on="0"/>
        <pt x="204" y="-275" on="0"/>
        <pt x="240" y="-218" on="0"/>
      </contour>
    </TTGlyph>
    <TTGlyph name="bracketleft" xMin="225" yMin="-467" xMax="874" yMax="1661">
      <contour>
        <pt x="762" y="1534" on="1"/>
        <pt x="762" y="1620" on="1"/>
        <pt x="266" y="1620" on="1"/>
        <pt x="266" y="-426" on="1"/>
        <pt x="762" y="-426" on="1"/>
        <pt x="762" y="-340" on="1"/>
        <pt x="465" y="-340" on="1"/>
        <pt x="465" y="1534" on="1"/>
      </contour>
      <contour>
        <pt x="874" y="1661" on="1"/>
        <pt x="874" y="1493" on="1"/>
        <pt x="578" y="1493" on="1"/>
        <pt x="578" y="-299" on="1"/>
        <pt x="874" y="-299" on="1"/>
        <pt x="874" y="-467" on="1"/>
        <pt x="225" y="-467" on="1"/>
        <pt x="225" y="1661" on="1"/>
      </contour>
    </TTGlyph>
    <TTGlyph name="bracketright" xMin="61" yMin="-467" xMax="711" yMax="1661">
      <contour>
        <pt x="598" y="1620" on="1"/>
        <pt x="102" y="1620" on="1"/>
        <pt x="102" y="1534" on="1"/>
        <pt x="399" y="1534" on="1"/>
        <pt x="399" y="-340" on="1"/>
        <pt x="102" y="-340" on="1"/>
        <pt x="102" y="-426" on="1"/>
        <pt x="598" y="-426" on="1"/>
      </contour>
      <contour>
        <pt x="61" y="1661" on="1"/>
        <pt x="711" y="1661" on="1"/>
        <pt x="711" y="-467" on="1"/>
        <pt x="61" y="-467" on="1"/>
        <pt x="61" y="-299" on="1"/>
        <pt x="358" y="-299" on="1"/>
        <pt x="358" y="1493" on="1"/>
        <pt x="61" y="1493" on="1"/>
      </contour>
    </TTGlyph>
    <TTGlyph name="brokenbar" xMin="143" yMin="-518" xMax="414" yMax="1858">
      <contour>
        <pt x="184" y="475" on="1"/>
        <pt x="184" y="-477" on="1"/>
        <pt x="301" y="-477" on="1"/>
        <pt x="301" y="475" on="1"/>
      </contour>
      <contour>
        <pt x="301" y="864" on="1"/>
        <pt x="301" y="1817" on="1"/>
        <pt x="184" y="1817" on="1"/>
        <pt x="184" y="864" on="1"/>
      </contour>
      <contour>
        <pt x="414" y="1858" on="1"/>
        <pt x="414" y="823" on="1"/>
        <pt x="143" y="823" on="1"/>
        <pt x="143" y="1858" on="1"/>
      </contour>
      <contour>
        <pt x="143" y="-518" on="1"/>
        <pt x="143" y="516" on="1"/>
        <pt x="414" y="516" on="1"/>
        <pt x="414" y="-518" on="1"/>
      </contour>
    </TTGlyph>
    <TTGlyph name="bullet" xMin="143" yMin="492" xMax="690" yMax="967">
      <contour>
        <pt x="184" y="729" on="1"/>
        <pt x="184" y="647" on="0"/>
        <pt x="287" y="532" on="0"/>
        <pt x="438" y="532" on="0"/>
        <pt x="543" y="647" on="0"/>
        <pt x="543" y="729" on="1"/>
        <pt x="543" y="813" on="0"/>
        <pt x="438" y="926" on="0"/>
        <pt x="287" y="926" on="0"/>
        <pt x="184" y="813" on="0"/>
      </contour>
      <contour>
        <pt x="143" y="729" on="1"/>
        <pt x="143" y="829" on="0"/>
        <pt x="281" y="967" on="0"/>
        <pt x="381" y="967" on="1"/>
        <pt x="690" y="967" on="0"/>
        <pt x="690" y="492" on="0"/>
        <pt x="381" y="492" on="1"/>
        <pt x="281" y="492" on="0"/>
        <pt x="143" y="631" on="0"/>
      </contour>
    </TTGlyph>
</ttFont>
